<svg xmlns="http://www.w3.org/2000/svg" xmlns:xlink="http://www.w3.org/1999/xlink" xmlns:lucid="lucid" width="2680" height="1040"><g transform="translate(241.33333333333326 0)" lucid:page-tab-id="0_0"><path d="M338.67 61.33c0-3.3 2.68-6 6-6h2068c3.3 0 6 2.7 6 6v888c0 3.32-2.7 6-6 6h-2068c-3.32 0-6-2.68-6-6z" stroke="#333" stroke-width="3" fill="#fff"/><path d="M838.67 101.33c0-3.3 2.68-6 6-6h1528c3.3 0 6 2.7 6 6v388c0 3.32-2.7 6-6 6h-1528c-3.32 0-6-2.68-6-6z" stroke="#333" stroke-width="3" fill="#fff"/><path d="M878.67 341.33c0-3.3 2.68-6 6-6h268c3.3 0 6 2.7 6 6v108c0 3.32-2.7 6-6 6h-268c-3.32 0-6-2.68-6-6z" stroke="#333" stroke-width="3" fill="#fff"/><use xlink:href="#a" transform="matrix(1,0,0,1,883.6666666666667,340.3333333333333) translate(83.24074074074076 61.04166666666666)"/><use xlink:href="#b" transform="matrix(1,0,0,1,883.6666666666667,340.3333333333333) translate(138.7037037037037 61.04166666666666)"/><path d="M298.67 61.33c0-3.3 2.68-6 6-6h228c3.3 0 6 2.7 6 6v48c0 3.32-2.7 6-6 6h-228c-3.32 0-6-2.68-6-6z" stroke="#333" stroke-opacity="0" stroke-width="3" fill="#fff" fill-opacity="0"/><use xlink:href="#c" transform="matrix(1,0,0,1,303.66666666666674,60.333333333333314) translate(59.53703703703706 32.91666666666666)"/><path d="M1258.67 341.33c0-3.3 2.68-6 6-6h268c3.3 0 6 2.7 6 6v108c0 3.32-2.7 6-6 6h-268c-3.32 0-6-2.68-6-6z" stroke="#333" stroke-width="3" fill="#fff"/><use xlink:href="#d" transform="matrix(1,0,0,1,1263.6666666666667,340.3333333333333) translate(84.21296296296298 61.04166666666666)"/><use xlink:href="#b" transform="matrix(1,0,0,1,1263.6666666666667,340.3333333333333) translate(137.73148148148147 61.04166666666666)"/><path d="M1638.67 341.33c0-3.3 2.68-6 6-6h268c3.3 0 6 2.7 6 6v108c0 3.32-2.7 6-6 6h-268c-3.32 0-6-2.68-6-6z" stroke="#333" stroke-width="3" fill="#fff"/><use xlink:href="#d" transform="matrix(1,0,0,1,1643.6666666666667,340.3333333333333) translate(84.21296296296298 61.04166666666666)"/><use xlink:href="#e" transform="matrix(1,0,0,1,1643.6666666666667,340.3333333333333) translate(137.73148148148147 61.04166666666666)"/><path d="M2018.67 341.33c0-3.3 2.68-6 6-6h268c3.3 0 6 2.7 6 6v108c0 3.32-2.7 6-6 6h-268c-3.32 0-6-2.68-6-6z" stroke="#333" stroke-width="3" fill="#fff"/><use xlink:href="#a" transform="matrix(1,0,0,1,2023.6666666666667,340.3333333333333) translate(83.24074074074076 61.04166666666666)"/><use xlink:href="#e" transform="matrix(1,0,0,1,2023.6666666666667,340.3333333333333) translate(138.7037037037037 61.04166666666666)"/><path d="M856 106.33c0-3.3 2.7-6 6-6h310.67c3.3 0 6 2.7 6 6v78c0 3.32-2.7 6-6 6H862c-3.3 0-6-2.68-6-6z" stroke="#333" stroke-opacity="0" stroke-width="3" fill="#fff" fill-opacity="0"/><use xlink:href="#f" transform="matrix(1,0,0,1,861.0000000000002,105.33333333333333) translate(6.731481481481524 46.66666666666666)"/><use xlink:href="#g" transform="matrix(1,0,0,1,861.0000000000002,105.33333333333333) translate(174.87962962962962 46.66666666666666)"/><use xlink:href="#h" transform="matrix(1,0,0,1,861.0000000000002,105.33333333333333) translate(287.74999999999994 46.66666666666666)"/><path d="M878.67 181.33c0-3.3 2.68-6 6-6h268c3.3 0 6 2.7 6 6v108c0 3.32-2.7 6-6 6h-268c-3.32 0-6-2.68-6-6z" stroke="#333" stroke-width="3" fill="#fff"/><use xlink:href="#a" transform="matrix(1,0,0,1,883.6666666666667,180.33333333333331) translate(4.629629629629676 61.04166666666666)"/><use xlink:href="#i" transform="matrix(1,0,0,1,883.6666666666667,180.33333333333331) translate(60.092592592592624 61.04166666666666)"/><use xlink:href="#j" transform="matrix(1,0,0,1,883.6666666666667,180.33333333333331) translate(117.40740740740742 61.04166666666666)"/><path d="M1258.67 181.33c0-3.3 2.68-6 6-6h268c3.3 0 6 2.7 6 6v108c0 3.32-2.7 6-6 6h-268c-3.32 0-6-2.68-6-6z" stroke="#333" stroke-width="3" fill="#fff"/><use xlink:href="#d" transform="matrix(1,0,0,1,1263.6666666666667,180.33333333333331) translate(5.6018518518519045 61.04166666666666)"/><use xlink:href="#i" transform="matrix(1,0,0,1,1263.6666666666667,180.33333333333331) translate(59.12037037037041 61.04166666666666)"/><use xlink:href="#j" transform="matrix(1,0,0,1,1263.6666666666667,180.33333333333331) translate(116.4351851851852 61.04166666666666)"/><path d="M1638.67 181.33c0-3.3 2.68-6 6-6h268c3.3 0 6 2.7 6 6v108c0 3.32-2.7 6-6 6h-268c-3.32 0-6-2.68-6-6z" stroke="#333" stroke-width="3" fill="#fff"/><use xlink:href="#d" transform="matrix(1,0,0,1,1643.6666666666667,180.33333333333331) translate(5.6018518518519045 61.04166666666666)"/><use xlink:href="#k" transform="matrix(1,0,0,1,1643.6666666666667,180.33333333333331) translate(59.12037037037041 61.04166666666666)"/><use xlink:href="#j" transform="matrix(1,0,0,1,1643.6666666666667,180.33333333333331) translate(116.4351851851852 61.04166666666666)"/><path d="M2018.67 181.33c0-3.3 2.68-6 6-6h268c3.3 0 6 2.7 6 6v108c0 3.32-2.7 6-6 6h-268c-3.32 0-6-2.68-6-6z" stroke="#333" stroke-width="3" fill="#fff"/><use xlink:href="#a" transform="matrix(1,0,0,1,2023.6666666666667,180.33333333333331) translate(4.629629629629676 61.04166666666666)"/><use xlink:href="#k" transform="matrix(1,0,0,1,2023.6666666666667,180.33333333333331) translate(60.092592592592624 61.04166666666666)"/><use xlink:href="#j" transform="matrix(1,0,0,1,2023.6666666666667,180.33333333333331) translate(117.40740740740742 61.04166666666666)"/><path d="M1161.17 235.33h33c3.3 0 6 2.7 6 6v149.6c0 3.32-2.7 6-6 6h-15.5" stroke="#333" stroke-width="2" fill="none"/><path d="M1161.2 236.33h-1.03v-2h1.02z" fill="#333"/><path d="M1163.4 396.94l14.27-4.63v9.28z" stroke="#333" stroke-width="2" fill="#333"/><path d="M1541.17 235.33h33c3.3 0 6 2.7 6 6v151.4c0 3.32-2.7 6-6 6h-15.5" stroke="#333" stroke-width="2" fill="none"/><path d="M1541.2 236.33h-1.03v-2h1.02z" fill="#333"/><path d="M1543.4 398.74l14.27-4.64v9.28z" stroke="#333" stroke-width="2" fill="#333"/><path d="M1921.17 235.33h33c3.3 0 6 2.7 6 6v149.6c0 3.32-2.7 6-6 6h-15.5" stroke="#333" stroke-width="2" fill="none"/><path d="M1921.2 236.33h-1.03v-2h1.02z" fill="#333"/><path d="M1923.4 396.94l14.27-4.63v9.28z" stroke="#333" stroke-width="2" fill="#333"/><path d="M2301.17 235.33h33c3.3 0 6 2.7 6 6v151.4c0 3.32-2.7 6-6 6h-15.5" stroke="#333" stroke-width="2" fill="none"/><path d="M2301.2 236.33h-1.03v-2h1.02z" fill="#333"/><path d="M2303.4 398.74l14.27-4.64v9.28z" stroke="#333" stroke-width="2" fill="#333"/><path d="M838.67 541.33c0-3.3 2.68-6 6-6h1528c3.3 0 6 2.7 6 6v388c0 3.32-2.7 6-6 6h-1528c-3.32 0-6-2.68-6-6z" stroke="#333" stroke-width="3" fill="#fff"/><path d="M878.67 781.33c0-3.3 2.68-6 6-6h268c3.3 0 6 2.7 6 6v108c0 3.32-2.7 6-6 6h-268c-3.32 0-6-2.68-6-6z" stroke="#333" stroke-width="3" fill="#fff"/><use xlink:href="#a" transform="matrix(1,0,0,1,883.6666666666667,780.3333333333333) translate(83.24074074074076 61.04166666666666)"/><use xlink:href="#l" transform="matrix(1,0,0,1,883.6666666666667,780.3333333333333) translate(138.7037037037037 61.04166666666666)"/><path d="M1258.67 781.33c0-3.3 2.68-6 6-6h268c3.3 0 6 2.7 6 6v108c0 3.32-2.7 6-6 6h-268c-3.32 0-6-2.68-6-6z" stroke="#333" stroke-width="3" fill="#fff"/><use xlink:href="#a" transform="matrix(1,0,0,1,1263.6666666666667,780.3333333333333) translate(83.24074074074076 61.04166666666666)"/><use xlink:href="#m" transform="matrix(1,0,0,1,1263.6666666666667,780.3333333333333) translate(138.7037037037037 61.04166666666666)"/><path d="M1638.67 781.33c0-3.3 2.68-6 6-6h268c3.3 0 6 2.7 6 6v108c0 3.32-2.7 6-6 6h-268c-3.32 0-6-2.68-6-6z" stroke="#333" stroke-width="3" fill="#fff"/><use xlink:href="#d" transform="matrix(1,0,0,1,1643.6666666666667,780.3333333333333) translate(84.21296296296298 61.04166666666666)"/><use xlink:href="#l" transform="matrix(1,0,0,1,1643.6666666666667,780.3333333333333) translate(137.73148148148147 61.04166666666666)"/><path d="M2018.67 781.33c0-3.3 2.68-6 6-6h268c3.3 0 6 2.7 6 6v108c0 3.32-2.7 6-6 6h-268c-3.32 0-6-2.68-6-6z" stroke="#333" stroke-width="3" fill="#fff"/><use xlink:href="#a" transform="matrix(1,0,0,1,2023.6666666666667,780.3333333333333) translate(83.24074074074076 61.04166666666666)"/><use xlink:href="#n" transform="matrix(1,0,0,1,2023.6666666666667,780.3333333333333) translate(138.7037037037037 61.04166666666666)"/><path d="M856 546.33c0-3.3 2.7-6 6-6h310.67c3.3 0 6 2.7 6 6v78c0 3.32-2.7 6-6 6H862c-3.3 0-6-2.68-6-6z" stroke="#333" stroke-opacity="0" stroke-width="3" fill="#fff" fill-opacity="0"/><use xlink:href="#f" transform="matrix(1,0,0,1,861.0000000000002,545.3333333333333) translate(6.731481481481524 46.66666666666666)"/><use xlink:href="#g" transform="matrix(1,0,0,1,861.0000000000002,545.3333333333333) translate(174.87962962962962 46.66666666666666)"/><use xlink:href="#o" transform="matrix(1,0,0,1,861.0000000000002,545.3333333333333) translate(287.74999999999994 46.66666666666666)"/><path d="M878.67 621.33c0-3.3 2.68-6 6-6h268c3.3 0 6 2.7 6 6v108c0 3.32-2.7 6-6 6h-268c-3.32 0-6-2.68-6-6z" stroke="#333" stroke-width="3" fill="#fff"/><use xlink:href="#a" transform="matrix(1,0,0,1,883.6666666666667,620.3333333333333) translate(4.629629629629676 61.04166666666666)"/><use xlink:href="#p" transform="matrix(1,0,0,1,883.6666666666667,620.3333333333333) translate(60.092592592592624 61.04166666666666)"/><use xlink:href="#j" transform="matrix(1,0,0,1,883.6666666666667,620.3333333333333) translate(117.40740740740742 61.04166666666666)"/><path d="M1258.67 621.33c0-3.3 2.68-6 6-6h268c3.3 0 6 2.7 6 6v108c0 3.32-2.7 6-6 6h-268c-3.32 0-6-2.68-6-6z" stroke="#333" stroke-width="3" fill="#fff"/><use xlink:href="#a" transform="matrix(1,0,0,1,1263.6666666666667,620.3333333333333) translate(4.629629629629676 61.04166666666666)"/><use xlink:href="#q" transform="matrix(1,0,0,1,1263.6666666666667,620.3333333333333) translate(60.092592592592624 61.04166666666666)"/><use xlink:href="#j" transform="matrix(1,0,0,1,1263.6666666666667,620.3333333333333) translate(117.40740740740742 61.04166666666666)"/><path d="M1638.67 621.33c0-3.3 2.68-6 6-6h268c3.3 0 6 2.7 6 6v108c0 3.32-2.7 6-6 6h-268c-3.32 0-6-2.68-6-6z" stroke="#333" stroke-width="3" fill="#fff"/><use xlink:href="#d" transform="matrix(1,0,0,1,1643.6666666666667,620.3333333333333) translate(5.6018518518519045 61.04166666666666)"/><use xlink:href="#p" transform="matrix(1,0,0,1,1643.6666666666667,620.3333333333333) translate(59.12037037037041 61.04166666666666)"/><use xlink:href="#j" transform="matrix(1,0,0,1,1643.6666666666667,620.3333333333333) translate(116.4351851851852 61.04166666666666)"/><path d="M2018.67 621.33c0-3.3 2.68-6 6-6h268c3.3 0 6 2.7 6 6v108c0 3.32-2.7 6-6 6h-268c-3.32 0-6-2.68-6-6z" stroke="#333" stroke-width="3" fill="#fff"/><use xlink:href="#a" transform="matrix(1,0,0,1,2023.6666666666667,620.3333333333333) translate(4.629629629629676 61.04166666666666)"/><use xlink:href="#r" transform="matrix(1,0,0,1,2023.6666666666667,620.3333333333333) translate(60.092592592592624 61.04166666666666)"/><use xlink:href="#j" transform="matrix(1,0,0,1,2023.6666666666667,620.3333333333333) translate(117.40740740740742 61.04166666666666)"/><path d="M1161.17 675.33h33c3.3 0 6 2.7 6 6v149.6c0 3.32-2.7 6-6 6h-15.5" stroke="#333" stroke-width="2" fill="none"/><path d="M1161.2 676.33h-1.03v-2h1.02z" fill="#333"/><path d="M1163.4 836.94l14.27-4.63v9.28z" stroke="#333" stroke-width="2" fill="#333"/><path d="M1541.17 675.33h33c3.3 0 6 2.7 6 6v151.4c0 3.32-2.7 6-6 6h-15.5" stroke="#333" stroke-width="2" fill="none"/><path d="M1541.2 676.33h-1.03v-2h1.02z" fill="#333"/><path d="M1543.4 838.74l14.27-4.64v9.28z" stroke="#333" stroke-width="2" fill="#333"/><path d="M1921.17 675.33h33c3.3 0 6 2.7 6 6v149.6c0 3.32-2.7 6-6 6h-15.5" stroke="#333" stroke-width="2" fill="none"/><path d="M1921.2 676.33h-1.03v-2h1.02z" fill="#333"/><path d="M1923.4 836.94l14.27-4.63v9.28z" stroke="#333" stroke-width="2" fill="#333"/><path d="M2301.17 675.33h33c3.3 0 6 2.7 6 6V829.9c0 3.32-2.7 6-6 6h-15.5" stroke="#333" stroke-width="2" fill="none"/><path d="M2301.2 676.33h-1.03v-2h1.02z" fill="#333"/><path d="M2303.4 835.9l14.27-4.63v9.27z" stroke="#333" stroke-width="2" fill="#333"/><path d="M378.67 201.33c0-3.3 2.68-6 6-6h228c3.3 0 6 2.7 6 6v148c0 3.32-2.7 6-6 6h-228c-3.32 0-6-2.68-6-6z" stroke="#333" stroke-width="3" fill="#fff"/><g><use xlink:href="#s" transform="matrix(1,0,0,1,383.66666666666674,200.33333333333331) translate(35.555555555555586 40.72916666666666)"/><use xlink:href="#g" transform="matrix(1,0,0,1,383.66666666666674,200.33333333333331) translate(49.305555555555586 80.72916666666664)"/><use xlink:href="#t" transform="matrix(1,0,0,1,383.66666666666674,200.33333333333331) translate(162.1759259259259 80.72916666666664)"/><use xlink:href="#j" transform="matrix(1,0,0,1,383.66666666666674,200.33333333333331) translate(41.01851851851855 120.72916666666663)"/></g><path d="M621.17 275.33h197.5" stroke="#333" stroke-width="2" fill="none"/><path d="M621.2 276.33h-1.03v-2h1.02z" fill="#333"/><path d="M833.93 275.33l-14.27 4.63v-9.27z" stroke="#333" stroke-width="2" fill="#333"/><path d="M378.67 641.33c0-3.3 2.68-6 6-6h228c3.3 0 6 2.7 6 6v148c0 3.32-2.7 6-6 6h-228c-3.32 0-6-2.68-6-6z" stroke="#333" stroke-width="3" fill="#fff"/><g><use xlink:href="#s" transform="matrix(1,0,0,1,383.66666666666674,640.3333333333333) translate(35.555555555555586 40.72916666666666)"/><use xlink:href="#g" transform="matrix(1,0,0,1,383.66666666666674,640.3333333333333) translate(49.305555555555586 80.72916666666664)"/><use xlink:href="#u" transform="matrix(1,0,0,1,383.66666666666674,640.3333333333333) translate(162.1759259259259 80.72916666666664)"/><use xlink:href="#j" transform="matrix(1,0,0,1,383.66666666666674,640.3333333333333) translate(41.01851851851855 120.72916666666663)"/></g><path d="M621.17 715.33h197.5" stroke="#333" stroke-width="2" fill="none"/><path d="M621.2 716.33h-1.03v-2h1.02z" fill="#333"/><path d="M833.93 715.33l-14.27 4.64v-9.27z" stroke="#333" stroke-width="2" fill="#333"/><path d="M-221.33 431.33c0-3.3 2.68-6 6-6h268c3.3 0 6 2.7 6 6v148c0 3.32-2.7 6-6 6h-268c-3.32 0-6-2.68-6-6z" stroke="#333" stroke-width="3" fill="#fff"/><g><use xlink:href="#v" transform="matrix(1,0,0,1,-216.33333333333326,430.3333333333333) translate(0.9259259259259807 82.91666666666666)"/><use xlink:href="#j" transform="matrix(1,0,0,1,-216.33333333333326,430.3333333333333) translate(121.11111111111111 82.91666666666666)"/></g><path d="M61.17 515.33h257.5" stroke="#333" stroke-width="2" fill="none"/><path d="M61.2 516.33h-1.03v-2h1.02z" fill="#333"/><path d="M333.93 515.34l-14.27 4.63v-9.27z" stroke="#333" stroke-width="2" fill="#333"/><path d="M1200 26c0-3.3 2.7-6 6-6h806.67c3.3 0 6 2.7 6 6v988c0 3.3-2.7 6-6 6H1206c-3.3 0-6-2.7-6-6z" stroke="#333" stroke-width="3" fill="#c1e4f7" fill-opacity=".48"/><g><use xlink:href="#w" transform="matrix(1,0,0,1,1205,25) translate(315.8580246913581 499.61805555555554)"/><use xlink:href="#x" transform="matrix(1,0,0,1,1205,25) translate(461.16666666666663 499.61805555555554)"/></g><defs><path fill="#333" d="M205 0l-28-72H64L36 0H1l101-248h38L239 0h-34zm-38-99l-47-123c-12 45-31 82-46 123h93" id="y"/><path fill="#333" d="M233-177c-1 41-23 64-60 70L243 0h-38l-65-103H63V0H30v-248c88 3 205-21 203 71zM63-129c60-2 137 13 137-47 0-61-80-42-137-45v92" id="z"/><g id="a"><use transform="matrix(0.09259259259259256,0,0,0.09259259259259256,0,0)" xlink:href="#y"/><use transform="matrix(0.09259259259259256,0,0,0.09259259259259256,22.222222222222214,0)" xlink:href="#z"/></g><path fill="#333" d="M27 0v-27h64v-190l-56 39v-29l58-41h29v221h61V0H27" id="A"/><path fill="#333" d="M16-82v-28h88v28H16" id="B"/><g id="b"><use transform="matrix(0.09259259259259256,0,0,0.09259259259259256,0,0)" xlink:href="#A"/><use transform="matrix(0.09259259259259256,0,0,0.09259259259259256,18.518518518518512,0)" xlink:href="#B"/><use transform="matrix(0.09259259259259256,0,0,0.09259259259259256,29.537037037037027,0)" xlink:href="#A"/></g><path fill="#333" d="M63-220v92h138v28H63V0H30v-248h175v28H63" id="C"/><path fill="#333" d="M141-36C126-15 110 5 73 4 37 3 15-17 15-53c-1-64 63-63 125-63 3-35-9-54-41-54-24 1-41 7-42 31l-33-3c5-37 33-52 76-52 45 0 72 20 72 64v82c-1 20 7 32 28 27v20c-31 9-61-2-59-35zM48-53c0 20 12 33 32 33 41-3 63-29 60-74-43 2-92-5-92 41" id="D"/><path fill="#333" d="M96-169c-40 0-48 33-48 73s9 75 48 75c24 0 41-14 43-38l32 2c-6 37-31 61-74 61-59 0-76-41-82-99-10-93 101-131 147-64 4 7 5 14 7 22l-32 3c-4-21-16-35-41-35" id="E"/><path fill="#333" d="M59-47c-2 24 18 29 38 22v24C64 9 27 4 27-40v-127H5v-23h24l9-43h21v43h35v23H59v120" id="F"/><path fill="#333" d="M100-194c62-1 85 37 85 99 1 63-27 99-86 99S16-35 15-95c0-66 28-99 85-99zM99-20c44 1 53-31 53-75 0-43-8-75-51-75s-53 32-53 75 10 74 51 75" id="G"/><path fill="#333" d="M114-163C36-179 61-72 57 0H25l-1-190h30c1 12-1 29 2 39 6-27 23-49 58-41v29" id="H"/><path fill="#333" d="M179-190L93 31C79 59 56 82 12 73V49c39 6 53-20 64-50L1-190h34L92-34l54-156h33" id="I"/><g id="c"><use transform="matrix(0.09259259259259256,0,0,0.09259259259259256,0,0)" xlink:href="#C"/><use transform="matrix(0.09259259259259256,0,0,0.09259259259259256,20.27777777777777,0)" xlink:href="#D"/><use transform="matrix(0.09259259259259256,0,0,0.09259259259259256,38.79629629629628,0)" xlink:href="#E"/><use transform="matrix(0.09259259259259256,0,0,0.09259259259259256,55.46296296296294,0)" xlink:href="#F"/><use transform="matrix(0.09259259259259256,0,0,0.09259259259259256,64.7222222222222,0)" xlink:href="#G"/><use transform="matrix(0.09259259259259256,0,0,0.09259259259259256,83.2407407407407,0)" xlink:href="#H"/><use transform="matrix(0.09259259259259256,0,0,0.09259259259259256,94.25925925925922,0)" xlink:href="#I"/></g><path fill="#333" d="M127-220V0H93v-220H8v-28h204v28h-85" id="J"/><g id="d"><use transform="matrix(0.09259259259259256,0,0,0.09259259259259256,0,0)" xlink:href="#J"/><use transform="matrix(0.09259259259259256,0,0,0.09259259259259256,20.27777777777777,0)" xlink:href="#z"/></g><path fill="#333" d="M101-251c82-7 93 87 43 132L82-64C71-53 59-42 53-27h129V0H18c2-99 128-94 128-182 0-28-16-43-45-43s-46 15-49 41l-32-3c6-41 34-60 81-64" id="K"/><g id="e"><use transform="matrix(0.09259259259259256,0,0,0.09259259259259256,0,0)" xlink:href="#A"/><use transform="matrix(0.09259259259259256,0,0,0.09259259259259256,18.518518518518512,0)" xlink:href="#B"/><use transform="matrix(0.09259259259259256,0,0,0.09259259259259256,29.537037037037027,0)" xlink:href="#K"/></g><path fill="#333" d="M185-189c-5-48-123-54-124 2 14 75 158 14 163 119 3 78-121 87-175 55-17-10-28-26-33-46l33-7c5 56 141 63 141-1 0-78-155-14-162-118-5-82 145-84 179-34 5 7 8 16 11 25" id="L"/><path fill="#333" d="M100-194c63 0 86 42 84 106H49c0 40 14 67 53 68 26 1 43-12 49-29l28 8c-11 28-37 45-77 45C44 4 14-33 15-96c1-61 26-98 85-98zm52 81c6-60-76-77-97-28-3 7-6 17-6 28h103" id="M"/><path fill="#333" d="M210-169c-67 3-38 105-44 169h-31v-121c0-29-5-50-35-48C34-165 62-65 56 0H25l-1-190h30c1 10-1 24 2 32 10-44 99-50 107 0 11-21 27-35 58-36 85-2 47 119 55 194h-31v-121c0-29-5-49-35-48" id="N"/><path fill="#333" d="M24 0v-261h32V0H24" id="O"/><path fill="#333" d="M24-231v-30h32v30H24zM24 0v-190h32V0H24" id="P"/><path fill="#333" d="M117-194c89-4 53 116 60 194h-32v-121c0-31-8-49-39-48C34-167 62-67 57 0H25l-1-190h30c1 10-1 24 2 32 11-22 29-35 61-36" id="Q"/><g id="f"><use transform="matrix(0.09259259259259256,0,0,0.09259259259259256,0,0)" xlink:href="#L"/><use transform="matrix(0.09259259259259256,0,0,0.09259259259259256,22.222222222222214,0)" xlink:href="#F"/><use transform="matrix(0.09259259259259256,0,0,0.09259259259259256,31.48148148148147,0)" xlink:href="#H"/><use transform="matrix(0.09259259259259256,0,0,0.09259259259259256,42.499999999999986,0)" xlink:href="#M"/><use transform="matrix(0.09259259259259256,0,0,0.09259259259259256,61.0185185185185,0)" xlink:href="#D"/><use transform="matrix(0.09259259259259256,0,0,0.09259259259259256,79.53703703703701,0)" xlink:href="#N"/><use transform="matrix(0.09259259259259256,0,0,0.09259259259259256,107.22222222222219,0)" xlink:href="#O"/><use transform="matrix(0.09259259259259256,0,0,0.09259259259259256,114.537037037037,0)" xlink:href="#P"/><use transform="matrix(0.09259259259259256,0,0,0.09259259259259256,121.8518518518518,0)" xlink:href="#Q"/><use transform="matrix(0.09259259259259256,0,0,0.09259259259259256,140.37037037037032,0)" xlink:href="#M"/></g><path fill="#333" d="M30 0v-248h187v28H63v79h144v27H63v87h162V0H30" id="R"/><path fill="#333" d="M177-190C167-65 218 103 67 71c-23-6-38-20-44-43l32-5c15 47 100 32 89-28v-30C133-14 115 1 83 1 29 1 15-40 15-95c0-56 16-97 71-98 29-1 48 16 59 35 1-10 0-23 2-32h30zM94-22c36 0 50-32 50-73 0-42-14-75-50-75-39 0-46 34-46 75s6 73 46 73" id="S"/><g id="g"><use transform="matrix(0.09259259259259256,0,0,0.09259259259259256,0,0)" xlink:href="#R"/><use transform="matrix(0.09259259259259256,0,0,0.09259259259259256,22.222222222222214,0)" xlink:href="#Q"/><use transform="matrix(0.09259259259259256,0,0,0.09259259259259256,40.740740740740726,0)" xlink:href="#S"/><use transform="matrix(0.09259259259259256,0,0,0.09259259259259256,59.25925925925924,0)" xlink:href="#P"/><use transform="matrix(0.09259259259259256,0,0,0.09259259259259256,66.57407407407405,0)" xlink:href="#Q"/><use transform="matrix(0.09259259259259256,0,0,0.09259259259259256,85.09259259259255,0)" xlink:href="#M"/></g><use transform="matrix(0.09259259259259256,0,0,0.09259259259259256,0,0)" xlink:href="#A" id="h"/><g id="i"><use transform="matrix(0.09259259259259256,0,0,0.09259259259259256,0,0)" xlink:href="#A"/><use transform="matrix(0.09259259259259256,0,0,0.09259259259259256,18.518518518518512,0)" xlink:href="#B"/><use transform="matrix(0.09259259259259256,0,0,0.09259259259259256,29.537037037037027,0)" xlink:href="#A"/></g><path fill="#333" d="M106-169C34-169 62-67 57 0H25v-261h32l-1 103c12-21 28-36 61-36 89 0 53 116 60 194h-32v-121c2-32-8-49-39-48" id="T"/><path fill="#333" d="M101-234c-31-9-42 10-38 44h38v23H63V0H32v-167H5v-23h27c-7-52 17-82 69-68v24" id="U"/><path fill="#333" d="M84 4C-5 8 30-112 23-190h32v120c0 31 7 50 39 49 72-2 45-101 50-169h31l1 190h-30c-1-10 1-25-2-33-11 22-28 36-60 37" id="V"/><g id="j"><use transform="matrix(0.09259259259259256,0,0,0.09259259259259256,0,0)" xlink:href="#F"/><use transform="matrix(0.09259259259259256,0,0,0.09259259259259256,9.259259259259256,0)" xlink:href="#T"/><use transform="matrix(0.09259259259259256,0,0,0.09259259259259256,27.777777777777768,0)" xlink:href="#P"/><use transform="matrix(0.09259259259259256,0,0,0.09259259259259256,35.09259259259258,0)" xlink:href="#Q"/><use transform="matrix(0.09259259259259256,0,0,0.09259259259259256,53.61111111111109,0)" xlink:href="#S"/><use transform="matrix(0.09259259259259256,0,0,0.09259259259259256,72.1296296296296,0)" xlink:href="#L"/><use transform="matrix(0.09259259259259256,0,0,0.09259259259259256,94.35185185185182,0)" xlink:href="#T"/><use transform="matrix(0.09259259259259256,0,0,0.09259259259259256,112.87037037037032,0)" xlink:href="#P"/><use transform="matrix(0.09259259259259256,0,0,0.09259259259259256,120.18518518518515,0)" xlink:href="#U"/><use transform="matrix(0.09259259259259256,0,0,0.09259259259259256,129.4444444444444,0)" xlink:href="#V"/></g><g id="k"><use transform="matrix(0.09259259259259256,0,0,0.09259259259259256,0,0)" xlink:href="#A"/><use transform="matrix(0.09259259259259256,0,0,0.09259259259259256,18.518518518518512,0)" xlink:href="#B"/><use transform="matrix(0.09259259259259256,0,0,0.09259259259259256,29.537037037037027,0)" xlink:href="#K"/></g><g id="l"><use transform="matrix(0.09259259259259256,0,0,0.09259259259259256,0,0)" xlink:href="#K"/><use transform="matrix(0.09259259259259256,0,0,0.09259259259259256,18.518518518518512,0)" xlink:href="#B"/><use transform="matrix(0.09259259259259256,0,0,0.09259259259259256,29.537037037037027,0)" xlink:href="#A"/></g><g id="m"><use transform="matrix(0.09259259259259256,0,0,0.09259259259259256,0,0)" xlink:href="#K"/><use transform="matrix(0.09259259259259256,0,0,0.09259259259259256,18.518518518518512,0)" xlink:href="#B"/><use transform="matrix(0.09259259259259256,0,0,0.09259259259259256,29.537037037037027,0)" xlink:href="#K"/></g><path fill="#333" d="M126-127c33 6 58 20 58 59 0 88-139 92-164 29-3-8-5-16-6-25l32-3c6 27 21 44 54 44 32 0 52-15 52-46 0-38-36-46-79-43v-28c39 1 72-4 72-42 0-27-17-43-46-43-28 0-47 15-49 41l-32-3c6-42 35-63 81-64 48-1 79 21 79 65 0 36-21 52-52 59" id="W"/><g id="n"><use transform="matrix(0.09259259259259256,0,0,0.09259259259259256,0,0)" xlink:href="#K"/><use transform="matrix(0.09259259259259256,0,0,0.09259259259259256,18.518518518518512,0)" xlink:href="#B"/><use transform="matrix(0.09259259259259256,0,0,0.09259259259259256,29.537037037037027,0)" xlink:href="#W"/></g><use transform="matrix(0.09259259259259256,0,0,0.09259259259259256,0,0)" xlink:href="#K" id="o"/><g id="p"><use transform="matrix(0.09259259259259256,0,0,0.09259259259259256,0,0)" xlink:href="#K"/><use transform="matrix(0.09259259259259256,0,0,0.09259259259259256,18.518518518518512,0)" xlink:href="#B"/><use transform="matrix(0.09259259259259256,0,0,0.09259259259259256,29.537037037037027,0)" xlink:href="#A"/></g><g id="q"><use transform="matrix(0.09259259259259256,0,0,0.09259259259259256,0,0)" xlink:href="#K"/><use transform="matrix(0.09259259259259256,0,0,0.09259259259259256,18.518518518518512,0)" xlink:href="#B"/><use transform="matrix(0.09259259259259256,0,0,0.09259259259259256,29.537037037037027,0)" xlink:href="#K"/></g><g id="r"><use transform="matrix(0.09259259259259256,0,0,0.09259259259259256,0,0)" xlink:href="#K"/><use transform="matrix(0.09259259259259256,0,0,0.09259259259259256,18.518518518518512,0)" xlink:href="#B"/><use transform="matrix(0.09259259259259256,0,0,0.09259259259259256,29.537037037037027,0)" xlink:href="#W"/></g><g id="s"><use transform="matrix(0.09259259259259256,0,0,0.09259259259259256,0,0)" xlink:href="#L"/><use transform="matrix(0.09259259259259256,0,0,0.09259259259259256,22.222222222222214,0)" xlink:href="#F"/><use transform="matrix(0.09259259259259256,0,0,0.09259259259259256,31.48148148148147,0)" xlink:href="#H"/><use transform="matrix(0.09259259259259256,0,0,0.09259259259259256,42.499999999999986,0)" xlink:href="#M"/><use transform="matrix(0.09259259259259256,0,0,0.09259259259259256,61.0185185185185,0)" xlink:href="#D"/><use transform="matrix(0.09259259259259256,0,0,0.09259259259259256,79.53703703703701,0)" xlink:href="#N"/><use transform="matrix(0.09259259259259256,0,0,0.09259259259259256,107.22222222222219,0)" xlink:href="#O"/><use transform="matrix(0.09259259259259256,0,0,0.09259259259259256,114.537037037037,0)" xlink:href="#P"/><use transform="matrix(0.09259259259259256,0,0,0.09259259259259256,121.8518518518518,0)" xlink:href="#Q"/><use transform="matrix(0.09259259259259256,0,0,0.09259259259259256,140.37037037037032,0)" xlink:href="#M"/></g><use transform="matrix(0.09259259259259256,0,0,0.09259259259259256,0,0)" xlink:href="#A" id="t"/><use transform="matrix(0.09259259259259256,0,0,0.09259259259259256,0,0)" xlink:href="#K" id="u"/><g id="v"><use transform="matrix(0.09259259259259256,0,0,0.09259259259259256,0,0)" xlink:href="#C"/><use transform="matrix(0.09259259259259256,0,0,0.09259259259259256,20.27777777777777,0)" xlink:href="#D"/><use transform="matrix(0.09259259259259256,0,0,0.09259259259259256,38.79629629629628,0)" xlink:href="#E"/><use transform="matrix(0.09259259259259256,0,0,0.09259259259259256,55.46296296296294,0)" xlink:href="#F"/><use transform="matrix(0.09259259259259256,0,0,0.09259259259259256,64.7222222222222,0)" xlink:href="#G"/><use transform="matrix(0.09259259259259256,0,0,0.09259259259259256,83.2407407407407,0)" xlink:href="#H"/><use transform="matrix(0.09259259259259256,0,0,0.09259259259259256,94.25925925925922,0)" xlink:href="#I"/></g><path fill="#0c7cba" d="M67-125c0 54 23 88 75 88 28 0 53-7 68-21v-34h-60v-39h108v91C232-14 192 4 140 4 58 4 20-42 15-125 8-236 126-280 215-234c19 10 29 26 37 47l-47 15c-11-23-29-39-63-39-53 1-75 33-75 86" id="X"/><path fill="#0c7cba" d="M135-150c-39-12-60 13-60 57V0H25l-1-190h47c2 13-1 29 3 40 6-28 27-53 61-41v41" id="Y"/><path fill="#0c7cba" d="M110-194c64 0 96 36 96 99 0 64-35 99-97 99-61 0-95-36-95-99 0-62 34-99 96-99zm-1 164c35 0 45-28 45-65 0-40-10-65-43-65-34 0-45 26-45 65 0 36 10 65 43 65" id="Z"/><path fill="#0c7cba" d="M85 4C-2 5 27-109 22-190h50c7 57-23 150 33 157 60-5 35-97 40-157h50l1 190h-47c-2-12 1-28-3-38-12 25-28 42-61 42" id="aa"/><path fill="#0c7cba" d="M135-194c53 0 70 44 70 98 0 56-19 98-73 100-31 1-45-17-59-34 3 33 2 69 2 105H25l-1-265h48c2 10 0 23 3 31 11-24 29-35 60-35zM114-30c33 0 39-31 40-66 0-38-9-64-40-64-56 0-55 130 0 130" id="ab"/><g id="w"><use transform="matrix(0.12345679012345674,0,0,0.12345679012345674,0,0)" xlink:href="#X"/><use transform="matrix(0.12345679012345674,0,0,0.12345679012345674,34.567901234567884,0)" xlink:href="#Y"/><use transform="matrix(0.12345679012345674,0,0,0.12345679012345674,51.851851851851826,0)" xlink:href="#Z"/><use transform="matrix(0.12345679012345674,0,0,0.12345679012345674,78.88888888888886,0)" xlink:href="#aa"/><use transform="matrix(0.12345679012345674,0,0,0.12345679012345674,105.92592592592588,0)" xlink:href="#ab"/></g><path fill="#0c7cba" d="M199 0l-22-63H83L61 0H9l90-248h61L250 0h-51zm-33-102l-36-108c-10 38-24 72-36 108h72" id="ac"/><use transform="matrix(0.12345679012345674,0,0,0.12345679012345674,0,0)" xlink:href="#ac" id="x"/></defs></g></svg>