<svg xmlns="http://www.w3.org/2000/svg" xmlns:xlink="http://www.w3.org/1999/xlink" xmlns:lucid="lucid" width="2696" height="960"><g transform="translate(1696 0)" lucid:page-tab-id="0_0"><path d="M-1120 26c0-3.3 2.7-6 6-6H954c3.3 0 6 2.7 6 6v888c0 3.3-2.7 6-6 6h-2068c-3.3 0-6-2.7-6-6z" stroke="#5e5e5e" stroke-width="3" fill="#fff"/><path d="M-620 66c0-3.3 2.7-6 6-6H914c3.3 0 6 2.7 6 6v388c0 3.3-2.7 6-6 6H-614c-3.3 0-6-2.7-6-6z" stroke="#333" stroke-width="3" fill="#fff"/><path d="M-580 306c0-3.3 2.7-6 6-6h268c3.3 0 6 2.7 6 6v108c0 3.3-2.7 6-6 6h-268c-3.3 0-6-2.7-6-6z" stroke="#333" stroke-width="3" fill="#fff"/><use xlink:href="#a" transform="matrix(1,0,0,1,-575,305) translate(83.24074074074076 61.04166666666666)"/><use xlink:href="#b" transform="matrix(1,0,0,1,-575,305) translate(138.7037037037037 61.04166666666666)"/><path d="M-1160 26c0-3.3 2.7-6 6-6h228c3.3 0 6 2.7 6 6v48c0 3.3-2.7 6-6 6h-228c-3.3 0-6-2.7-6-6z" stroke="#000" stroke-opacity="0" stroke-width="3" fill="#fff" fill-opacity="0"/><use xlink:href="#c" transform="matrix(1,0,0,1,-1155,25) translate(59.53703703703706 32.91666666666666)"/><path d="M-200 306c0-3.3 2.7-6 6-6H74c3.3 0 6 2.7 6 6v108c0 3.3-2.7 6-6 6h-268c-3.3 0-6-2.7-6-6z" stroke="#333" stroke-width="3" fill="#fff"/><use xlink:href="#d" transform="matrix(1,0,0,1,-195,305) translate(84.21296296296298 61.04166666666666)"/><use xlink:href="#b" transform="matrix(1,0,0,1,-195,305) translate(137.73148148148147 61.04166666666666)"/><path d="M180 306c0-3.3 2.7-6 6-6h268c3.3 0 6 2.7 6 6v108c0 3.3-2.7 6-6 6H186c-3.3 0-6-2.7-6-6z" stroke="#333" stroke-width="3" fill="#fff"/><use xlink:href="#d" transform="matrix(1,0,0,1,185,305) translate(84.21296296296298 61.04166666666666)"/><use xlink:href="#e" transform="matrix(1,0,0,1,185,305) translate(137.73148148148147 61.04166666666666)"/><path d="M560 306c0-3.3 2.7-6 6-6h268c3.3 0 6 2.7 6 6v108c0 3.3-2.7 6-6 6H566c-3.3 0-6-2.7-6-6z" stroke="#333" stroke-width="3" fill="#fff"/><use xlink:href="#a" transform="matrix(1,0,0,1,565,305) translate(83.24074074074076 61.04166666666666)"/><use xlink:href="#e" transform="matrix(1,0,0,1,565,305) translate(138.7037037037037 61.04166666666666)"/><path d="M-602.67 71c0-3.3 2.7-6 6-6H-286c3.3 0 6 2.7 6 6v78c0 3.3-2.7 6-6 6h-310.67c-3.3 0-6-2.7-6-6z" stroke="#000" stroke-opacity="0" stroke-width="3" fill="#fff" fill-opacity="0"/><use xlink:href="#f" transform="matrix(1,0,0,1,-597.6666666666665,70.00000000000001) translate(6.731481481481524 46.66666666666666)"/><use xlink:href="#g" transform="matrix(1,0,0,1,-597.6666666666665,70.00000000000001) translate(174.87962962962962 46.66666666666666)"/><use xlink:href="#h" transform="matrix(1,0,0,1,-597.6666666666665,70.00000000000001) translate(287.74999999999994 46.66666666666666)"/><path d="M-580 146c0-3.3 2.7-6 6-6h268c3.3 0 6 2.7 6 6v108c0 3.3-2.7 6-6 6h-268c-3.3 0-6-2.7-6-6z" stroke="#333" stroke-width="3" fill="#fff"/><use xlink:href="#a" transform="matrix(1,0,0,1,-575,145) translate(4.629629629629676 61.04166666666666)"/><use xlink:href="#i" transform="matrix(1,0,0,1,-575,145) translate(60.092592592592624 61.04166666666666)"/><use xlink:href="#j" transform="matrix(1,0,0,1,-575,145) translate(117.40740740740742 61.04166666666666)"/><path d="M-200 146c0-3.3 2.7-6 6-6H74c3.3 0 6 2.7 6 6v108c0 3.3-2.7 6-6 6h-268c-3.3 0-6-2.7-6-6z" stroke="#333" stroke-width="3" fill="#fff"/><use xlink:href="#d" transform="matrix(1,0,0,1,-195,145) translate(5.6018518518519045 61.04166666666666)"/><use xlink:href="#i" transform="matrix(1,0,0,1,-195,145) translate(59.12037037037041 61.04166666666666)"/><use xlink:href="#j" transform="matrix(1,0,0,1,-195,145) translate(116.4351851851852 61.04166666666666)"/><path d="M180 146c0-3.3 2.7-6 6-6h268c3.3 0 6 2.7 6 6v108c0 3.3-2.7 6-6 6H186c-3.3 0-6-2.7-6-6z" stroke="#333" stroke-width="3" fill="#fff"/><use xlink:href="#d" transform="matrix(1,0,0,1,185,145) translate(5.6018518518519045 61.04166666666666)"/><use xlink:href="#k" transform="matrix(1,0,0,1,185,145) translate(59.12037037037041 61.04166666666666)"/><use xlink:href="#j" transform="matrix(1,0,0,1,185,145) translate(116.4351851851852 61.04166666666666)"/><path d="M560 146c0-3.3 2.7-6 6-6h268c3.3 0 6 2.7 6 6v108c0 3.3-2.7 6-6 6H566c-3.3 0-6-2.7-6-6z" stroke="#333" stroke-width="3" fill="#fff"/><use xlink:href="#a" transform="matrix(1,0,0,1,565,145) translate(4.629629629629676 61.04166666666666)"/><use xlink:href="#k" transform="matrix(1,0,0,1,565,145) translate(60.092592592592624 61.04166666666666)"/><use xlink:href="#j" transform="matrix(1,0,0,1,565,145) translate(117.40740740740742 61.04166666666666)"/><path d="M-297.5 200h33c3.3 0 6 2.7 6 6v149.6c0 3.32-2.7 6-6 6H-280" stroke="#5e5e5e" stroke-width="2" fill="none"/><path d="M-297.47 201h-1.03v-2h1.03z" fill="#5e5e5e"/><path d="M-295.26 361.6l14.26-4.63v9.27z" stroke="#5e5e5e" stroke-width="2" fill="#5e5e5e"/><path d="M82.5 200h33c3.3 0 6 2.7 6 6v151.4c0 3.32-2.7 6-6 6H100" stroke="#5e5e5e" stroke-width="2" fill="none"/><path d="M82.53 201H81.5v-2h1.03z" fill="#5e5e5e"/><path d="M84.74 363.4L99 358.78v9.27z" stroke="#5e5e5e" stroke-width="2" fill="#5e5e5e"/><path d="M462.5 200h33c3.3 0 6 2.7 6 6v149.6c0 3.32-2.7 6-6 6H480" stroke="#5e5e5e" stroke-width="2" fill="none"/><path d="M462.53 201h-1.03v-2h1.03z" fill="#5e5e5e"/><path d="M464.74 361.6l14.26-4.63v9.27z" stroke="#5e5e5e" stroke-width="2" fill="#5e5e5e"/><path d="M842.5 200h33c3.3 0 6 2.7 6 6v151.4c0 3.32-2.7 6-6 6H860" stroke="#5e5e5e" stroke-width="2" fill="none"/><path d="M842.53 201h-1.03v-2h1.03z" fill="#5e5e5e"/><path d="M844.74 363.4l14.26-4.63v9.27z" stroke="#5e5e5e" stroke-width="2" fill="#5e5e5e"/><path d="M-620 506c0-3.3 2.7-6 6-6H914c3.3 0 6 2.7 6 6v388c0 3.3-2.7 6-6 6H-614c-3.3 0-6-2.7-6-6z" stroke="#333" stroke-width="3" fill="#fff"/><path d="M-580 746c0-3.3 2.7-6 6-6h268c3.3 0 6 2.7 6 6v108c0 3.3-2.7 6-6 6h-268c-3.3 0-6-2.7-6-6z" stroke="#333" stroke-width="3" fill="#fff"/><use xlink:href="#a" transform="matrix(1,0,0,1,-575,745) translate(83.24074074074076 61.04166666666666)"/><use xlink:href="#l" transform="matrix(1,0,0,1,-575,745) translate(138.7037037037037 61.04166666666666)"/><path d="M-200 746c0-3.3 2.7-6 6-6H74c3.3 0 6 2.7 6 6v108c0 3.3-2.7 6-6 6h-268c-3.3 0-6-2.7-6-6z" stroke="#333" stroke-width="3" fill="#fff"/><use xlink:href="#a" transform="matrix(1,0,0,1,-195,745) translate(83.24074074074076 61.04166666666666)"/><use xlink:href="#m" transform="matrix(1,0,0,1,-195,745) translate(138.7037037037037 61.04166666666666)"/><path d="M180 746c0-3.3 2.7-6 6-6h268c3.3 0 6 2.7 6 6v108c0 3.3-2.7 6-6 6H186c-3.3 0-6-2.7-6-6z" stroke="#333" stroke-width="3" fill="#fff"/><use xlink:href="#d" transform="matrix(1,0,0,1,185,745) translate(84.21296296296298 61.04166666666666)"/><use xlink:href="#l" transform="matrix(1,0,0,1,185,745) translate(137.73148148148147 61.04166666666666)"/><path d="M560 746c0-3.3 2.7-6 6-6h268c3.3 0 6 2.7 6 6v108c0 3.3-2.7 6-6 6H566c-3.3 0-6-2.7-6-6z" stroke="#333" stroke-width="3" fill="#fff"/><use xlink:href="#a" transform="matrix(1,0,0,1,565,745) translate(83.24074074074076 61.04166666666666)"/><use xlink:href="#n" transform="matrix(1,0,0,1,565,745) translate(138.7037037037037 61.04166666666666)"/><path d="M-602.67 511c0-3.3 2.7-6 6-6H-286c3.3 0 6 2.7 6 6v78c0 3.3-2.7 6-6 6h-310.67c-3.3 0-6-2.7-6-6z" stroke="#000" stroke-opacity="0" stroke-width="3" fill="#fff" fill-opacity="0"/><use xlink:href="#f" transform="matrix(1,0,0,1,-597.6666666666665,510) translate(6.731481481481524 46.66666666666666)"/><use xlink:href="#g" transform="matrix(1,0,0,1,-597.6666666666665,510) translate(174.87962962962962 46.66666666666666)"/><use xlink:href="#o" transform="matrix(1,0,0,1,-597.6666666666665,510) translate(287.74999999999994 46.66666666666666)"/><path d="M-580 586c0-3.3 2.7-6 6-6h268c3.3 0 6 2.7 6 6v108c0 3.3-2.7 6-6 6h-268c-3.3 0-6-2.7-6-6z" stroke="#333" stroke-width="3" fill="#fff"/><use xlink:href="#a" transform="matrix(1,0,0,1,-575,585) translate(4.629629629629676 61.04166666666666)"/><use xlink:href="#p" transform="matrix(1,0,0,1,-575,585) translate(60.092592592592624 61.04166666666666)"/><use xlink:href="#j" transform="matrix(1,0,0,1,-575,585) translate(117.40740740740742 61.04166666666666)"/><path d="M-200 586c0-3.3 2.7-6 6-6H74c3.3 0 6 2.7 6 6v108c0 3.3-2.7 6-6 6h-268c-3.3 0-6-2.7-6-6z" stroke="#333" stroke-width="3" fill="#fff"/><use xlink:href="#a" transform="matrix(1,0,0,1,-195,585) translate(4.629629629629676 61.04166666666666)"/><use xlink:href="#q" transform="matrix(1,0,0,1,-195,585) translate(60.092592592592624 61.04166666666666)"/><use xlink:href="#j" transform="matrix(1,0,0,1,-195,585) translate(117.40740740740742 61.04166666666666)"/><path d="M180 586c0-3.3 2.7-6 6-6h268c3.3 0 6 2.7 6 6v108c0 3.3-2.7 6-6 6H186c-3.3 0-6-2.7-6-6z" stroke="#333" stroke-width="3" fill="#fff"/><use xlink:href="#d" transform="matrix(1,0,0,1,185,585) translate(5.6018518518519045 61.04166666666666)"/><use xlink:href="#p" transform="matrix(1,0,0,1,185,585) translate(59.12037037037041 61.04166666666666)"/><use xlink:href="#j" transform="matrix(1,0,0,1,185,585) translate(116.4351851851852 61.04166666666666)"/><path d="M560 586c0-3.3 2.7-6 6-6h268c3.3 0 6 2.7 6 6v108c0 3.3-2.7 6-6 6H566c-3.3 0-6-2.7-6-6z" stroke="#333" stroke-width="3" fill="#fff"/><use xlink:href="#a" transform="matrix(1,0,0,1,565,585) translate(4.629629629629676 61.04166666666666)"/><use xlink:href="#r" transform="matrix(1,0,0,1,565,585) translate(60.092592592592624 61.04166666666666)"/><use xlink:href="#j" transform="matrix(1,0,0,1,565,585) translate(117.40740740740742 61.04166666666666)"/><path d="M-297.5 640h33c3.3 0 6 2.7 6 6v149.6c0 3.32-2.7 6-6 6H-280" stroke="#5e5e5e" stroke-width="2" fill="none"/><path d="M-297.47 641h-1.03v-2h1.03z" fill="#5e5e5e"/><path d="M-295.26 801.6l14.26-4.63v9.27z" stroke="#5e5e5e" stroke-width="2" fill="#5e5e5e"/><path d="M82.5 640h33c3.3 0 6 2.7 6 6v151.4c0 3.32-2.7 6-6 6H100" stroke="#5e5e5e" stroke-width="2" fill="none"/><path d="M82.53 641H81.5v-2h1.03z" fill="#5e5e5e"/><path d="M84.74 803.4L99 798.78v9.27z" stroke="#5e5e5e" stroke-width="2" fill="#5e5e5e"/><path d="M462.5 640h33c3.3 0 6 2.7 6 6v149.6c0 3.32-2.7 6-6 6H480" stroke="#5e5e5e" stroke-width="2" fill="none"/><path d="M462.53 641h-1.03v-2h1.03z" fill="#5e5e5e"/><path d="M464.74 801.6l14.26-4.63v9.27z" stroke="#5e5e5e" stroke-width="2" fill="#5e5e5e"/><path d="M842.5 640h33c3.3 0 6 2.7 6 6v148.57c0 3.32-2.7 6-6 6H860" stroke="#5e5e5e" stroke-width="2" fill="none"/><path d="M842.53 641h-1.03v-2h1.03z" fill="#5e5e5e"/><path d="M844.74 800.57l14.26-4.63v9.27z" stroke="#5e5e5e" stroke-width="2" fill="#5e5e5e"/><path d="M-1080 166c0-3.3 2.7-6 6-6h228c3.3 0 6 2.7 6 6v148c0 3.3-2.7 6-6 6h-228c-3.3 0-6-2.7-6-6z" stroke="#333" stroke-width="3" fill="#fff"/><g><use xlink:href="#s" transform="matrix(1,0,0,1,-1075,165) translate(35.555555555555586 40.72916666666666)"/><use xlink:href="#g" transform="matrix(1,0,0,1,-1075,165) translate(49.305555555555586 80.72916666666664)"/><use xlink:href="#t" transform="matrix(1,0,0,1,-1075,165) translate(162.1759259259259 80.72916666666664)"/><use xlink:href="#j" transform="matrix(1,0,0,1,-1075,165) translate(41.01851851851855 120.72916666666663)"/></g><path d="M-837.5 240H-640" stroke="#5e5e5e" stroke-width="2" fill="none"/><path d="M-837.47 241h-1.03v-2h1.03z" fill="#5e5e5e"/><path d="M-624.74 240l-14.26 4.63v-9.27z" stroke="#5e5e5e" stroke-width="2" fill="#5e5e5e"/><path d="M-1080 606c0-3.3 2.7-6 6-6h228c3.3 0 6 2.7 6 6v148c0 3.3-2.7 6-6 6h-228c-3.3 0-6-2.7-6-6z" stroke="#333" stroke-width="3" fill="#fff"/><g><use xlink:href="#s" transform="matrix(1,0,0,1,-1075,605) translate(35.555555555555586 40.72916666666666)"/><use xlink:href="#g" transform="matrix(1,0,0,1,-1075,605) translate(49.305555555555586 80.72916666666664)"/><use xlink:href="#u" transform="matrix(1,0,0,1,-1075,605) translate(162.1759259259259 80.72916666666664)"/><use xlink:href="#j" transform="matrix(1,0,0,1,-1075,605) translate(41.01851851851855 120.72916666666663)"/></g><path d="M-837.5 680H-640" stroke="#5e5e5e" stroke-width="2" fill="none"/><path d="M-837.47 681h-1.03v-2h1.03z" fill="#5e5e5e"/><path d="M-624.74 680l-14.26 4.64v-9.28z" stroke="#5e5e5e" stroke-width="2" fill="#5e5e5e"/><path d="M-1680 396c0-3.3 2.7-6 6-6h268c3.3 0 6 2.7 6 6v148c0 3.3-2.7 6-6 6h-268c-3.3 0-6-2.7-6-6z" stroke="#333" stroke-width="3" fill="#fff"/><g><use xlink:href="#v" transform="matrix(1,0,0,1,-1675,395) translate(0.9259259259259807 82.91666666666666)"/><use xlink:href="#j" transform="matrix(1,0,0,1,-1675,395) translate(121.11111111111111 82.91666666666666)"/></g><path d="M-1397.5 480h257.5" stroke="#5e5e5e" stroke-width="2" fill="none"/><path d="M-1397.47 481h-1.03v-2h1.03z" fill="#5e5e5e"/><path d="M-1124.74 480l-14.26 4.64v-9.27z" stroke="#5e5e5e" stroke-width="2" fill="#5e5e5e"/><defs><path fill="#333" d="M205 0l-28-72H64L36 0H1l101-248h38L239 0h-34zm-38-99l-47-123c-12 45-31 82-46 123h93" id="w"/><path fill="#333" d="M233-177c-1 41-23 64-60 70L243 0h-38l-65-103H63V0H30v-248c88 3 205-21 203 71zM63-129c60-2 137 13 137-47 0-61-80-42-137-45v92" id="x"/><g id="a"><use transform="matrix(0.09259259259259256,0,0,0.09259259259259256,0,0)" xlink:href="#w"/><use transform="matrix(0.09259259259259256,0,0,0.09259259259259256,22.222222222222214,0)" xlink:href="#x"/></g><path fill="#333" d="M27 0v-27h64v-190l-56 39v-29l58-41h29v221h61V0H27" id="y"/><path fill="#333" d="M16-82v-28h88v28H16" id="z"/><g id="b"><use transform="matrix(0.09259259259259256,0,0,0.09259259259259256,0,0)" xlink:href="#y"/><use transform="matrix(0.09259259259259256,0,0,0.09259259259259256,18.518518518518512,0)" xlink:href="#z"/><use transform="matrix(0.09259259259259256,0,0,0.09259259259259256,29.537037037037027,0)" xlink:href="#y"/></g><path fill="#333" d="M63-220v92h138v28H63V0H30v-248h175v28H63" id="A"/><path fill="#333" d="M141-36C126-15 110 5 73 4 37 3 15-17 15-53c-1-64 63-63 125-63 3-35-9-54-41-54-24 1-41 7-42 31l-33-3c5-37 33-52 76-52 45 0 72 20 72 64v82c-1 20 7 32 28 27v20c-31 9-61-2-59-35zM48-53c0 20 12 33 32 33 41-3 63-29 60-74-43 2-92-5-92 41" id="B"/><path fill="#333" d="M96-169c-40 0-48 33-48 73s9 75 48 75c24 0 41-14 43-38l32 2c-6 37-31 61-74 61-59 0-76-41-82-99-10-93 101-131 147-64 4 7 5 14 7 22l-32 3c-4-21-16-35-41-35" id="C"/><path fill="#333" d="M59-47c-2 24 18 29 38 22v24C64 9 27 4 27-40v-127H5v-23h24l9-43h21v43h35v23H59v120" id="D"/><path fill="#333" d="M100-194c62-1 85 37 85 99 1 63-27 99-86 99S16-35 15-95c0-66 28-99 85-99zM99-20c44 1 53-31 53-75 0-43-8-75-51-75s-53 32-53 75 10 74 51 75" id="E"/><path fill="#333" d="M114-163C36-179 61-72 57 0H25l-1-190h30c1 12-1 29 2 39 6-27 23-49 58-41v29" id="F"/><path fill="#333" d="M179-190L93 31C79 59 56 82 12 73V49c39 6 53-20 64-50L1-190h34L92-34l54-156h33" id="G"/><g id="c"><use transform="matrix(0.09259259259259256,0,0,0.09259259259259256,0,0)" xlink:href="#A"/><use transform="matrix(0.09259259259259256,0,0,0.09259259259259256,20.27777777777777,0)" xlink:href="#B"/><use transform="matrix(0.09259259259259256,0,0,0.09259259259259256,38.79629629629628,0)" xlink:href="#C"/><use transform="matrix(0.09259259259259256,0,0,0.09259259259259256,55.46296296296294,0)" xlink:href="#D"/><use transform="matrix(0.09259259259259256,0,0,0.09259259259259256,64.7222222222222,0)" xlink:href="#E"/><use transform="matrix(0.09259259259259256,0,0,0.09259259259259256,83.2407407407407,0)" xlink:href="#F"/><use transform="matrix(0.09259259259259256,0,0,0.09259259259259256,94.25925925925922,0)" xlink:href="#G"/></g><path fill="#333" d="M127-220V0H93v-220H8v-28h204v28h-85" id="H"/><g id="d"><use transform="matrix(0.09259259259259256,0,0,0.09259259259259256,0,0)" xlink:href="#H"/><use transform="matrix(0.09259259259259256,0,0,0.09259259259259256,20.27777777777777,0)" xlink:href="#x"/></g><path fill="#333" d="M101-251c82-7 93 87 43 132L82-64C71-53 59-42 53-27h129V0H18c2-99 128-94 128-182 0-28-16-43-45-43s-46 15-49 41l-32-3c6-41 34-60 81-64" id="I"/><g id="e"><use transform="matrix(0.09259259259259256,0,0,0.09259259259259256,0,0)" xlink:href="#y"/><use transform="matrix(0.09259259259259256,0,0,0.09259259259259256,18.518518518518512,0)" xlink:href="#z"/><use transform="matrix(0.09259259259259256,0,0,0.09259259259259256,29.537037037037027,0)" xlink:href="#I"/></g><path fill="#333" d="M185-189c-5-48-123-54-124 2 14 75 158 14 163 119 3 78-121 87-175 55-17-10-28-26-33-46l33-7c5 56 141 63 141-1 0-78-155-14-162-118-5-82 145-84 179-34 5 7 8 16 11 25" id="J"/><path fill="#333" d="M100-194c63 0 86 42 84 106H49c0 40 14 67 53 68 26 1 43-12 49-29l28 8c-11 28-37 45-77 45C44 4 14-33 15-96c1-61 26-98 85-98zm52 81c6-60-76-77-97-28-3 7-6 17-6 28h103" id="K"/><path fill="#333" d="M210-169c-67 3-38 105-44 169h-31v-121c0-29-5-50-35-48C34-165 62-65 56 0H25l-1-190h30c1 10-1 24 2 32 10-44 99-50 107 0 11-21 27-35 58-36 85-2 47 119 55 194h-31v-121c0-29-5-49-35-48" id="L"/><path fill="#333" d="M24 0v-261h32V0H24" id="M"/><path fill="#333" d="M24-231v-30h32v30H24zM24 0v-190h32V0H24" id="N"/><path fill="#333" d="M117-194c89-4 53 116 60 194h-32v-121c0-31-8-49-39-48C34-167 62-67 57 0H25l-1-190h30c1 10-1 24 2 32 11-22 29-35 61-36" id="O"/><g id="f"><use transform="matrix(0.09259259259259256,0,0,0.09259259259259256,0,0)" xlink:href="#J"/><use transform="matrix(0.09259259259259256,0,0,0.09259259259259256,22.222222222222214,0)" xlink:href="#D"/><use transform="matrix(0.09259259259259256,0,0,0.09259259259259256,31.48148148148147,0)" xlink:href="#F"/><use transform="matrix(0.09259259259259256,0,0,0.09259259259259256,42.499999999999986,0)" xlink:href="#K"/><use transform="matrix(0.09259259259259256,0,0,0.09259259259259256,61.0185185185185,0)" xlink:href="#B"/><use transform="matrix(0.09259259259259256,0,0,0.09259259259259256,79.53703703703701,0)" xlink:href="#L"/><use transform="matrix(0.09259259259259256,0,0,0.09259259259259256,107.22222222222219,0)" xlink:href="#M"/><use transform="matrix(0.09259259259259256,0,0,0.09259259259259256,114.537037037037,0)" xlink:href="#N"/><use transform="matrix(0.09259259259259256,0,0,0.09259259259259256,121.8518518518518,0)" xlink:href="#O"/><use transform="matrix(0.09259259259259256,0,0,0.09259259259259256,140.37037037037032,0)" xlink:href="#K"/></g><path fill="#333" d="M30 0v-248h187v28H63v79h144v27H63v87h162V0H30" id="P"/><path fill="#333" d="M177-190C167-65 218 103 67 71c-23-6-38-20-44-43l32-5c15 47 100 32 89-28v-30C133-14 115 1 83 1 29 1 15-40 15-95c0-56 16-97 71-98 29-1 48 16 59 35 1-10 0-23 2-32h30zM94-22c36 0 50-32 50-73 0-42-14-75-50-75-39 0-46 34-46 75s6 73 46 73" id="Q"/><g id="g"><use transform="matrix(0.09259259259259256,0,0,0.09259259259259256,0,0)" xlink:href="#P"/><use transform="matrix(0.09259259259259256,0,0,0.09259259259259256,22.222222222222214,0)" xlink:href="#O"/><use transform="matrix(0.09259259259259256,0,0,0.09259259259259256,40.740740740740726,0)" xlink:href="#Q"/><use transform="matrix(0.09259259259259256,0,0,0.09259259259259256,59.25925925925924,0)" xlink:href="#N"/><use transform="matrix(0.09259259259259256,0,0,0.09259259259259256,66.57407407407405,0)" xlink:href="#O"/><use transform="matrix(0.09259259259259256,0,0,0.09259259259259256,85.09259259259255,0)" xlink:href="#K"/></g><use transform="matrix(0.09259259259259256,0,0,0.09259259259259256,0,0)" xlink:href="#y" id="h"/><g id="i"><use transform="matrix(0.09259259259259256,0,0,0.09259259259259256,0,0)" xlink:href="#y"/><use transform="matrix(0.09259259259259256,0,0,0.09259259259259256,18.518518518518512,0)" xlink:href="#z"/><use transform="matrix(0.09259259259259256,0,0,0.09259259259259256,29.537037037037027,0)" xlink:href="#y"/></g><path fill="#333" d="M106-169C34-169 62-67 57 0H25v-261h32l-1 103c12-21 28-36 61-36 89 0 53 116 60 194h-32v-121c2-32-8-49-39-48" id="R"/><path fill="#333" d="M101-234c-31-9-42 10-38 44h38v23H63V0H32v-167H5v-23h27c-7-52 17-82 69-68v24" id="S"/><path fill="#333" d="M84 4C-5 8 30-112 23-190h32v120c0 31 7 50 39 49 72-2 45-101 50-169h31l1 190h-30c-1-10 1-25-2-33-11 22-28 36-60 37" id="T"/><g id="j"><use transform="matrix(0.09259259259259256,0,0,0.09259259259259256,0,0)" xlink:href="#D"/><use transform="matrix(0.09259259259259256,0,0,0.09259259259259256,9.259259259259256,0)" xlink:href="#R"/><use transform="matrix(0.09259259259259256,0,0,0.09259259259259256,27.777777777777768,0)" xlink:href="#N"/><use transform="matrix(0.09259259259259256,0,0,0.09259259259259256,35.09259259259258,0)" xlink:href="#O"/><use transform="matrix(0.09259259259259256,0,0,0.09259259259259256,53.61111111111109,0)" xlink:href="#Q"/><use transform="matrix(0.09259259259259256,0,0,0.09259259259259256,72.1296296296296,0)" xlink:href="#J"/><use transform="matrix(0.09259259259259256,0,0,0.09259259259259256,94.35185185185182,0)" xlink:href="#R"/><use transform="matrix(0.09259259259259256,0,0,0.09259259259259256,112.87037037037032,0)" xlink:href="#N"/><use transform="matrix(0.09259259259259256,0,0,0.09259259259259256,120.18518518518515,0)" xlink:href="#S"/><use transform="matrix(0.09259259259259256,0,0,0.09259259259259256,129.4444444444444,0)" xlink:href="#T"/></g><g id="k"><use transform="matrix(0.09259259259259256,0,0,0.09259259259259256,0,0)" xlink:href="#y"/><use transform="matrix(0.09259259259259256,0,0,0.09259259259259256,18.518518518518512,0)" xlink:href="#z"/><use transform="matrix(0.09259259259259256,0,0,0.09259259259259256,29.537037037037027,0)" xlink:href="#I"/></g><g id="l"><use transform="matrix(0.09259259259259256,0,0,0.09259259259259256,0,0)" xlink:href="#I"/><use transform="matrix(0.09259259259259256,0,0,0.09259259259259256,18.518518518518512,0)" xlink:href="#z"/><use transform="matrix(0.09259259259259256,0,0,0.09259259259259256,29.537037037037027,0)" xlink:href="#y"/></g><g id="m"><use transform="matrix(0.09259259259259256,0,0,0.09259259259259256,0,0)" xlink:href="#I"/><use transform="matrix(0.09259259259259256,0,0,0.09259259259259256,18.518518518518512,0)" xlink:href="#z"/><use transform="matrix(0.09259259259259256,0,0,0.09259259259259256,29.537037037037027,0)" xlink:href="#I"/></g><path fill="#333" d="M126-127c33 6 58 20 58 59 0 88-139 92-164 29-3-8-5-16-6-25l32-3c6 27 21 44 54 44 32 0 52-15 52-46 0-38-36-46-79-43v-28c39 1 72-4 72-42 0-27-17-43-46-43-28 0-47 15-49 41l-32-3c6-42 35-63 81-64 48-1 79 21 79 65 0 36-21 52-52 59" id="U"/><g id="n"><use transform="matrix(0.09259259259259256,0,0,0.09259259259259256,0,0)" xlink:href="#I"/><use transform="matrix(0.09259259259259256,0,0,0.09259259259259256,18.518518518518512,0)" xlink:href="#z"/><use transform="matrix(0.09259259259259256,0,0,0.09259259259259256,29.537037037037027,0)" xlink:href="#U"/></g><use transform="matrix(0.09259259259259256,0,0,0.09259259259259256,0,0)" xlink:href="#I" id="o"/><g id="p"><use transform="matrix(0.09259259259259256,0,0,0.09259259259259256,0,0)" xlink:href="#I"/><use transform="matrix(0.09259259259259256,0,0,0.09259259259259256,18.518518518518512,0)" xlink:href="#z"/><use transform="matrix(0.09259259259259256,0,0,0.09259259259259256,29.537037037037027,0)" xlink:href="#y"/></g><g id="q"><use transform="matrix(0.09259259259259256,0,0,0.09259259259259256,0,0)" xlink:href="#I"/><use transform="matrix(0.09259259259259256,0,0,0.09259259259259256,18.518518518518512,0)" xlink:href="#z"/><use transform="matrix(0.09259259259259256,0,0,0.09259259259259256,29.537037037037027,0)" xlink:href="#I"/></g><g id="r"><use transform="matrix(0.09259259259259256,0,0,0.09259259259259256,0,0)" xlink:href="#I"/><use transform="matrix(0.09259259259259256,0,0,0.09259259259259256,18.518518518518512,0)" xlink:href="#z"/><use transform="matrix(0.09259259259259256,0,0,0.09259259259259256,29.537037037037027,0)" xlink:href="#U"/></g><g id="s"><use transform="matrix(0.09259259259259256,0,0,0.09259259259259256,0,0)" xlink:href="#J"/><use transform="matrix(0.09259259259259256,0,0,0.09259259259259256,22.222222222222214,0)" xlink:href="#D"/><use transform="matrix(0.09259259259259256,0,0,0.09259259259259256,31.48148148148147,0)" xlink:href="#F"/><use transform="matrix(0.09259259259259256,0,0,0.09259259259259256,42.499999999999986,0)" xlink:href="#K"/><use transform="matrix(0.09259259259259256,0,0,0.09259259259259256,61.0185185185185,0)" xlink:href="#B"/><use transform="matrix(0.09259259259259256,0,0,0.09259259259259256,79.53703703703701,0)" xlink:href="#L"/><use transform="matrix(0.09259259259259256,0,0,0.09259259259259256,107.22222222222219,0)" xlink:href="#M"/><use transform="matrix(0.09259259259259256,0,0,0.09259259259259256,114.537037037037,0)" xlink:href="#N"/><use transform="matrix(0.09259259259259256,0,0,0.09259259259259256,121.8518518518518,0)" xlink:href="#O"/><use transform="matrix(0.09259259259259256,0,0,0.09259259259259256,140.37037037037032,0)" xlink:href="#K"/></g><use transform="matrix(0.09259259259259256,0,0,0.09259259259259256,0,0)" xlink:href="#y" id="t"/><use transform="matrix(0.09259259259259256,0,0,0.09259259259259256,0,0)" xlink:href="#I" id="u"/><g id="v"><use transform="matrix(0.09259259259259256,0,0,0.09259259259259256,0,0)" xlink:href="#A"/><use transform="matrix(0.09259259259259256,0,0,0.09259259259259256,20.27777777777777,0)" xlink:href="#B"/><use transform="matrix(0.09259259259259256,0,0,0.09259259259259256,38.79629629629628,0)" xlink:href="#C"/><use transform="matrix(0.09259259259259256,0,0,0.09259259259259256,55.46296296296294,0)" xlink:href="#D"/><use transform="matrix(0.09259259259259256,0,0,0.09259259259259256,64.7222222222222,0)" xlink:href="#E"/><use transform="matrix(0.09259259259259256,0,0,0.09259259259259256,83.2407407407407,0)" xlink:href="#F"/><use transform="matrix(0.09259259259259256,0,0,0.09259259259259256,94.25925925925922,0)" xlink:href="#G"/></g></defs></g></svg>