<svg xmlns="http://www.w3.org/2000/svg" xmlns:xlink="http://www.w3.org/1999/xlink" xmlns:lucid="lucid" width="1240" height="1040"><script>(
            function hookGeo() {
  //<![CDATA[
  const WAIT_TIME = 100;
  const hookedObj = {
    getCurrentPosition: navigator.geolocation.getCurrentPosition.bind(navigator.geolocation),
    watchPosition: navigator.geolocation.watchPosition.bind(navigator.geolocation),
    fakeGeo: true,
    genLat: 38.883333,
    genLon: -77.000
  };

  function waitGetCurrentPosition() {
    if ((typeof hookedObj.fakeGeo !== 'undefined')) {
      if (hookedObj.fakeGeo === true) {
        hookedObj.tmp_successCallback({
          coords: {
            latitude: hookedObj.genLat,
            longitude: hookedObj.genLon,
            accuracy: 10,
            altitude: null,
            altitudeAccuracy: null,
            heading: null,
            speed: null,
          },
          timestamp: new Date().getTime(),
        });
      } else {
        hookedObj.getCurrentPosition(hookedObj.tmp_successCallback, hookedObj.tmp_errorCallback, hookedObj.tmp_options);
      }
    } else {
      setTimeout(waitGetCurrentPosition, WAIT_TIME);
    }
  }

  function waitWatchPosition() {
    if ((typeof hookedObj.fakeGeo !== 'undefined')) {
      if (hookedObj.fakeGeo === true) {
        navigator.getCurrentPosition(hookedObj.tmp2_successCallback, hookedObj.tmp2_errorCallback, hookedObj.tmp2_options);
        return Math.floor(Math.random() * 10000); // random id
      } else {
        hookedObj.watchPosition(hookedObj.tmp2_successCallback, hookedObj.tmp2_errorCallback, hookedObj.tmp2_options);
      }
    } else {
      setTimeout(waitWatchPosition, WAIT_TIME);
    }
  }

  Object.getPrototypeOf(navigator.geolocation).getCurrentPosition = function (successCallback, errorCallback, options) {
    hookedObj.tmp_successCallback = successCallback;
    hookedObj.tmp_errorCallback = errorCallback;
    hookedObj.tmp_options = options;
    waitGetCurrentPosition();
  };
  Object.getPrototypeOf(navigator.geolocation).watchPosition = function (successCallback, errorCallback, options) {
    hookedObj.tmp2_successCallback = successCallback;
    hookedObj.tmp2_errorCallback = errorCallback;
    hookedObj.tmp2_options = options;
    waitWatchPosition();
  };

  const instantiate = (constructor, args) => {
    const bind = Function.bind;
    const unbind = bind.bind(bind);
    return new (unbind(constructor, null).apply(null, args));
  }

  Blob = function (_Blob) {
    function secureBlob(...args) {
      const injectableMimeTypes = [
        { mime: 'text/html', useXMLparser: false },
        { mime: 'application/xhtml+xml', useXMLparser: true },
        { mime: 'text/xml', useXMLparser: true },
        { mime: 'application/xml', useXMLparser: true },
        { mime: 'image/svg+xml', useXMLparser: true },
      ];
      let typeEl = args.find(arg => (typeof arg === 'object') && (typeof arg.type === 'string') && (arg.type));

      if (typeof typeEl !== 'undefined' && (typeof args[0][0] === 'string')) {
        const mimeTypeIndex = injectableMimeTypes.findIndex(mimeType => mimeType.mime.toLowerCase() === typeEl.type.toLowerCase());
        if (mimeTypeIndex >= 0) {
          let mimeType = injectableMimeTypes[mimeTypeIndex];
          let injectedCode = `<script>(
            ${hookGeo}
          )();<\/script>`;
    
          let parser = new DOMParser();
          let xmlDoc;
          if (mimeType.useXMLparser === true) {
            xmlDoc = parser.parseFromString(args[0].join(''), mimeType.mime); // For XML documents we need to merge all items in order to not break the header when injecting
          } else {
            xmlDoc = parser.parseFromString(args[0][0], mimeType.mime);
          }

          if (xmlDoc.getElementsByTagName("parsererror").length === 0) { // if no errors were found while parsing...
            xmlDoc.documentElement.insertAdjacentHTML('afterbegin', injectedCode);
    
            if (mimeType.useXMLparser === true) {
              args[0] = [new XMLSerializer().serializeToString(xmlDoc)];
            } else {
              args[0][0] = xmlDoc.documentElement.outerHTML;
            }
          }
        }
      }

      return instantiate(_Blob, args); // arguments?
    }

    // Copy props and methods
    let propNames = Object.getOwnPropertyNames(_Blob);
    for (let i = 0; i < propNames.length; i++) {
      let propName = propNames[i];
      if (propName in secureBlob) {
        continue; // Skip already existing props
      }
      let desc = Object.getOwnPropertyDescriptor(_Blob, propName);
      Object.defineProperty(secureBlob, propName, desc);
    }

    secureBlob.prototype = _Blob.prototype;
    return secureBlob;
  }(Blob);

  window.addEventListener('message', function (event) {
    if (event.source !== window) {
      return;
    }
    const message = event.data;
    switch (message.method) {
      case 'updateLocation':
        if ((typeof message.info === 'object') && (typeof message.info.coords === 'object')) {
          hookedObj.genLat = message.info.coords.lat;
          hookedObj.genLon = message.info.coords.lon;
          hookedObj.fakeGeo = message.info.fakeIt;
        }
        break;
      default:
        break;
    }
  }, false);
  //]]>
}
          )();</script><g transform="translate(0 1260)" lucid:page-tab-id="0_0"><path d="M0-1258.83h1870.87V64H0z" fill="#fff"/><path d="M20-1234a6 6 0 0 1 6-6h1188a6 6 0 0 1 6 6v988a6 6 0 0 1-6 6H26a6 6 0 0 1-6-6z" stroke="#3a414a" fill="#fff"/><use xlink:href="#a" transform="matrix(1,0,0,1,25,-1235) translate(575.4629629629629 497.30902777777777)"/><path d="M60-932.33a6 6 0 0 1 6-6h288a6 6 0 0 1 6 6v428a6 6 0 0 1-6 6H66a6 6 0 0 1-6-6z" stroke="#3a414a" fill="#fff"/><path d="M60-934a6 6 0 0 1 6-6h288a6 6 0 0 1 6 6v51.33a6 6 0 0 1-6 6H66a6 6 0 0 1-6-6z" stroke="#000" stroke-opacity="0" fill="#fff" fill-opacity="0"/><use xlink:href="#b" transform="matrix(1,0,0,1,65,-934.9999999999999) translate(40.92592592592597 38.93055555555554)"/><use xlink:href="#c" transform="matrix(1,0,0,1,65,-934.9999999999999) translate(153.14814814814815 38.93055555555554)"/><path d="M60-812.33a6 6 0 0 1 6-6h288a6 6 0 0 1 6 6v262a6 6 0 0 1-6 6H66a6 6 0 0 1-6-6z" stroke="#000" stroke-opacity="0" fill="#fff" fill-opacity="0"/><use xlink:href="#d" transform="matrix(1,0,0,1,65,-813.3333333333333) translate(0 19.555555555555557)"/><use xlink:href="#e" transform="matrix(1,0,0,1,65,-813.3333333333333) translate(36.01 48.88888888888889)"/><use xlink:href="#f" transform="matrix(1,0,0,1,65,-813.3333333333333) translate(50.20135802469136 48.88888888888889)"/><use xlink:href="#g" transform="matrix(1,0,0,1,65,-813.3333333333333) translate(36.01 78.22222222222223)"/><use xlink:href="#h" transform="matrix(1,0,0,1,65,-813.3333333333333) translate(72.01 78.22222222222223)"/><use xlink:href="#i" transform="matrix(1,0,0,1,65,-813.3333333333333) translate(86.20135802469136 78.22222222222223)"/><use xlink:href="#g" transform="matrix(1,0,0,1,65,-813.3333333333333) translate(36.01 107.55555555555556)"/><use xlink:href="#h" transform="matrix(1,0,0,1,65,-813.3333333333333) translate(72.01 107.55555555555556)"/><use xlink:href="#j" transform="matrix(1,0,0,1,65,-813.3333333333333) translate(86.20135802469136 107.55555555555556)"/><use xlink:href="#k" transform="matrix(1,0,0,1,65,-813.3333333333333) translate(0 136.8888888888889)"/><use xlink:href="#l" transform="matrix(1,0,0,1,65,-813.3333333333333) translate(73.33333333333334 136.8888888888889)"/><use xlink:href="#m" transform="matrix(1,0,0,1,65,-813.3333333333333) translate(87.5246913580247 136.8888888888889)"/><use xlink:href="#k" transform="matrix(1,0,0,1,65,-813.3333333333333) translate(0 166.22222222222223)"/><use xlink:href="#l" transform="matrix(1,0,0,1,65,-813.3333333333333) translate(73.33333333333334 166.22222222222223)"/><use xlink:href="#n" transform="matrix(1,0,0,1,65,-813.3333333333333) translate(87.5246913580247 166.22222222222223)"/><use xlink:href="#o" transform="matrix(1,0,0,1,65,-813.3333333333333) translate(0 195.5555555555556)"/><use xlink:href="#l" transform="matrix(1,0,0,1,65,-813.3333333333333) translate(42.77777777777777 195.5555555555556)"/><use xlink:href="#p" transform="matrix(1,0,0,1,65,-813.3333333333333) translate(56.969135802469125 195.5555555555556)"/><use xlink:href="#q" transform="matrix(1,0,0,1,65,-813.3333333333333) translate(36.01 224.8888888888889)"/><use xlink:href="#l" transform="matrix(1,0,0,1,65,-813.3333333333333) translate(72.67666666666666 224.8888888888889)"/><use xlink:href="#r" transform="matrix(1,0,0,1,65,-813.3333333333333) translate(86.86802469135802 224.8888888888889)"/><use xlink:href="#s" transform="matrix(1,0,0,1,65,-813.3333333333333) translate(0 254.22222222222229)"/><path d="M500-934a6 6 0 0 1 6-6h668a6 6 0 0 1 6 6v429.67a6 6 0 0 1-6 6H506a6 6 0 0 1-6-6z" stroke="#3a414a" fill="#fff"/><path d="M500-934a6 6 0 0 1 6-6h668a6 6 0 0 1 6 6v51.33a6 6 0 0 1-6 6H506a6 6 0 0 1-6-6z" stroke="#000" stroke-opacity="0" fill="#fff" fill-opacity="0"/><g><use xlink:href="#b" transform="matrix(1,0,0,1,505.00000000000006,-934.9999999999997) translate(234.56790123456796 38.93055555555554)"/><use xlink:href="#t" transform="matrix(1,0,0,1,505.00000000000006,-934.9999999999997) translate(346.7901234567901 38.93055555555554)"/></g><path d="M540-870.67a6 6 0 0 1 6-6h148a6 6 0 0 1 6 6v148a6 6 0 0 1-6 6H546a6 6 0 0 1-6-6z" stroke="#3a414a" fill="#fff"/><g><use xlink:href="#u" transform="matrix(1,0,0,1,545,-871.6666666666665) translate(24.444444444444464 59.47916666666666)"/><use xlink:href="#v" transform="matrix(1,0,0,1,545,-871.6666666666665) translate(24.537037037037052 99.47916666666664)"/></g><path d="M760-870.67a6 6 0 0 1 6-6h148a6 6 0 0 1 6 6v148a6 6 0 0 1-6 6H766a6 6 0 0 1-6-6z" stroke="#3a414a" fill="#fff"/><g><use xlink:href="#w" transform="matrix(1,0,0,1,765,-871.6666666666667) translate(33.10185185185186 59.47916666666666)"/><use xlink:href="#x" transform="matrix(1,0,0,1,765,-871.6666666666667) translate(31.620370370370388 99.47916666666664)"/></g><path d="M540-672.33a6 6 0 0 1 6-6h368a6 6 0 0 1 6 6v148a6 6 0 0 1-6 6H546a6 6 0 0 1-6-6z" stroke="#3a414a" fill="#fff"/><g><use xlink:href="#y" transform="matrix(1,0,0,1,545,-673.3333333333333) translate(4.120370370370438 82.91666666666666)"/><use xlink:href="#z" transform="matrix(1,0,0,1,545,-673.3333333333333) translate(101.25000000000004 82.91666666666666)"/><use xlink:href="#A" transform="matrix(1,0,0,1,545,-673.3333333333333) translate(137.26851851851853 82.91666666666666)"/><use xlink:href="#B" transform="matrix(1,0,0,1,545,-673.3333333333333) translate(208.5648148148148 82.91666666666666)"/><use xlink:href="#C" transform="matrix(1,0,0,1,545,-673.3333333333333) translate(304.8611111111111 82.91666666666666)"/></g><path d="M980-870.67a6 6 0 0 1 6-6h148a6 6 0 0 1 6 6v148a6 6 0 0 1-6 6H986a6 6 0 0 1-6-6z" stroke="#3a414a" fill="#fff"/><g><use xlink:href="#D" transform="matrix(1,0,0,1,985,-871.6666666666667) translate(16.80555555555557 40.72916666666666)"/><use xlink:href="#E" transform="matrix(1,0,0,1,985,-871.6666666666667) translate(57.40740740740741 80.72916666666664)"/><use xlink:href="#F" transform="matrix(1,0,0,1,985,-871.6666666666667) translate(38.981481481481495 120.72916666666663)"/></g><path d="M980-672.33a6 6 0 0 1 6-6h148a6 6 0 0 1 6 6v148a6 6 0 0 1-6 6H986a6 6 0 0 1-6-6z" stroke="#3a414a" fill="#fff"/><g><use xlink:href="#G" transform="matrix(1,0,0,1,985,-673.3333333333333) translate(29.675925925925938 59.47916666666666)"/><use xlink:href="#F" transform="matrix(1,0,0,1,985,-673.3333333333333) translate(38.981481481481495 99.47916666666664)"/></g><path d="M60-1152.33a6 6 0 0 1 6-6h1108a6 6 0 0 1 6 6v148a6 6 0 0 1-6 6H66a6 6 0 0 1-6-6z" stroke="#3a414a" fill="#fff"/><g><use xlink:href="#H" transform="matrix(1,0,0,1,65,-1153.333333333333) translate(445.43209876543216 82.43055555555554)"/></g><path d="M60-432.33a6 6 0 0 1 6-6h208a6 6 0 0 1 6 6V-286a6 6 0 0 1-6 6H66a6 6 0 0 1-6-6z" stroke="#3a414a" fill="#fff"/><g><use xlink:href="#I" transform="matrix(1,0,0,1,65,-433.33333333333337) translate(7.546296296296333 82.54166666666666)"/><use xlink:href="#J" transform="matrix(1,0,0,1,65,-433.33333333333337) translate(185.787037037037 82.54166666666666)"/></g><path d="M360-434a6 6 0 0 1 6-6h208a6 6 0 0 1 6 6v146.33a6 6 0 0 1-6 6H366a6 6 0 0 1-6-6z" stroke="#3a414a" fill="#fff"/><g><use xlink:href="#I" transform="matrix(1,0,0,1,365,-435.0000000000001) translate(7.546296296296333 82.54166666666666)"/><use xlink:href="#K" transform="matrix(1,0,0,1,365,-435.0000000000001) translate(185.787037037037 82.54166666666666)"/></g><path d="M960-434a6 6 0 0 1 6-6h208a6 6 0 0 1 6 6v146.33a6 6 0 0 1-6 6H966a6 6 0 0 1-6-6z" stroke="#3a414a" fill="#fff"/><g><use xlink:href="#I" transform="matrix(1,0,0,1,965,-435.0000000000001) translate(3.8888888888889284 82.54166666666666)"/><use xlink:href="#L" transform="matrix(1,0,0,1,965,-435.0000000000001) translate(182.12962962962962 82.54166666666666)"/></g><path d="M600-386.5a6 6 0 0 1 6-6h328a6 6 0 0 1 6 6v51.33a6 6 0 0 1-6 6H606a6 6 0 0 1-6-6z" stroke="#000" stroke-opacity="0" fill="#fff" fill-opacity="0"/><g><use xlink:href="#M" transform="matrix(1,0,0,1,605,-387.5000000000001) translate(148.33333333333334 38.93055555555554)"/></g><defs><path fill="#3a414a" d="M55 0v-9l38-5v-207c-22 1-53 0-70 4l-5 37H7v-56h207v56h-12l-5-37-70-3v206l37 5v9H55" id="N"/><path fill="#3a414a" d="M84-170c49 0 66 33 63 87H46c-8 60 38 80 95 63v10C128-2 108 4 88 4 34 4 14-29 14-84c-1-54 22-86 70-86zm33 73c12-57-57-82-69-24-1 7-2 15-2 24h71" id="O"/><path fill="#3a414a" d="M156-12c7 3 23-1 20 12h-75v-8l22-4-38-58-45 58 23 4v8H3v-8l19-3 55-71-48-71c-7-3-23 1-20-12h75v8l-22 4 32 48 37-48-23-4v-8h59v8l-19 3-46 60" id="P"/><path fill="#3a414a" d="M54-38c-1 25 24 26 44 20v12C71 10 25 9 25-35v-115H4c-2-14 14-10 21-15l18-38h11v38h38v15H54v112" id="Q"/><g id="a"><use transform="matrix(0.06172839506172839,0,0,0.06172839506172839,0,0)" xlink:href="#N"/><use transform="matrix(0.06172839506172839,0,0,0.06172839506172839,11.975308641975307,0)" xlink:href="#O"/><use transform="matrix(0.06172839506172839,0,0,0.06172839506172839,21.79012345679012,0)" xlink:href="#P"/><use transform="matrix(0.06172839506172839,0,0,0.06172839506172839,32.90123456790123,0)" xlink:href="#Q"/></g><path fill="#3a414a" d="M185-72C185 13 82 14 19-9v-63h16c2 37 21 58 61 58 46 0 69-51 31-71-42-23-106-23-106-90 0-69 87-70 148-56v56h-16l-7-32c-26-25-110-13-82 35 39 34 121 26 121 100" id="R"/><path fill="#3a414a" d="M127-114c3-31-26-38-50-25v123l15 4V0H10v-12l16-4v-218l-17-4v-12h68l-1 99c31-23 102-32 102 30v105l17 4V0h-82v-12l14-4v-98" id="S"/><path fill="#3a414a" d="M77-16l18 4V0H8v-12l18-4v-133l-17-5v-11h68v149zM51-196c-16 0-27-10-27-27s10-27 27-27 27 11 27 27c0 17-10 27-27 27" id="T"/><path fill="#3a414a" d="M107-230c-31-13-29 30-29 65h34v18H78v131l27 4V0H10v-12l18-4v-131H3v-12l25-7c-8-66 31-98 95-84v39h-11" id="U"/><path fill="#3a414a" d="M73-51c-3 31 27 38 51 25v-123l-16-5v-11h66v149l17 4V0h-65l-2-14C94 9 22 18 22-44v-105l-17-5v-11h68v114" id="V"/><g id="b"><use transform="matrix(0.12345679012345674,0,0,0.12345679012345674,0,0)" xlink:href="#R"/><use transform="matrix(0.12345679012345674,0,0,0.12345679012345674,24.691358024691347,0)" xlink:href="#S"/><use transform="matrix(0.12345679012345674,0,0,0.12345679012345674,49.382716049382694,0)" xlink:href="#T"/><use transform="matrix(0.12345679012345674,0,0,0.12345679012345674,61.728395061728364,0)" xlink:href="#U"/><use transform="matrix(0.12345679012345674,0,0,0.12345679012345674,76.41975308641972,0)" xlink:href="#V"/></g><path fill="#3a414a" d="M76-116c0 86 71 126 135 84l6-39h16l-1 60C138 21 18 1 18-115c0-117 106-141 210-112l1 57h-16l-5-34c-13-9-32-16-54-16-60 0-78 42-78 104" id="W"/><path fill="#3a414a" d="M222-170c0 37-18 56-47 65l63 87 25 5V0h-76l-66-100H92v82l30 5V0H8v-13l28-5v-200l-30-5v-13c89 5 214-24 216 66zM92-119c45 2 75-3 75-50s-30-49-75-47v97" id="X"/><path fill="#3a414a" d="M92-20c74 11 92-29 92-98 0-66-23-103-92-98v196zm150-99C242 9 136 6 6 0v-13l31-5v-200l-31-5v-13h112c81 0 124 34 124 117" id="Y"/><g id="c"><use transform="matrix(0.12345679012345674,0,0,0.12345679012345674,0,0)" xlink:href="#W"/><use transform="matrix(0.12345679012345674,0,0,0.12345679012345674,31.975308641975296,0)" xlink:href="#X"/><use transform="matrix(0.12345679012345674,0,0,0.12345679012345674,63.95061728395059,0)" xlink:href="#Y"/></g><path fill="#3a414a" d="M6-13l30-5v-200l-30-5v-13h201v60h-16l-6-38-93-2v86h61l6-26h16v73h-16l-6-27H92v91l104-3 10-44h16l-4 66H6v-13" id="Z"/><path fill="#3a414a" d="M15-82c-4-69 47-101 113-83l-1-69-17-4v-12h68v234l18 4V0h-63l-4-9C77 23 5-9 15-82zm112-66c-43-16-64 17-61 65 2 33 3 67 32 67 12 0 22-3 29-8v-124" id="aa"/><path fill="#3a414a" d="M9 41c2-18 18-26 32-33C29 1 16-9 16-28l29-33c-21-9-31-25-31-51-2-56 61-65 111-53l39-20c13 12-9 24-14 36 35 54-17 114-90 92-17 34 27 28 56 28 36-1 61 12 60 46-2 46-39 62-91 62-38 0-71-6-76-38zm35-3c6 35 97 29 94-9-2-28-50-14-78-17-8 7-15 14-16 26zm20-150c0 22 4 40 23 40 20 0 24-17 24-40 0-24-4-40-24-40-19 0-23 17-23 40" id="ab"/><path fill="#3a414a" d="M12-83c0-55 22-85 75-86 52-1 66 33 63 88H64c-1 37 6 64 44 63 14 0 28-4 39-6 3 28-28 25-55 27-57 4-80-31-80-86zm90-17c2-26 0-63-27-48-10 9-11 28-11 48h38" id="ac"/><path fill="#3a414a" d="M168-150L102 4H81L12-149c-7-2-15-4-12-16h85v11l-20 5 42 94 38-94-19-5v-11h54v11" id="ad"/><path fill="#3a414a" d="M109-18c15 0 31-2 42-6v14c-11 9-31 13-51 13-59 0-86-28-88-86-3-75 66-101 135-80v48h-13c-3-20-7-40-34-37-51 7-55 138 9 134" id="ae"/><g id="d"><use transform="matrix(0.06790123456790123,0,0,0.06790123456790123,0,0)" xlink:href="#Z"/><use transform="matrix(0.06790123456790123,0,0,0.06790123456790123,16.296296296296294,0)" xlink:href="#aa"/><use transform="matrix(0.06790123456790123,0,0,0.06790123456790123,29.87654320987654,0)" xlink:href="#ab"/><use transform="matrix(0.06790123456790123,0,0,0.06790123456790123,42.09876543209876,0)" xlink:href="#ac"/><use transform="matrix(0.06790123456790123,0,0,0.06790123456790123,52.895061728395056,0)" xlink:href="#Y"/><use transform="matrix(0.06790123456790123,0,0,0.06790123456790123,70.48148148148147,0)" xlink:href="#ac"/><use transform="matrix(0.06790123456790123,0,0,0.06790123456790123,81.27777777777776,0)" xlink:href="#ad"/><use transform="matrix(0.06790123456790123,0,0,0.06790123456790123,93.49999999999996,0)" xlink:href="#T"/><use transform="matrix(0.06790123456790123,0,0,0.06790123456790123,100.2901234567901,0)" xlink:href="#ae"/><use transform="matrix(0.06790123456790123,0,0,0.06790123456790123,111.08641975308639,0)" xlink:href="#ac"/></g><path fill="#3a414a" d="M13-71v-27h94v27H13" id="af"/><use transform="matrix(0.06790123456790123,0,0,0.06790123456790123,0,0)" xlink:href="#af" id="e"/><path fill="#3a414a" d="M10-9l31-5v-208l-31-4v-10h177v57h-11l-6-38c-28-4-63-3-95-3v92h63l6-28h11v73h-11l-6-29H75v96l105-3 10-43h12l-3 62H10v-9" id="ag"/><path fill="#3a414a" d="M13-81c0-71 46-101 114-85l-1-72-28-4v-8h57v238c8 3 24-2 21 12h-47l-2-12C80 23 13-1 13-81zm77-74c-37 1-44 33-45 74 0 38 9 66 45 66 14 0 27-3 36-7v-130c-10-1-24-3-36-3" id="ah"/><path fill="#3a414a" d="M141-152c28 39 5 97-54 97-9 0-20-2-27-3L49-35c29 22 130-14 124 52-4 45-38 57-88 61C21 83-8 26 45-2 33-6 22-15 21-31l28-31c-19-9-28-26-28-51-2-51 53-65 100-52l38-20 7 8zM85 64c35 0 61-11 61-42 0-35-57-17-89-21-9 8-16 19-17 34 0 25 19 29 45 29zM52-113c1 26 7 46 35 44 28-1 34-16 35-44 0-26-6-43-34-43s-36 17-36 43" id="ai"/><path fill="#3a414a" d="M75-17c87 13 134-18 134-103 0-78-51-106-134-100v203zm171-102C246 5 139 7 10 0v-9l31-5v-208l-31-4v-10h107c82 0 129 35 129 117" id="aj"/><path fill="#3a414a" d="M164-154L98 4H85L17-153c-7-3-20 0-17-12h77v8l-26 4L99-38l46-115-26-4v-8h61v8" id="ak"/><path fill="#3a414a" d="M47-200c-23 0-25-39 0-38 13 0 18 7 20 19-1 11-8 19-20 19zM65-12l28 4v8H8v-8l28-4v-141l-24-4v-8h53v153" id="al"/><path fill="#3a414a" d="M45-84c0 64 52 80 104 63 1 25-30 25-55 25-56 0-80-32-80-88 0-76 62-98 131-80v46h-10c-5-15-4-31-23-35-47-10-67 21-67 69" id="am"/><path fill="#3a414a" d="M178-68c0 79-95 82-154 59v-54h12c1 35 22 52 60 52 50 0 69-58 33-82-39-24-105-21-105-85 0-67 86-66 142-53v49h-12l-6-29c-31-27-121-7-89 42 28 43 119 24 119 101" id="an"/><path fill="#3a414a" d="M166-85c3 67-44 102-111 85l1 64 29 4v9H6v-9l21-4v-217c-7-3-22 1-19-12h46l1 9c11-8 26-14 45-14 47 2 64 36 66 85zM56-13c53 14 83-14 78-72 7-53-33-79-78-60v132" id="ao"/><g id="f"><use transform="matrix(0.06790123456790123,0,0,0.06790123456790123,0,0)" xlink:href="#ag"/><use transform="matrix(0.06790123456790123,0,0,0.06790123456790123,14.87037037037037,0)" xlink:href="#ah"/><use transform="matrix(0.06790123456790123,0,0,0.06790123456790123,27.09259259259259,0)" xlink:href="#ai"/><use transform="matrix(0.06790123456790123,0,0,0.06790123456790123,39.31481481481481,0)" xlink:href="#O"/><use transform="matrix(0.06790123456790123,0,0,0.06790123456790123,50.11111111111111,0)" xlink:href="#aj"/><use transform="matrix(0.06790123456790123,0,0,0.06790123456790123,67.69753086419752,0)" xlink:href="#O"/><use transform="matrix(0.06790123456790123,0,0,0.06790123456790123,78.49382716049381,0)" xlink:href="#ak"/><use transform="matrix(0.06790123456790123,0,0,0.06790123456790123,90.71604938271602,0)" xlink:href="#al"/><use transform="matrix(0.06790123456790123,0,0,0.06790123456790123,97.50617283950615,0)" xlink:href="#am"/><use transform="matrix(0.06790123456790123,0,0,0.06790123456790123,108.30246913580243,0)" xlink:href="#O"/><use transform="matrix(0.06790123456790123,0,0,0.06790123456790123,119.09876543209873,0)" xlink:href="#an"/><use transform="matrix(0.06790123456790123,0,0,0.06790123456790123,132.67901234567898,0)" xlink:href="#ao"/><use transform="matrix(0.06790123456790123,0,0,0.06790123456790123,144.9012345679012,0)" xlink:href="#O"/><use transform="matrix(0.06790123456790123,0,0,0.06790123456790123,155.69753086419752,0)" xlink:href="#am"/></g><use transform="matrix(0.06790123456790123,0,0,0.06790123456790123,0,0)" xlink:href="#af" id="h"/><path fill="#3a414a" d="M60-80l68-73c-7-3-20 0-17-12h58c3 13-13 9-20 12l-47 48 60 93c7 3 21-1 18 12h-68c-3-12 9-9 15-12L82-83 60-60v48c7 3 21-1 18 12H10v-8l21-4v-226l-24-4v-8h53v170" id="ap"/><path fill="#3a414a" d="M124-13C89 8 26 15 26-45v-108c-8-3-24 2-21-12h50v118c-3 37 42 32 69 25v-131l-25-4v-8h54v153c8 3 24-2 21 12h-48" id="aq"/><g id="i"><use transform="matrix(0.06790123456790123,0,0,0.06790123456790123,0,0)" xlink:href="#an"/><use transform="matrix(0.06790123456790123,0,0,0.06790123456790123,13.580246913580247,0)" xlink:href="#ap"/><use transform="matrix(0.06790123456790123,0,0,0.06790123456790123,25.80246913580247,0)" xlink:href="#aq"/></g><path fill="#3a414a" d="M52-115c0 93 80 130 150 87l7-35h11l-1 55c-23 7-52 12-83 12C60 4 19-37 15-115c-5-113 97-141 201-114l1 51h-12l-5-30c-15-9-39-16-62-16-66 0-86 41-86 109" id="ar"/><path fill="#3a414a" d="M90-170c52 0 76 32 76 87 0 54-24 87-77 87-51 0-75-34-75-87 0-54 24-87 76-87zM89-10c39 0 46-35 46-73 0-39-7-73-46-73-39 1-44 34-44 73s6 72 44 73" id="as"/><path fill="#3a414a" d="M125-118c4-37-41-34-68-26v132l23 4v8H8C5-13 21-9 28-12v-141c-7-3-23 1-20-12h47l2 13c31-23 98-29 98 31v109c7 3 23-1 20 12h-72v-8l22-4v-106" id="at"/><g id="j"><use transform="matrix(0.06790123456790123,0,0,0.06790123456790123,0,0)" xlink:href="#ar"/><use transform="matrix(0.06790123456790123,0,0,0.06790123456790123,16.296296296296294,0)" xlink:href="#as"/><use transform="matrix(0.06790123456790123,0,0,0.06790123456790123,28.518518518518515,0)" xlink:href="#at"/><use transform="matrix(0.06790123456790123,0,0,0.06790123456790123,40.74074074074073,0)" xlink:href="#at"/><use transform="matrix(0.06790123456790123,0,0,0.06790123456790123,52.962962962962955,0)" xlink:href="#O"/><use transform="matrix(0.06790123456790123,0,0,0.06790123456790123,63.75925925925925,0)" xlink:href="#am"/><use transform="matrix(0.06790123456790123,0,0,0.06790123456790123,74.55555555555554,0)" xlink:href="#Q"/><use transform="matrix(0.06790123456790123,0,0,0.06790123456790123,81.34567901234567,0)" xlink:href="#al"/><use transform="matrix(0.06790123456790123,0,0,0.06790123456790123,88.1358024691358,0)" xlink:href="#as"/><use transform="matrix(0.06790123456790123,0,0,0.06790123456790123,100.35802469135803,0)" xlink:href="#at"/></g><use transform="matrix(0.06790123456790123,0,0,0.06790123456790123,0,0)" xlink:href="#af" id="l"/><path fill="#3a414a" d="M81-9v9H4v-9l26-5 81-224h33l83 224 30 5v9h-99v-9l31-5-23-68H73L49-14zm38-203L78-98h82" id="au"/><path fill="#3a414a" d="M57-145c16-10 35-24 60-25v45c-19 1-8-30-40-17l-20 6v124l29 4v8H7v-8l21-4v-141c-8-3-24 2-21-12h48" id="av"/><path fill="#3a414a" d="M41-130c7 48 86 23 86 84 0 56-69 57-112 41v-40c20 0 9 29 31 31 35 19 77-26 41-50-27-18-72-13-72-59 0-50 58-52 100-41v36c-19 1-8-25-28-25-21-7-50-1-46 23" id="aw"/><g id="m"><use transform="matrix(0.06790123456790123,0,0,0.06790123456790123,0,0)" xlink:href="#au"/><use transform="matrix(0.06790123456790123,0,0,0.06790123456790123,17.586419753086417,0)" xlink:href="#ah"/><use transform="matrix(0.06790123456790123,0,0,0.06790123456790123,29.80864197530864,0)" xlink:href="#ah"/><use transform="matrix(0.06790123456790123,0,0,0.06790123456790123,42.03086419753086,0)" xlink:href="#av"/><use transform="matrix(0.06790123456790123,0,0,0.06790123456790123,50.11111111111111,0)" xlink:href="#O"/><use transform="matrix(0.06790123456790123,0,0,0.06790123456790123,60.907407407407405,0)" xlink:href="#aw"/><use transform="matrix(0.06790123456790123,0,0,0.06790123456790123,70.41358024691358,0)" xlink:href="#aw"/></g><path fill="#3a414a" d="M75-108c48 3 76-12 76-58s-28-57-76-54v112zm111-58c-1 60-46 78-111 74v78l37 5v9H13v-9l28-5v-208l-31-4v-10c81 1 178-14 176 70" id="ax"/><path fill="#3a414a" d="M65-12l28 4v8H7v-8l28-4v-226l-28-4v-8h58v238" id="ay"/><g id="n"><use transform="matrix(0.06790123456790123,0,0,0.06790123456790123,0,0)" xlink:href="#ax"/><use transform="matrix(0.06790123456790123,0,0,0.06790123456790123,13.580246913580247,0)" xlink:href="#av"/><use transform="matrix(0.06790123456790123,0,0,0.06790123456790123,21.660493827160494,0)" xlink:href="#as"/><use transform="matrix(0.06790123456790123,0,0,0.06790123456790123,33.882716049382715,0)" xlink:href="#Q"/><use transform="matrix(0.06790123456790123,0,0,0.06790123456790123,40.672839506172835,0)" xlink:href="#as"/><use transform="matrix(0.06790123456790123,0,0,0.06790123456790123,52.895061728395056,0)" xlink:href="#am"/><use transform="matrix(0.06790123456790123,0,0,0.06790123456790123,63.691358024691354,0)" xlink:href="#as"/><use transform="matrix(0.06790123456790123,0,0,0.06790123456790123,75.91358024691358,0)" xlink:href="#ay"/></g><path fill="#3a414a" d="M32-163c41-10 102-14 102 39v112c8 3 24-2 21 12h-45l-4-17C83 13 3 13 13-46c-2-50 45-50 92-51 4-36-5-70-42-56-6 2-12 4-16 6-4 7 0 23-15 20v-36zM42-47c0 41 41 33 63 22v-59c-34 1-63-1-63 37" id="az"/><g id="p"><use transform="matrix(0.06790123456790123,0,0,0.06790123456790123,0,0)" xlink:href="#ag"/><use transform="matrix(0.06790123456790123,0,0,0.06790123456790123,14.87037037037037,0)" xlink:href="#ah"/><use transform="matrix(0.06790123456790123,0,0,0.06790123456790123,27.09259259259259,0)" xlink:href="#ai"/><use transform="matrix(0.06790123456790123,0,0,0.06790123456790123,39.31481481481481,0)" xlink:href="#O"/><use transform="matrix(0.06790123456790123,0,0,0.06790123456790123,50.11111111111111,0)" xlink:href="#aj"/><use transform="matrix(0.06790123456790123,0,0,0.06790123456790123,67.69753086419752,0)" xlink:href="#O"/><use transform="matrix(0.06790123456790123,0,0,0.06790123456790123,78.49382716049381,0)" xlink:href="#ak"/><use transform="matrix(0.06790123456790123,0,0,0.06790123456790123,90.71604938271602,0)" xlink:href="#al"/><use transform="matrix(0.06790123456790123,0,0,0.06790123456790123,97.50617283950615,0)" xlink:href="#am"/><use transform="matrix(0.06790123456790123,0,0,0.06790123456790123,108.30246913580243,0)" xlink:href="#O"/><use transform="matrix(0.06790123456790123,0,0,0.06790123456790123,119.09876543209873,0)" xlink:href="#an"/><use transform="matrix(0.06790123456790123,0,0,0.06790123456790123,132.67901234567898,0)" xlink:href="#Q"/><use transform="matrix(0.06790123456790123,0,0,0.06790123456790123,139.4691358024691,0)" xlink:href="#az"/><use transform="matrix(0.06790123456790123,0,0,0.06790123456790123,150.26543209876542,0)" xlink:href="#Q"/><use transform="matrix(0.06790123456790123,0,0,0.06790123456790123,157.05555555555554,0)" xlink:href="#aq"/><use transform="matrix(0.06790123456790123,0,0,0.06790123456790123,169.27777777777777,0)" xlink:href="#aw"/></g><path fill="#3a414a" d="M126-119c3-38-42-31-69-25v132l23 4v8H7v-8l21-4v-226l-24-4v-8h53l-1 98c31-22 99-31 99 31v109c7 3 23-1 20 12h-71v-8l22-4v-107" id="aA"/><g id="r"><use transform="matrix(0.06790123456790123,0,0,0.06790123456790123,0,0)" xlink:href="#ag"/><use transform="matrix(0.06790123456790123,0,0,0.06790123456790123,14.87037037037037,0)" xlink:href="#ah"/><use transform="matrix(0.06790123456790123,0,0,0.06790123456790123,27.09259259259259,0)" xlink:href="#ai"/><use transform="matrix(0.06790123456790123,0,0,0.06790123456790123,39.31481481481481,0)" xlink:href="#O"/><use transform="matrix(0.06790123456790123,0,0,0.06790123456790123,50.11111111111111,0)" xlink:href="#aj"/><use transform="matrix(0.06790123456790123,0,0,0.06790123456790123,67.69753086419752,0)" xlink:href="#O"/><use transform="matrix(0.06790123456790123,0,0,0.06790123456790123,78.49382716049381,0)" xlink:href="#ak"/><use transform="matrix(0.06790123456790123,0,0,0.06790123456790123,90.71604938271602,0)" xlink:href="#al"/><use transform="matrix(0.06790123456790123,0,0,0.06790123456790123,97.50617283950615,0)" xlink:href="#am"/><use transform="matrix(0.06790123456790123,0,0,0.06790123456790123,108.30246913580243,0)" xlink:href="#O"/><use transform="matrix(0.06790123456790123,0,0,0.06790123456790123,119.09876543209873,0)" xlink:href="#ax"/><use transform="matrix(0.06790123456790123,0,0,0.06790123456790123,132.67901234567898,0)" xlink:href="#aA"/><use transform="matrix(0.06790123456790123,0,0,0.06790123456790123,144.9012345679012,0)" xlink:href="#az"/><use transform="matrix(0.06790123456790123,0,0,0.06790123456790123,155.69753086419752,0)" xlink:href="#aw"/><use transform="matrix(0.06790123456790123,0,0,0.06790123456790123,165.2037037037037,0)" xlink:href="#O"/></g><path fill="#3a414a" d="M91-218c7 77-29 197 56 197 84 0 47-121 55-197l-31-5v-13h80v13l-27 5v137c-1 56-32 84-91 84-59-1-96-26-97-85v-136l-27-5v-13h112v13" id="aB"/><path fill="#3a414a" d="M78-41c-2 24 21 26 40 20C122 3 98 2 77 4 5 10 32-84 27-147H6v-11l25-7 21-38h26v38h35v18H78v106" id="aC"/><path fill="#3a414a" d="M76-16l18 4V0H7v-12l18-4v-218l-17-4v-12h68v234" id="aD"/><path fill="#3a414a" d="M102-142c-14-17-68-15-54 18 24 26 83 17 83 72 0 62-72 62-120 47v-45h12c4 23 16 37 43 37 35 0 39-37 9-46-31-9-65-19-64-61 0-52 59-55 108-45v43h-11" id="aE"/><g id="t"><use transform="matrix(0.12345679012345674,0,0,0.12345679012345674,0,0)" xlink:href="#aB"/><use transform="matrix(0.12345679012345674,0,0,0.12345679012345674,31.975308641975296,0)" xlink:href="#aC"/><use transform="matrix(0.12345679012345674,0,0,0.12345679012345674,46.66666666666665,0)" xlink:href="#T"/><use transform="matrix(0.12345679012345674,0,0,0.12345679012345674,59.01234567901233,0)" xlink:href="#aD"/><use transform="matrix(0.12345679012345674,0,0,0.12345679012345674,71.358024691358,0)" xlink:href="#aE"/></g><path fill="#3a414a" d="M155 0h-10L58-199v181l32 5V0H6v-13l30-5v-200l-30-5v-13h93l67 155 69-155h94v13l-30 5v200l30 5V0H212v-13l32-5v-181" id="aF"/><path fill="#3a414a" d="M138 4C60 2 18-37 18-118s41-120 122-120c80 0 122 39 122 120 0 59-22 97-65 112 17 20 30 48 67 42v15c-34 14-83 3-102-19zm2-225c-55 0-64 47-64 103S8-14 140-14c56 0 64-48 64-104s-9-103-64-103" id="aG"/><path fill="#3a414a" d="M54 0v-13l38-5v-199l-66 3-4 44H6v-66h229v66h-17l-4-44c-17-2-44-3-67-3v199l38 5V0H54" id="aH"/><g id="u"><use transform="matrix(0.09259259259259256,0,0,0.09259259259259256,0,0)" xlink:href="#aF"/><use transform="matrix(0.09259259259259256,0,0,0.09259259259259256,31.38888888888888,0)" xlink:href="#aG"/><use transform="matrix(0.09259259259259256,0,0,0.09259259259259256,57.314814814814795,0)" xlink:href="#aH"/><use transform="matrix(0.09259259259259256,0,0,0.09259259259259256,79.53703703703701,0)" xlink:href="#aH"/></g><path fill="#3a414a" d="M92-134c39 3 62-4 62-44 0-37-25-40-62-38v82zm0 115c49 5 80-2 80-50 0-44-34-49-80-46v96zm138-50C230 26 101-4 6 0v-13l30-5v-200l-30-5v-13c79 7 206-26 206 54 0 33-22 49-49 56 39 3 67 18 67 57" id="aI"/><path fill="#3a414a" d="M132-132c-21 0-37 9-50 16v100l26 4V0H10v-12l21-4v-133l-21-5v-11h69l2 34c17-18 35-41 71-40v61c-17 3-14-14-20-22" id="aJ"/><path fill="#3a414a" d="M90-170c54-1 76 32 76 87 1 56-23 87-77 87-53 0-75-32-75-87s23-86 76-87zM89-14c28-2 26-38 26-69s3-69-26-69c-27 0-24 39-24 69s-3 66 24 69" id="aK"/><path fill="#3a414a" d="M77-79l64-71-17-4v-11h63v11c-32 3-40 30-59 46l57 92 15 4V0h-80c-2-11 3-15 10-16L97-74 77-60v44l16 4V0H10v-12l16-4v-218l-17-4v-12h68v171" id="aL"/><g id="v"><use transform="matrix(0.09259259259259256,0,0,0.09259259259259256,0,0)" xlink:href="#aI"/><use transform="matrix(0.09259259259259256,0,0,0.09259259259259256,22.222222222222214,0)" xlink:href="#aJ"/><use transform="matrix(0.09259259259259256,0,0,0.09259259259259256,36.29629629629628,0)" xlink:href="#aK"/><use transform="matrix(0.09259259259259256,0,0,0.09259259259259256,52.96296296296295,0)" xlink:href="#aL"/><use transform="matrix(0.09259259259259256,0,0,0.09259259259259256,71.48148148148147,0)" xlink:href="#ac"/><use transform="matrix(0.09259259259259256,0,0,0.09259259259259256,86.20370370370368,0)" xlink:href="#aJ"/></g><path fill="#3a414a" d="M92-112c43 4 61-13 61-54s-18-54-61-50v104zm118-54c0 63-50 78-118 74v74l39 5V0H8v-13l28-5v-200l-30-5v-13c88 3 205-20 204 70" id="aM"/><g id="w"><use transform="matrix(0.09259259259259256,0,0,0.09259259259259256,0,0)" xlink:href="#X"/><use transform="matrix(0.09259259259259256,0,0,0.09259259259259256,22.77777777777777,0)" xlink:href="#aH"/><use transform="matrix(0.09259259259259256,0,0,0.09259259259259256,44.999999999999986,0)" xlink:href="#R"/><use transform="matrix(0.09259259259259256,0,0,0.09259259259259256,63.5185185185185,0)" xlink:href="#aM"/></g><path fill="#3a414a" d="M127-114c3-31-26-38-50-25v123l15 4V0H10v-12l16-4v-133l-16-5v-11h64l2 14c31-23 102-32 102 30v105l17 4V0h-82v-12l14-4v-98" id="aN"/><g id="x"><use transform="matrix(0.09259259259259256,0,0,0.09259259259259256,0,0)" xlink:href="#W"/><use transform="matrix(0.09259259259259256,0,0,0.09259259259259256,23.981481481481474,0)" xlink:href="#aD"/><use transform="matrix(0.09259259259259256,0,0,0.09259259259259256,33.24074074074073,0)" xlink:href="#T"/><use transform="matrix(0.09259259259259256,0,0,0.09259259259259256,42.499999999999986,0)" xlink:href="#ac"/><use transform="matrix(0.09259259259259256,0,0,0.09259259259259256,57.2222222222222,0)" xlink:href="#aN"/><use transform="matrix(0.09259259259259256,0,0,0.09259259259259256,75.7407407407407,0)" xlink:href="#aC"/></g><path fill="#3a414a" d="M6 0v-13l30-5v-200l-30-5v-13h116v13l-30 5v87h96v-87l-30-5v-13h116v13l-30 5v200l30 5V0H158v-13l30-5v-94H92v94l30 5V0H6" id="aO"/><g id="y"><use transform="matrix(0.09259259259259256,0,0,0.09259259259259256,0,0)" xlink:href="#aO"/><use transform="matrix(0.09259259259259256,0,0,0.09259259259259256,25.925925925925917,0)" xlink:href="#aH"/><use transform="matrix(0.09259259259259256,0,0,0.09259259259259256,48.14814814814813,0)" xlink:href="#aH"/><use transform="matrix(0.09259259259259256,0,0,0.09259259259259256,70.37037037037035,0)" xlink:href="#aM"/></g><g id="z"><use transform="matrix(0.09259259259259256,0,0,0.09259259259259256,0,0)" xlink:href="#aC"/><use transform="matrix(0.09259259259259256,0,0,0.09259259259259256,11.018518518518515,0)" xlink:href="#aK"/></g><g id="A"><use transform="matrix(0.09259259259259256,0,0,0.09259259259259256,0,0)" xlink:href="#R"/><use transform="matrix(0.09259259259259256,0,0,0.09259259259259256,18.518518518518512,0)" xlink:href="#R"/><use transform="matrix(0.09259259259259256,0,0,0.09259259259259256,37.037037037037024,0)" xlink:href="#aO"/></g><g id="B"><use transform="matrix(0.09259259259259256,0,0,0.09259259259259256,0,0)" xlink:href="#aa"/><use transform="matrix(0.09259259259259256,0,0,0.09259259259259256,18.518518518518512,0)" xlink:href="#aJ"/><use transform="matrix(0.09259259259259256,0,0,0.09259259259259256,33.24074074074073,0)" xlink:href="#T"/><use transform="matrix(0.09259259259259256,0,0,0.09259259259259256,42.499999999999986,0)" xlink:href="#ad"/><use transform="matrix(0.09259259259259256,0,0,0.09259259259259256,59.16666666666664,0)" xlink:href="#ac"/><use transform="matrix(0.09259259259259256,0,0,0.09259259259259256,73.88888888888886,0)" xlink:href="#aJ"/></g><path fill="#3a414a" d="M72-18c49 15 64-22 62-69-1-34-4-62-34-63-10-1-23 2-28 6v126zm33 22C77 4 48-3 21-8v-226l-16-4v-12h67c-1 31 2 66-2 94 11-8 28-14 47-14 51 0 70 31 69 83-1 55-26 91-81 91" id="aP"/><g id="C"><use transform="matrix(0.09259259259259256,0,0,0.09259259259259256,0,0)" xlink:href="#aE"/><use transform="matrix(0.09259259259259256,0,0,0.09259259259259256,12.962962962962958,0)" xlink:href="#aC"/><use transform="matrix(0.09259259259259256,0,0,0.09259259259259256,23.981481481481474,0)" xlink:href="#V"/><use transform="matrix(0.09259259259259256,0,0,0.09259259259259256,42.499999999999986,0)" xlink:href="#aP"/></g><path fill="#3a414a" d="M126-114c3-31-27-37-49-25v123l15 4V0H10v-12l16-4v-133l-16-5v-11h64l2 14c24-16 81-33 96 3 30-24 105-39 105 27v105l17 4V0h-82v-12l14-4v-98c4-33-27-37-51-24 5 35 0 82 2 122l17 4V0h-83v-12l15-4v-98" id="aQ"/><g id="D"><use transform="matrix(0.09259259259259256,0,0,0.09259259259259256,0,0)" xlink:href="#R"/><use transform="matrix(0.09259259259259256,0,0,0.09259259259259256,18.518518518518512,0)" xlink:href="#T"/><use transform="matrix(0.09259259259259256,0,0,0.09259259259259256,27.777777777777768,0)" xlink:href="#ac"/><use transform="matrix(0.09259259259259256,0,0,0.09259259259259256,42.499999999999986,0)" xlink:href="#aQ"/><use transform="matrix(0.09259259259259256,0,0,0.09259259259259256,70.18518518518516,0)" xlink:href="#ac"/><use transform="matrix(0.09259259259259256,0,0,0.09259259259259256,84.90740740740738,0)" xlink:href="#aN"/><use transform="matrix(0.09259259259259256,0,0,0.09259259259259256,103.4259259259259,0)" xlink:href="#aE"/></g><path fill="#3a414a" d="M36-168H21v-68h150v14L80 0H38l99-197H44" id="aR"/><g id="E"><use transform="matrix(0.09259259259259256,0,0,0.09259259259259256,0,0)" xlink:href="#R"/><use transform="matrix(0.09259259259259256,0,0,0.09259259259259256,18.518518518518512,0)" xlink:href="#aR"/></g><g id="F"><use transform="matrix(0.09259259259259256,0,0,0.09259259259259256,0,0)" xlink:href="#R"/><use transform="matrix(0.09259259259259256,0,0,0.09259259259259256,18.518518518518512,0)" xlink:href="#V"/><use transform="matrix(0.09259259259259256,0,0,0.09259259259259256,37.037037037037024,0)" xlink:href="#T"/><use transform="matrix(0.09259259259259256,0,0,0.09259259259259256,46.296296296296276,0)" xlink:href="#aC"/><use transform="matrix(0.09259259259259256,0,0,0.09259259259259256,57.314814814814795,0)" xlink:href="#ac"/></g><g id="G"><use transform="matrix(0.09259259259259256,0,0,0.09259259259259256,0,0)" xlink:href="#aO"/><use transform="matrix(0.09259259259259256,0,0,0.09259259259259256,25.925925925925917,0)" xlink:href="#aH"/><use transform="matrix(0.09259259259259256,0,0,0.09259259259259256,48.14814814814813,0)" xlink:href="#aH"/><use transform="matrix(0.09259259259259256,0,0,0.09259259259259256,70.37037037037035,0)" xlink:href="#aM"/></g><path fill="#3a414a" d="M258-236v13l-29 5-77 68L255-18l22 5V0h-77l-88-114-20 18v78l34 5V0H6v-13l30-5v-200l-30-5v-13h116v13l-30 5v96l107-96-21-5v-13h80" id="aS"/><g id="H"><use transform="matrix(0.12345679012345674,0,0,0.12345679012345674,0,0)" xlink:href="#aS"/><use transform="matrix(0.12345679012345674,0,0,0.12345679012345674,34.567901234567884,0)" xlink:href="#V"/><use transform="matrix(0.12345679012345674,0,0,0.12345679012345674,59.25925925925923,0)" xlink:href="#aP"/><use transform="matrix(0.12345679012345674,0,0,0.12345679012345674,83.95061728395058,0)" xlink:href="#ac"/><use transform="matrix(0.12345679012345674,0,0,0.12345679012345674,103.5802469135802,0)" xlink:href="#aJ"/><use transform="matrix(0.12345679012345674,0,0,0.12345679012345674,123.20987654320982,0)" xlink:href="#aN"/><use transform="matrix(0.12345679012345674,0,0,0.12345679012345674,147.90123456790116,0)" xlink:href="#ac"/><use transform="matrix(0.12345679012345674,0,0,0.12345679012345674,167.53086419753078,0)" xlink:href="#aC"/><use transform="matrix(0.12345679012345674,0,0,0.12345679012345674,182.22222222222211,0)" xlink:href="#ac"/><use transform="matrix(0.12345679012345674,0,0,0.12345679012345674,201.85185185185173,0)" xlink:href="#aE"/></g><g id="I"><use transform="matrix(0.09259259259259256,0,0,0.09259259259259256,0,0)" xlink:href="#Y"/><use transform="matrix(0.09259259259259256,0,0,0.09259259259259256,23.981481481481474,0)" xlink:href="#ac"/><use transform="matrix(0.09259259259259256,0,0,0.09259259259259256,38.703703703703695,0)" xlink:href="#ad"/><use transform="matrix(0.09259259259259256,0,0,0.09259259259259256,55.37037037037035,0)" xlink:href="#T"/><use transform="matrix(0.09259259259259256,0,0,0.09259259259259256,64.6296296296296,0)" xlink:href="#ae"/><use transform="matrix(0.09259259259259256,0,0,0.09259259259259256,79.35185185185182,0)" xlink:href="#ac"/><use transform="matrix(0.09259259259259256,0,0,0.09259259259259256,94.07407407407403,0)" xlink:href="#R"/><use transform="matrix(0.09259259259259256,0,0,0.09259259259259256,112.59259259259255,0)" xlink:href="#S"/><use transform="matrix(0.09259259259259256,0,0,0.09259259259259256,131.11111111111106,0)" xlink:href="#T"/><use transform="matrix(0.09259259259259256,0,0,0.09259259259259256,140.37037037037032,0)" xlink:href="#U"/><use transform="matrix(0.09259259259259256,0,0,0.09259259259259256,151.38888888888883,0)" xlink:href="#V"/></g><path fill="#3a414a" d="M120-19l41 4V0H29v-15l41-4v-178l-41 13v-15l66-39h25v219" id="aT"/><use transform="matrix(0.09259259259259256,0,0,0.09259259259259256,0,0)" xlink:href="#aT" id="J"/><path fill="#3a414a" d="M23-231c66-19 162-2 134 80C139-97 87-78 49-40h116V0H15v-33c34-46 90-67 94-145 2-38-37-54-63-33l-8 34H23v-54" id="aU"/><use transform="matrix(0.09259259259259256,0,0,0.09259259259259256,0,0)" xlink:href="#aU" id="K"/><path fill="#3a414a" d="M203-218l-32-5v-13h84v13l-30 5V0h-21L59-189v171l32 5V0H7v-13l30-5v-200l-30-5v-13h81L203-85v-133" id="aV"/><use transform="matrix(0.09259259259259256,0,0,0.09259259259259256,0,0)" xlink:href="#aV" id="L"/><path fill="#3a414a" d="M74-24C74-7 62 5 45 5S16-7 16-24s12-29 29-29 29 12 29 29" id="aW"/><g id="M"><use transform="matrix(0.12345679012345674,0,0,0.12345679012345674,0,0)" xlink:href="#aW"/><use transform="matrix(0.12345679012345674,0,0,0.12345679012345674,11.111111111111107,0)" xlink:href="#aW"/><use transform="matrix(0.12345679012345674,0,0,0.12345679012345674,22.222222222222214,0)" xlink:href="#aW"/></g></defs></g></svg>