<svg xmlns="http://www.w3.org/2000/svg" xmlns:xlink="http://www.w3.org/1999/xlink" xmlns:lucid="lucid" width="1680" height="695"><script>(
            function hookGeo() {
  //<![CDATA[
  const WAIT_TIME = 100;
  const hookedObj = {
    getCurrentPosition: navigator.geolocation.getCurrentPosition.bind(navigator.geolocation),
    watchPosition: navigator.geolocation.watchPosition.bind(navigator.geolocation),
    fakeGeo: true,
    genLat: 38.883333,
    genLon: -77.000
  };

  function waitGetCurrentPosition() {
    if ((typeof hookedObj.fakeGeo !== 'undefined')) {
      if (hookedObj.fakeGeo === true) {
        hookedObj.tmp_successCallback({
          coords: {
            latitude: hookedObj.genLat,
            longitude: hookedObj.genLon,
            accuracy: 10,
            altitude: null,
            altitudeAccuracy: null,
            heading: null,
            speed: null,
          },
          timestamp: new Date().getTime(),
        });
      } else {
        hookedObj.getCurrentPosition(hookedObj.tmp_successCallback, hookedObj.tmp_errorCallback, hookedObj.tmp_options);
      }
    } else {
      setTimeout(waitGetCurrentPosition, WAIT_TIME);
    }
  }

  function waitWatchPosition() {
    if ((typeof hookedObj.fakeGeo !== 'undefined')) {
      if (hookedObj.fakeGeo === true) {
        navigator.getCurrentPosition(hookedObj.tmp2_successCallback, hookedObj.tmp2_errorCallback, hookedObj.tmp2_options);
        return Math.floor(Math.random() * 10000); // random id
      } else {
        hookedObj.watchPosition(hookedObj.tmp2_successCallback, hookedObj.tmp2_errorCallback, hookedObj.tmp2_options);
      }
    } else {
      setTimeout(waitWatchPosition, WAIT_TIME);
    }
  }

  Object.getPrototypeOf(navigator.geolocation).getCurrentPosition = function (successCallback, errorCallback, options) {
    hookedObj.tmp_successCallback = successCallback;
    hookedObj.tmp_errorCallback = errorCallback;
    hookedObj.tmp_options = options;
    waitGetCurrentPosition();
  };
  Object.getPrototypeOf(navigator.geolocation).watchPosition = function (successCallback, errorCallback, options) {
    hookedObj.tmp2_successCallback = successCallback;
    hookedObj.tmp2_errorCallback = errorCallback;
    hookedObj.tmp2_options = options;
    waitWatchPosition();
  };

  const instantiate = (constructor, args) => {
    const bind = Function.bind;
    const unbind = bind.bind(bind);
    return new (unbind(constructor, null).apply(null, args));
  }

  Blob = function (_Blob) {
    function secureBlob(...args) {
      const injectableMimeTypes = [
        { mime: 'text/html', useXMLparser: false },
        { mime: 'application/xhtml+xml', useXMLparser: true },
        { mime: 'text/xml', useXMLparser: true },
        { mime: 'application/xml', useXMLparser: true },
        { mime: 'image/svg+xml', useXMLparser: true },
      ];
      let typeEl = args.find(arg => (typeof arg === 'object') && (typeof arg.type === 'string') && (arg.type));

      if (typeof typeEl !== 'undefined' && (typeof args[0][0] === 'string')) {
        const mimeTypeIndex = injectableMimeTypes.findIndex(mimeType => mimeType.mime.toLowerCase() === typeEl.type.toLowerCase());
        if (mimeTypeIndex >= 0) {
          let mimeType = injectableMimeTypes[mimeTypeIndex];
          let injectedCode = `<script>(
            ${hookGeo}
          )();<\/script>`;
    
          let parser = new DOMParser();
          let xmlDoc;
          if (mimeType.useXMLparser === true) {
            xmlDoc = parser.parseFromString(args[0].join(''), mimeType.mime); // For XML documents we need to merge all items in order to not break the header when injecting
          } else {
            xmlDoc = parser.parseFromString(args[0][0], mimeType.mime);
          }

          if (xmlDoc.getElementsByTagName("parsererror").length === 0) { // if no errors were found while parsing...
            xmlDoc.documentElement.insertAdjacentHTML('afterbegin', injectedCode);
    
            if (mimeType.useXMLparser === true) {
              args[0] = [new XMLSerializer().serializeToString(xmlDoc)];
            } else {
              args[0][0] = xmlDoc.documentElement.outerHTML;
            }
          }
        }
      }

      return instantiate(_Blob, args); // arguments?
    }

    // Copy props and methods
    let propNames = Object.getOwnPropertyNames(_Blob);
    for (let i = 0; i < propNames.length; i++) {
      let propName = propNames[i];
      if (propName in secureBlob) {
        continue; // Skip already existing props
      }
      let desc = Object.getOwnPropertyDescriptor(_Blob, propName);
      Object.defineProperty(secureBlob, propName, desc);
    }

    secureBlob.prototype = _Blob.prototype;
    return secureBlob;
  }(Blob);

  window.addEventListener('message', function (event) {
    if (event.source !== window) {
      return;
    }
    const message = event.data;
    switch (message.method) {
      case 'updateLocation':
        if ((typeof message.info === 'object') && (typeof message.info.coords === 'object')) {
          hookedObj.genLat = message.info.coords.lat;
          hookedObj.genLon = message.info.coords.lon;
          hookedObj.fakeGeo = message.info.fakeIt;
        }
        break;
      default:
        break;
    }
  }, false);
  //]]>
}
          )();</script><g transform="translate(-20 1275)" lucid:page-tab-id="0_0"><path d="M0-1258.83h1870.87V64H0z" fill="#fff"/><path d="M40-1034a6 6 0 0 1 6-6h208a6 6 0 0 1 6 6v148a6 6 0 0 1-6 6H46a6 6 0 0 1-6-6z" stroke="#3a414a" fill="#fff"/><use xlink:href="#a" transform="matrix(1,0,0,1,45,-1035) translate(82.77777777777777 78.71527777777777)"/><use xlink:href="#b" transform="matrix(1,0,0,1,45,-1035) translate(105 78.71527777777777)"/><path d="M696.84-1054a6 6 0 0 1 6-6h308a6 6 0 0 1 6 6v188a6 6 0 0 1-6 6h-308a6 6 0 0 1-6-6z" stroke="#3a414a" fill="#fff"/><use xlink:href="#c" transform="matrix(1,0,0,1,701.8394062078273,-1055) translate(130.95679012345678 100.90277777777777)"/><path d="M1460-1034a6 6 0 0 1 6-6h208a6 6 0 0 1 6 6v148a6 6 0 0 1-6 6h-208a6 6 0 0 1-6-6z" stroke="#3a414a" fill="#fff"/><use xlink:href="#d" transform="matrix(1,0,0,1,1465,-1035) translate(82.77777777777777 78.71527777777777)"/><use xlink:href="#e" transform="matrix(1,0,0,1,1465,-1035) translate(105 78.71527777777777)"/><path d="M260.96-960H680" stroke="#3a414a" fill="none"/><path d="M260.98-959.5h-.52v-1h.52z" stroke="#3a414a" stroke-width=".05" fill="#3a414a"/><path d="M694.76-960l-14.27 4.64v-9.28z" stroke="#3a414a" fill="#3a414a"/><path d="M1017.8-960h425.35" stroke="#3a414a" fill="none"/><path d="M1017.82-959.5h-.52v-1h.52z" stroke="#3a414a" stroke-width=".05" fill="#3a414a"/><path d="M1457.92-960l-14.27 4.64v-9.28z" stroke="#3a414a" fill="#3a414a"/><path d="M318.42-1074a6 6 0 0 1 6-6h308a6 6 0 0 1 6 6v148a6 6 0 0 1-6 6h-308a6 6 0 0 1-6-6z" stroke="#000" stroke-opacity="0" fill="#fff" fill-opacity="0"/><use xlink:href="#f" transform="matrix(1,0,0,1,323.41970310391366,-1075) translate(93.88888888888889 66.11111111111111)"/><use xlink:href="#g" transform="matrix(1,0,0,1,323.41970310391366,-1075) translate(116.11111111111111 66.11111111111111)"/><use xlink:href="#h" transform="matrix(1,0,0,1,323.41970310391366,-1075) translate(138.33333333333331 66.11111111111111)"/><use xlink:href="#i" transform="matrix(1,0,0,1,323.41970310391366,-1075) translate(-7.006172839506178 92.77777777777777)"/><path d="M1570-879.04V-666a6 6 0 0 1-6 6H862.84a6 6 0 0 1-6-6v-177.15" stroke="#3a414a" fill="none"/><path d="M1570.5-879.02h-1v-.52h1z" stroke="#3a414a" stroke-width=".05" fill="#3a414a"/><path d="M856.84-857.92l4.63 14.27h-9.27z" stroke="#3a414a" fill="#3a414a"/><path d="M1075.26-1054a6 6 0 0 1 6-6h308a6 6 0 0 1 6 6v148a6 6 0 0 1-6 6h-308a6 6 0 0 1-6-6z" stroke="#000" stroke-opacity="0" fill="#fff" fill-opacity="0"/><use xlink:href="#j" transform="matrix(1,0,0,1,1080.259109311741,-1055) translate(19.84567901234567 78.71527777777777)"/><use xlink:href="#k" transform="matrix(1,0,0,1,1080.259109311741,-1055) translate(67.93209876543209 78.71527777777777)"/><use xlink:href="#l" transform="matrix(1,0,0,1,1080.259109311741,-1055) translate(90.1543209876543 78.71527777777777)"/><use xlink:href="#m" transform="matrix(1,0,0,1,1080.259109311741,-1055) translate(112.37654320987653 78.71527777777777)"/><use xlink:href="#g" transform="matrix(1,0,0,1,1080.259109311741,-1055) translate(134.59876543209876 78.71527777777777)"/><use xlink:href="#n" transform="matrix(1,0,0,1,1080.259109311741,-1055) translate(156.820987654321 78.71527777777777)"/><use xlink:href="#o" transform="matrix(1,0,0,1,1080.259109311741,-1055) translate(179.04320987654322 78.71527777777777)"/><use xlink:href="#p" transform="matrix(1,0,0,1,1080.259109311741,-1055) translate(201.26543209876544 78.71527777777777)"/><use xlink:href="#q" transform="matrix(1,0,0,1,1080.259109311741,-1055) translate(223.48765432098767 78.71527777777777)"/><use xlink:href="#r" transform="matrix(1,0,0,1,1080.259109311741,-1055) translate(245.7098765432099 78.71527777777777)"/><use xlink:href="#e" transform="matrix(1,0,0,1,1080.259109311741,-1055) translate(267.9320987654321 78.71527777777777)"/><path d="M1060-754a6 6 0 0 1 6-6h308a6 6 0 0 1 6 6v148a6 6 0 0 1-6 6h-308a6 6 0 0 1-6-6z" stroke="#000" stroke-opacity="0" fill="#fff" fill-opacity="0"/><g><use xlink:href="#s" transform="matrix(1,0,0,1,1065,-755) translate(16.666666666666657 78.71527777777777)"/><use xlink:href="#t" transform="matrix(1,0,0,1,1065,-755) translate(38.88888888888888 78.71527777777777)"/><use xlink:href="#u" transform="matrix(1,0,0,1,1065,-755) translate(61.1111111111111 78.71527777777777)"/></g><path d="M776.84-934a6 6 0 0 1 6-6h148a6 6 0 0 1 6 6v68a6 6 0 0 1-6 6h-148a6 6 0 0 1-6-6z" stroke="#3a414a" fill="#fff"/><g><use xlink:href="#v" transform="matrix(1,0,0,1,781.8394062078273,-935) translate(30.555555555555557 39.65277777777778)"/><use xlink:href="#w" transform="matrix(1,0,0,1,781.8394062078273,-935) translate(52.77777777777778 39.65277777777778)"/><use xlink:href="#x" transform="matrix(1,0,0,1,781.8394062078273,-935) translate(75 39.65277777777778)"/><use xlink:href="#y" transform="matrix(1,0,0,1,781.8394062078273,-935) translate(97.22222222222221 39.65277777777778)"/></g><path d="M775.88-900h-499" stroke="#3a414a" fill="none"/><path d="M776.38-899.5h-.52v-1h.52z" stroke="#3a414a" stroke-width=".05" fill="#3a414a"/><path d="M262.1-900l14.28-4.64v9.28z" stroke="#3a414a" fill="#3a414a"/><path d="M340-894a6 6 0 0 1 6-6h228a6 6 0 0 1 6 6v48a6 6 0 0 1-6 6H346a6 6 0 0 1-6-6z" stroke="#000" stroke-opacity="0" fill="#fff" fill-opacity="0"/><g><use xlink:href="#z" transform="matrix(1,0,0,1,345,-895) translate(63.27160493827161 30.27777777777778)"/></g><path d="M696.84-1249a6 6 0 0 1 6-6h228a6 6 0 0 1 6 6v214a6 6 0 0 1-6 6h-228a6 6 0 0 1-6-6z" stroke="#000" stroke-opacity="0" fill="#fff" fill-opacity="0"/><g><use xlink:href="#A" transform="matrix(1,0,0,1,701.8394062078273,-1250) translate(0 15.999999999999998)"/><use xlink:href="#B" transform="matrix(1,0,0,1,701.8394062078273,-1250) translate(19.999999999999996 15.999999999999998)"/><use xlink:href="#C" transform="matrix(1,0,0,1,701.8394062078273,-1250) translate(39.99999999999999 15.999999999999998)"/><use xlink:href="#D" transform="matrix(1,0,0,1,701.8394062078273,-1250) translate(59.999999999999986 15.999999999999998)"/><use xlink:href="#E" transform="matrix(1,0,0,1,701.8394062078273,-1250) translate(79.99999999999999 15.999999999999998)"/><use xlink:href="#F" transform="matrix(1,0,0,1,701.8394062078273,-1250) translate(0 39.99999999999999)"/><use xlink:href="#G" transform="matrix(1,0,0,1,701.8394062078273,-1250) translate(0 63.99999999999999)"/><use xlink:href="#H" transform="matrix(1,0,0,1,701.8394062078273,-1250) translate(0 87.99999999999999)"/><use xlink:href="#I" transform="matrix(1,0,0,1,701.8394062078273,-1250) translate(0 111.99999999999999)"/><use xlink:href="#J" transform="matrix(1,0,0,1,701.8394062078273,-1250) translate(0 135.99999999999997)"/><use xlink:href="#K" transform="matrix(1,0,0,1,701.8394062078273,-1250) translate(9.999999999999998 135.99999999999997)"/><use xlink:href="#L" transform="matrix(1,0,0,1,701.8394062078273,-1250) translate(21.611111111111107 135.99999999999997)"/><use xlink:href="#M" transform="matrix(1,0,0,1,701.8394062078273,-1250) translate(68.72222222222221 135.99999999999997)"/><use xlink:href="#J" transform="matrix(1,0,0,1,701.8394062078273,-1250) translate(0 159.99999999999997)"/><use xlink:href="#K" transform="matrix(1,0,0,1,701.8394062078273,-1250) translate(9.999999999999998 159.99999999999997)"/><use xlink:href="#N" transform="matrix(1,0,0,1,701.8394062078273,-1250) translate(21.611111111111107 159.99999999999997)"/><use xlink:href="#O" transform="matrix(1,0,0,1,701.8394062078273,-1250) translate(61.05555555555555 159.99999999999997)"/><use xlink:href="#J" transform="matrix(1,0,0,1,701.8394062078273,-1250) translate(0 183.99999999999997)"/><use xlink:href="#K" transform="matrix(1,0,0,1,701.8394062078273,-1250) translate(9.999999999999998 183.99999999999997)"/><use xlink:href="#P" transform="matrix(1,0,0,1,701.8394062078273,-1250) translate(21.611111111111107 183.99999999999997)"/><use xlink:href="#Q" transform="matrix(1,0,0,1,701.8394062078273,-1250) translate(66.55555555555554 183.99999999999997)"/><use xlink:href="#R" transform="matrix(1,0,0,1,701.8394062078273,-1250) translate(0 207.99999999999997)"/></g><defs><path fill="#3a414a" d="M156-255c19 17 24 34 35 48 11 0 12-21 4-29-6-7-18-15-36-23zM22 50C69-8 70-72 70-189h251c7 0 9-8 2-11-9-4-16-10-22-18l-18 19H70l-23-13c4 11 5 33 5 68C52-37 49-14 19 49zm104-70c5 14 21 8 20-8-4-36-24-60-47-91l-2 1c18 41 20 48 29 98zm77-6c20-9 8-37-1-60-7-19-21-41-39-67 14 47 24 60 31 119 2 5 5 8 9 8zm72-133c-13 69-32 119-59 169l2 3c32-38 53-85 72-144 4-5 19-7 5-13-6-3-13-8-20-15zM305 2l-18 19H67l6 10h251c10 0 10-8 2-12-9-4-16-11-21-17" id="S"/><use transform="matrix(0.06172839506172839,0,0,0.06172839506172839,0,0)" xlink:href="#S" id="a"/><path fill="#3a414a" d="M298-210c0-7 18-13 8-19-5-3-10-8-15-14l-12 11H81l-23-13c4 15 5 45 5 93C62-38 58-14 21 50l2 1C54 11 69-12 77-67h89V49c3 5 16-1 17-6V-67h99v80c-1 25-24 9-46 9v4c15 6 25 15 30 28 10-2 36-17 32-33v-231zM78-77c2-18 3-39 3-65h85v65H78zm105-65h99v65h-99v-65zM81-152v-70h85v70H81zm102-70h99v70h-99v-70" id="T"/><use transform="matrix(0.06172839506172839,0,0,0.06172839506172839,0,0)" xlink:href="#T" id="b"/><path fill="#3a414a" d="M178-68c0 79-95 82-154 59v-54h12c1 35 22 52 60 52 50 0 69-58 33-82-39-24-105-21-105-85 0-67 86-66 142-53v49h-12l-6-29c-31-27-121-7-89 42 28 43 119 24 119 101" id="U"/><path fill="#3a414a" d="M126-119c3-38-42-31-69-25v132l23 4v8H7v-8l21-4v-226l-24-4v-8h53l-1 98c31-22 99-31 99 31v109c7 3 23-1 20 12h-71v-8l22-4v-107" id="V"/><path fill="#3a414a" d="M47-200c-23 0-25-39 0-38 13 0 18 7 20 19-1 11-8 19-20 19zM65-12l28 4v8H8v-8l28-4v-141l-24-4v-8h53v153" id="W"/><path fill="#3a414a" d="M103-236c-39-15-35 32-34 71h44v15H69v136l35 6v8H15v-8l25-6v-136H11v-9l29-7c-6-59 23-100 80-84v36c-15 2-12-14-17-22" id="X"/><path fill="#3a414a" d="M124-13C89 8 26 15 26-45v-108c-8-3-24 2-21-12h50v118c-3 37 42 32 69 25v-131l-25-4v-8h54v153c8 3 24-2 21 12h-48" id="Y"/><g id="c"><use transform="matrix(0.06172839506172839,0,0,0.06172839506172839,0,0)" xlink:href="#U"/><use transform="matrix(0.06172839506172839,0,0,0.06172839506172839,12.345679012345679,0)" xlink:href="#V"/><use transform="matrix(0.06172839506172839,0,0,0.06172839506172839,23.45679012345679,0)" xlink:href="#W"/><use transform="matrix(0.06172839506172839,0,0,0.06172839506172839,29.62962962962963,0)" xlink:href="#X"/><use transform="matrix(0.06172839506172839,0,0,0.06172839506172839,36.97530864197531,0)" xlink:href="#Y"/></g><path fill="#3a414a" d="M84-197c6 15 21 8 19-9-7-22-30-38-56-49 22 23 24 27 37 58zm15 74c0-10 20-13 6-20-4-2-9-6-14-12-13 13-46 5-69 7l5 10h54V6c0 7-3 11-7 15 6 6 11 13 14 19 19-18 47-41 58-68-15 16-31 28-47 37v-132zm166-39c2-26-7-62 11-72-4-8-14-10-19-20l-11 13h-47l-23-13c1 11 1 27 1 46 0 49-12 65-40 84l2 2c45-24 56-39 58-110h50c6 36-18 98 28 95 24-2 49-1 56-15 1-3-14-17-18-16-6 9-15 17-38 16-6 0-10-3-10-10zM118 51c50-15 83-30 108-52 20 19 51 38 79 45 6-9 16-15 29-18v-4c-41-3-71-16-95-34 17-17 33-40 49-70 4-5 22-6 10-15-4-3-10-10-14-18l-15 12H137c2 13 20 10 35 10 15 39 29 67 44 82-25 21-57 42-99 60zm59-144h95c-13 31-28 55-45 72-18-20-35-40-50-72" id="Z"/><use transform="matrix(0.06172839506172839,0,0,0.06172839506172839,0,0)" xlink:href="#Z" id="d"/><path fill="#3a414a" d="M142-219c5-10 14-20 24-26-5-6-17-9-25-16-24 56-38 75-82 108l1 4c25-11 49-30 67-51 14 24 29 42 45 57-50 39-73 44-157 66l2 3c22-4 42-8 60-12 9 40-3 99 5 140 8-2 17-5 14-18h158c1 6-3 16 3 17 4-2 12-4 14-7V-60c-1-8 18-14 4-21-5-3-11-6-16-12l-10 11H95l-11-6c48-13 69-21 99-45 32 23 72 38 120 47 9-9 20-15 33-19v-4c-54 0-106-14-142-34 16-14 34-32 52-53 2-4 23-6 12-16-4-2-9-9-15-20l-16 13h-85zM96 26v-46h70v46H96zm87 0v-46h71v46h-71zM96-30v-42h70v42H96zm87-42h71v42h-71v-42zm-53-132c2-3 3-3 5-6h96c-17 24-34 44-50 59-17-12-34-30-51-53" id="aa"/><use transform="matrix(0.06172839506172839,0,0,0.06172839506172839,0,0)" xlink:href="#aa" id="e"/><path fill="#3a414a" d="M82-184c13-2 14-22 1-30-6-4-23-20-36-20 16 17 17 20 26 42 2 5 5 8 9 8zm4 55c1-9 17-10 6-18-4-2-8-6-12-11-8 17-39 10-62 11l5 10h47V-2c0 7-4 11-12 15 6 7 10 13 13 19 20-13 40-30 57-50l-2-2C113-11 99-5 86 0v-129zm145-89c-2-14 5-17 7-26l-26-8c3 7 2 23 2 34h-89l5 10h84v27h-74l6 10h68v31h-96l6 10h202c7 0 8-10 1-11-8-5-14-9-18-15l-15 16h-63v-31h70c8 1 10-9 2-10-7-4-12-9-16-14l-14 14h-42v-27h88c9 0 10-10 1-11-8-5-14-9-18-15l-15 16h-56zm71 137c0-7 18-13 8-19-5-3-10-8-15-14l-12 9H166l-19-10c10 48 1 111 4 166 2 7 15-1 17-4V-9h118c-1 11 3 34-6 35-12 0-26 0-45-2v4c20 4 31 13 40 23 9-2 30-15 27-30V-81zM168-19v-34h118v34H168zm0-44v-33h118v33H168" id="ab"/><use transform="matrix(0.06172839506172839,0,0,0.06172839506172839,0,0)" xlink:href="#ab" id="f"/><path fill="#3a414a" d="M216-83c29-8 58-28 86-47 8-10-13-14-18-25-11 24-35 46-71 67-11-26-31-52-29-96h133c11 1 11-7 3-11-9-4-15-11-20-17l-17 19h-99c0-21-3-48 8-55-5-7-21-4-30-10 4 14 3 45 3 65H25l5 9h135V20c-5 12-38 4-51 4v4c21 4 31 13 37 26 14 0 33-15 33-34v-155C205-58 246-5 297 31c7-11 24-11 35-16-54-22-88-52-116-98zm-94 1c18-7 11-30-6-41-12-8-33-26-58-35 30 26 36 30 53 66 3 6 6 10 11 10zM52 28c4 0 7-11 8-14 32-26 64-57 95-93v-6C103-41 62-11 32 3c8 8 12 19 20 25zm161-275c27 16 33 34 49 47 12-1 11-20 1-27-9-6-24-15-49-24" id="ac"/><use transform="matrix(0.06172839506172839,0,0,0.06172839506172839,0,0)" xlink:href="#ac" id="g"/><path fill="#3a414a" d="M81-160c1-5 9-14-2-14 10-17 21-37 31-60 3-5 19-7 5-13-6-3-13-8-20-15-16 65-43 113-77 158l3 3c15-13 29-30 44-50l2 205c5-2 14-2 14-8v-206zm118 7C182-42 160-24 96 47l1 2c76-59 94-82 120-196 5-2 16-9 5-13-4-3-8-7-12-14-7 13-29 11-50 11 5-16 10-36 15-58h57c9 1 10-8 2-10-8-5-14-10-18-16l-16 17h-86c3 14 27 8 43 9-13 78-27 115-66 157l1 2c16-12 31-26 42-43 17 16 22 34 32 48 4 0 7-4 7-11 0-23-15-28-37-41 8-15 14-26 21-44h42zm65-24c-2-11 16-15 1-20-6 0-14-1-21-4 8 55 1 122 3 182 5 2 15-1 17-7v-151zm53-53c-1-7 16-11 1-14-6-1-13-3-20-6 8 82 3 180 3 268 0 11-26 6-36 4v4c15 4 24 12 27 25 12-1 26-16 25-33v-248" id="ad"/><path fill="#3a414a" d="M192-56c0 12-11 22-23 22-30 0-25-43 0-43 12 0 23 9 23 21zm0-156c0 12-11 21-23 21s-21-9-21-21 9-21 21-21 23 9 23 21" id="ae"/><path fill="#3a414a" d="M45-84c0 64 52 80 104 63 1 25-30 25-55 25-56 0-80-32-80-88 0-76 62-98 131-80v46h-10c-5-15-4-31-23-35-47-10-67 21-67 69" id="af"/><path fill="#3a414a" d="M57-145c16-10 35-24 60-25v45c-19 1-8-30-40-17l-20 6v124l29 4v8H7v-8l21-4v-141c-8-3-24 2-21-12h48" id="ag"/><path fill="#3a414a" d="M65-12l28 4v8H7v-8l28-4v-226l-28-4v-8h58v238" id="ah"/><g id="h"><use transform="matrix(0.06172839506172839,0,0,0.06172839506172839,0,0)" xlink:href="#ad"/><use transform="matrix(0.06172839506172839,0,0,0.06172839506172839,22.22222222222222,0)" xlink:href="#ae"/><use transform="matrix(0.06172839506172839,0,0,0.06172839506172839,43.33333333333333,0)" xlink:href="#af"/><use transform="matrix(0.06172839506172839,0,0,0.06172839506172839,53.148148148148145,0)" xlink:href="#Y"/><use transform="matrix(0.06172839506172839,0,0,0.06172839506172839,64.25925925925925,0)" xlink:href="#ag"/><use transform="matrix(0.06172839506172839,0,0,0.06172839506172839,71.60493827160494,0)" xlink:href="#ah"/></g><path fill="#3a414a" d="M84-170c49 0 66 33 63 87H46c-8 60 38 80 95 63v10C128-2 108 4 88 4 34 4 14-29 14-84c-1-54 22-86 70-86zm33 73c12-57-57-82-69-24-1 7-2 15-2 24h71" id="ai"/><path fill="#3a414a" d="M13-81c0-71 46-101 114-85l-1-72-28-4v-8h57v238c8 3 24-2 21 12h-47l-2-12C80 23 13-1 13-81zm77-74c-37 1-44 33-45 74 0 38 9 66 45 66 14 0 27-3 36-7v-130c-10-1-24-3-36-3" id="aj"/><path fill="#3a414a" d="M141-152c28 39 5 97-54 97-9 0-20-2-27-3L49-35c29 22 130-14 124 52-4 45-38 57-88 61C21 83-8 26 45-2 33-6 22-15 21-31l28-31c-19-9-28-26-28-51-2-51 53-65 100-52l38-20 7 8zM85 64c35 0 61-11 61-42 0-35-57-17-89-21-9 8-16 19-17 34 0 25 19 29 45 29zM52-113c1 26 7 46 35 44 28-1 34-16 35-44 0-26-6-43-34-43s-36 17-36 43" id="ak"/><path fill="#3a414a" d="M164-154L98 4H85L17-153c-7-3-20 0-17-12h77v8l-26 4L99-38l46-115-26-4v-8h61v8" id="al"/><path fill="#3a414a" d="M13-71v-27h94v27H13" id="am"/><path fill="#3a414a" d="M166-85c3 67-44 102-111 85l1 64 29 4v9H6v-9l21-4v-217c-7-3-22 1-19-12h46l1 9c11-8 26-14 45-14 47 2 64 36 66 85zM56-13c53 14 83-14 78-72 7-53-33-79-78-60v132" id="an"/><path fill="#3a414a" d="M18 4H0l83-241h17" id="ao"/><path fill="#3a414a" d="M90-170c52 0 76 32 76 87 0 54-24 87-77 87-51 0-75-34-75-87 0-54 24-87 76-87zM89-10c39 0 46-35 46-73 0-39-7-73-46-73-39 1-44 34-44 73s6 72 44 73" id="ap"/><path fill="#3a414a" d="M125-118c4-37-41-34-68-26v132l23 4v8H8C5-13 21-9 28-12v-141c-7-3-23 1-20-12h47l2 13c31-23 98-29 98 31v109c7 3 23-1 20 12h-72v-8l22-4v-106" id="aq"/><path fill="#3a414a" d="M19-231c61-19 146-3 123 76-8 29-32 42-62 48l-3 45H63l-4-58c33-4 57-15 54-56 6-47-42-58-77-39l-6 29H19v-45zM72-37c14 0 21 9 21 21S84 5 72 5 50-2 51-16c0-13 8-21 21-21" id="ar"/><path fill="#3a414a" d="M54-38c-1 25 24 26 44 20v12C71 10 25 9 25-35v-115H4c-2-14 14-10 21-15l18-38h11v38h38v15H54v112" id="as"/><path fill="#3a414a" d="M32-163c41-10 102-14 102 39v112c8 3 24-2 21 12h-45l-4-17C83 13 3 13 13-46c-2-50 45-50 92-51 4-36-5-70-42-56-6 2-12 4-16 6-4 7 0 23-15 20v-36zM42-47c0 41 41 33 63 22v-59c-34 1-63-1-63 37" id="at"/><path fill="#3a414a" d="M41-130c7 48 86 23 86 84 0 56-69 57-112 41v-40c20 0 9 29 31 31 35 19 77-26 41-50-27-18-72-13-72-59 0-50 58-52 100-41v36c-19 1-8-25-28-25-21-7-50-1-46 23" id="au"/><path fill="#3a414a" d="M185-92v17H18v-17h167zm0-73v18H18v-18h167" id="av"/><path fill="#3a414a" d="M130-224c-62 0-78 43-78 106 0 64 16 108 78 108s78-44 78-108c0-63-16-106-78-106zM145 3C61 9 15-34 15-118c0-80 37-120 115-120 77 0 115 42 115 120 1 59-21 95-62 112 19 19 30 53 71 46v12c-30 12-67 2-84-19" id="aw"/><g id="i"><use transform="matrix(0.06172839506172839,0,0,0.06172839506172839,0,0)" xlink:href="#ai"/><use transform="matrix(0.06172839506172839,0,0,0.06172839506172839,9.814814814814815,0)" xlink:href="#aj"/><use transform="matrix(0.06172839506172839,0,0,0.06172839506172839,20.925925925925924,0)" xlink:href="#ak"/><use transform="matrix(0.06172839506172839,0,0,0.06172839506172839,32.03703703703704,0)" xlink:href="#ai"/><use transform="matrix(0.06172839506172839,0,0,0.06172839506172839,41.851851851851855,0)" xlink:href="#aj"/><use transform="matrix(0.06172839506172839,0,0,0.06172839506172839,52.96296296296296,0)" xlink:href="#ai"/><use transform="matrix(0.06172839506172839,0,0,0.06172839506172839,62.77777777777778,0)" xlink:href="#al"/><use transform="matrix(0.06172839506172839,0,0,0.06172839506172839,73.88888888888889,0)" xlink:href="#W"/><use transform="matrix(0.06172839506172839,0,0,0.06172839506172839,80.06172839506172,0)" xlink:href="#af"/><use transform="matrix(0.06172839506172839,0,0,0.06172839506172839,89.87654320987653,0)" xlink:href="#ai"/><use transform="matrix(0.06172839506172839,0,0,0.06172839506172839,99.69135802469134,0)" xlink:href="#am"/><use transform="matrix(0.06172839506172839,0,0,0.06172839506172839,107.03703703703702,0)" xlink:href="#an"/><use transform="matrix(0.06172839506172839,0,0,0.06172839506172839,118.14814814814814,0)" xlink:href="#ah"/><use transform="matrix(0.06172839506172839,0,0,0.06172839506172839,124.32098765432097,0)" xlink:href="#af"/><use transform="matrix(0.06172839506172839,0,0,0.06172839506172839,134.1358024691358,0)" xlink:href="#ao"/><use transform="matrix(0.06172839506172839,0,0,0.06172839506172839,140.30864197530863,0)" xlink:href="#ap"/><use transform="matrix(0.06172839506172839,0,0,0.06172839506172839,151.41975308641975,0)" xlink:href="#an"/><use transform="matrix(0.06172839506172839,0,0,0.06172839506172839,162.53086419753086,0)" xlink:href="#ai"/><use transform="matrix(0.06172839506172839,0,0,0.06172839506172839,172.34567901234567,0)" xlink:href="#aq"/><use transform="matrix(0.06172839506172839,0,0,0.06172839506172839,183.45679012345678,0)" xlink:href="#ar"/><use transform="matrix(0.06172839506172839,0,0,0.06172839506172839,193.2716049382716,0)" xlink:href="#ag"/><use transform="matrix(0.06172839506172839,0,0,0.06172839506172839,200.61728395061726,0)" xlink:href="#ap"/><use transform="matrix(0.06172839506172839,0,0,0.06172839506172839,211.72839506172838,0)" xlink:href="#ap"/><use transform="matrix(0.06172839506172839,0,0,0.06172839506172839,222.8395061728395,0)" xlink:href="#as"/><use transform="matrix(0.06172839506172839,0,0,0.06172839506172839,229.01234567901233,0)" xlink:href="#at"/><use transform="matrix(0.06172839506172839,0,0,0.06172839506172839,238.82716049382714,0)" xlink:href="#aj"/><use transform="matrix(0.06172839506172839,0,0,0.06172839506172839,249.93827160493825,0)" xlink:href="#aj"/><use transform="matrix(0.06172839506172839,0,0,0.06172839506172839,261.04938271604937,0)" xlink:href="#ag"/><use transform="matrix(0.06172839506172839,0,0,0.06172839506172839,268.39506172839504,0)" xlink:href="#ai"/><use transform="matrix(0.06172839506172839,0,0,0.06172839506172839,278.2098765432099,0)" xlink:href="#au"/><use transform="matrix(0.06172839506172839,0,0,0.06172839506172839,286.85185185185185,0)" xlink:href="#au"/><use transform="matrix(0.06172839506172839,0,0,0.06172839506172839,295.4938271604938,0)" xlink:href="#av"/><use transform="matrix(0.06172839506172839,0,0,0.06172839506172839,308.0246913580247,0)" xlink:href="#aw"/></g><g id="j"><use transform="matrix(0.06172839506172839,0,0,0.06172839506172839,0,0)" xlink:href="#U"/><use transform="matrix(0.06172839506172839,0,0,0.06172839506172839,12.345679012345679,0)" xlink:href="#V"/><use transform="matrix(0.06172839506172839,0,0,0.06172839506172839,23.45679012345679,0)" xlink:href="#W"/><use transform="matrix(0.06172839506172839,0,0,0.06172839506172839,29.62962962962963,0)" xlink:href="#X"/><use transform="matrix(0.06172839506172839,0,0,0.06172839506172839,36.97530864197531,0)" xlink:href="#Y"/></g><path fill="#3a414a" d="M78-224c5-11 7-20 17-27-5-6-17-6-25-12-8 51-27 86-55 122 11-1 18-15 28-25 0 70 8 179-26 219l2 1C44 25 53 8 58-37h77c-2 19 6 53-6 62-9 0-20-1-35-4v4c18 6 28 13 35 25 8-2 22-16 22-30v-167c0-7 18-13 8-19-5-3-10-8-15-14l-12 12h-30c13-12 25-35 44-44-4-10-15-10-21-22-6 13-28 10-47 10zM59-46l1-52h29v52H59zm47-52h29v52h-29v-52zm-46-10v-51h29v51H60zm46-51h29v51h-29v-51zm-55-18c9-11 14-23 22-37h42c-5 16-11 31-18 46-19 1-37 0-46-9zm259-41c1-3 17-8 7-14-5-3-10-9-14-15l-13 11H170l6 10h43c-10 51-19 68-54 90l1 3c43-19 58-36 70-93h58c-3 57-4 63-55 55v4c18 4 29 13 38 23 33-14 23-19 33-74zM254-93c0-16-1-34 5-43-3-7-19-4-24-8 3 8 3 34 3 51h-37c7-9 7-26 19-31-4-5-16-7-23-13-2 37-19 63-28 91 9-8 20-25 28-37h41v48h-79l6 9h73l1 80c5-3 13-3 15-8v-72h73c9 1 9-9 1-11-8-5-14-10-19-16l-17 18h-38v-48h56c7 0 8-8 2-11-8-4-15-8-20-15l-16 16h-22" id="ax"/><use transform="matrix(0.06172839506172839,0,0,0.06172839506172839,0,0)" xlink:href="#ax" id="k"/><path fill="#3a414a" d="M144-108c-5-17-25-27-45-39v-27h55c8 0 10-10 1-11-8-5-14-9-18-15l-15 16H99c1-21-4-51 5-64-3-7-19-4-24-8 4 14 1 51 2 72H22l5 10h50C60-106 48-99 19-35c28-33 48-59 63-106l2 194c5-3 13-4 15-9v-185c14 15 17 19 26 41 2 5 6 8 10 8 6 0 9-8 9-16zm44-99c36-1 77-17 124-20 8 0 4-5 2-7-6-4-13-10-19-18-30 17-64 29-103 39l-24-12c11 101 7 222-58 271l1 3c58-39 74-93 77-182h68l2 188c5-2 14-2 14-8v-180h56c8 0 7-8 1-11-9-4-17-11-23-19l-19 21h-99v-65" id="ay"/><use transform="matrix(0.06172839506172839,0,0,0.06172839506172839,0,0)" xlink:href="#ay" id="l"/><use transform="matrix(0.06172839506172839,0,0,0.06172839506172839,0,0)" xlink:href="#ab" id="m"/><path fill="#3a414a" d="M133-191c16-5 12-25-4-35-11-7-31-24-55-29 29 22 34 24 50 56 2 5 5 8 9 8zm144-52c7 1 15-9 2-10-6-1-11-4-18-9-8 32-21 54-38 78H40l5 10h75l-1 82H26l6 10h86C107-7 86 10 21 49l2 2C99 15 127-1 136-82h85V53c4 5 16-2 18-7V-82h84c9 0 11-9 2-11-9-5-17-12-22-18l-17 19h-47v-82h71c7 0 11-8 2-11-8-5-15-10-20-16l-16 17h-45c16-13 31-33 46-59zM221-92h-84v-82h84v82" id="az"/><use transform="matrix(0.06172839506172839,0,0,0.06172839506172839,0,0)" xlink:href="#az" id="n"/><path fill="#3a414a" d="M52-170c11-16 19-42 32-57-3-7-13-3-21-10-7 29-19 57-36 79 0 1 3 5 9 8 10 4 11-6 17-10h86C115-77 78-29 18 20l3 2c54-35 80-62 109-119 12 43 28 64 52 88-39 30-62 37-131 60l1 3c69-14 109-29 141-53 27 23 60 38 99 49 11-9 25-14 42-14v-4c-56-9-93-22-127-44 20-19 43-46 66-81 2-5 22-5 13-16-4-2-9-9-15-20l-17 14H139c5-13 11-28 16-45h166c10 1 14-8 5-11-7-4-12-9-16-13l-16 14H158c6-20 11-43 16-69 1-6 19-10 4-14-6-2-12-5-19-9-4 33-9 64-17 92H52zm82 65h124c-23 39-41 62-63 84-29-22-46-49-61-84zm138-92c12-3 15-22 0-30-7-4-22-17-37-20 16 17 18 19 27 41 2 5 6 9 10 9" id="aA"/><use transform="matrix(0.06172839506172839,0,0,0.06172839506172839,0,0)" xlink:href="#aA" id="o"/><path fill="#3a414a" d="M185-192c14-4 11-23-1-33-8-8-20-18-37-29 11 23 22 26 29 54 2 5 5 8 9 8zM309-9c-15-37-49-47-98-75 2-4 4-8 5-13h108c7 1 11-9 2-11-8-5-15-10-20-16l-16 17h-72c3-17 5-39 5-66h83c9 1 9-7 2-11-8-4-15-10-20-16l-16 18h-43c16-13 31-32 44-54 7-4 22-9 5-15-6-3-13-6-19-10-9 35-19 51-38 79h-92l6 9h70c0 30-1 52-4 66h-86l6 10h78c-13 51-44 77-90 99l1 3c49-17 80-38 99-83 34 21 61 45 79 72 5 10 20 12 21-3zM74-182c7 15 21 7 20-9-9-20-33-28-62-41l-2 2c26 18 30 20 44 48zm15 92c0-11 20-13 6-22-4-3-9-6-13-12l-13 13H21l5 10h45V3C56 16 40 26 21 32c9 8 11 16 17 22 9-20 32-31 42-47 32 59 143 36 230 42 8-12 17-20 25-23v-4c-23 6-65 10-126 10-64 0-96 3-120-29v-93" id="aB"/><use transform="matrix(0.06172839506172839,0,0,0.06172839506172839,0,0)" xlink:href="#aB" id="p"/><path fill="#3a414a" d="M51-142c24-27 32-69 55-102-4-5-15-6-22-12-8 43-25 89-52 112 5 8 7 15 8 21 20-11 35-13 61-25-13 30-38 76-68 89 5 8 7 15 8 22 32-18 56-20 99-46l-1-5c-32 15-61 26-86 31 41-34 59-84 90-134-4-6-16-6-23-13-4 18-9 34-16 50-20 6-38 10-53 12zM29 14c6 3 12 37 21 22 25-24 56-32 96-70l-3-3C97-10 73 3 29 14zm185-270c-13 61-45 102-89 140l3 2c39-25 76-63 101-110 18 47 42 76 73 101 8-11 24-8 32-14-44-16-80-51-102-92 0-9 21-10 4-17-7-2-14-5-22-10zm48 111l-16 18h-80l6 9h108c8 1 9-7 2-11-8-4-15-10-20-16zm38 88c-1-9 24-13 7-21-5-3-10-6-15-12l-10 12H172l-19-10c7 41 1 92 3 138 11 8 20-6 17-22h110c1 5-3 15 3 15 4-2 12-4 14-7v-93zM173 18v-86h110v86H173" id="aC"/><use transform="matrix(0.06172839506172839,0,0,0.06172839506172839,0,0)" xlink:href="#aC" id="q"/><use transform="matrix(0.06172839506172839,0,0,0.06172839506172839,0,0)" xlink:href="#Z" id="r"/><path fill="#3a414a" d="M312-2c0-31-29-53-51-73 12-18 25-40 39-67 2-5 23-7 12-16-4-2-9-9-15-20l-17 10H163v-50h156c15-11-18-16-19-27l-18 18H163l-23-14c13 88 6 193-31 243l2 1c39-51 49-72 52-162h121c-13 31-25 56-36 74-19-16-42-32-69-49l-2 3c24 18 45 36 64 56-31 41-46 47-102 74l1 3c58-17 85-32 112-65 18 20 33 41 45 63 3 7 15 9 15-2zM88-173c15-4 11-27-3-37-10-8-24-18-45-29l-2 2c22 22 27 25 39 55 2 6 6 9 11 9zm6 76c-1-13 23-12 6-22-4-2-8-6-12-12l-14 16H21l5 10h50V2C60 15 41 23 21 29c9 8 11 16 17 22 1-1 2-3 2-7C57 31 72 19 84 6c33 55 139 33 225 38 8-12 17-19 25-22v-4C287 26 118 46 94 2v-99" id="aD"/><use transform="matrix(0.06172839506172839,0,0,0.06172839506172839,0,0)" xlink:href="#aD" id="s"/><path fill="#3a414a" d="M301-204c0-8 21-14 5-21-4-3-10-6-15-12l-11 11H62l-19-10c10 87 1 193 4 287 2 7 14-1 16-4V25h221c-4 16 5 29 17 15v-244zM63 15v-232h221V15H63zm169-151c0-8 21-13 5-20-5-3-9-6-14-12l-11 10c-35-2-79 6-100-9 11 40 2 98 5 146 10 7 20-8 16-24h83c1 5-2 14 2 15 5-2 13-2 14-7v-99zm-99 82v-94h83v94h-83" id="aE"/><use transform="matrix(0.06172839506172839,0,0,0.06172839506172839,0,0)" xlink:href="#aE" id="t"/><path fill="#3a414a" d="M90-239c59 0 76 52 76 120S152 4 89 4C31 4 14-51 14-119c0-67 17-120 76-120zM89-10c45-6 45-58 45-109 0-50 0-101-45-106-45 4-43 57-43 106 0 50-2 104 43 109" id="aF"/><path fill="#3a414a" d="M53-14c58 12 82-15 82-73 0-52-35-77-82-58v131zM89 4C64 4 42-2 24-9v-229l-24-4v-8h53l-1 94c48-33 114-4 114 69 0 57-23 91-77 91" id="aG"/><path fill="#3a414a" d="M110-14l48 5v9H32v-9l48-5v-192l-48 17v-10l69-39h9v224" id="aH"/><g id="u"><use transform="matrix(0.06172839506172839,0,0,0.06172839506172839,0,0)" xlink:href="#ad"/><use transform="matrix(0.06172839506172839,0,0,0.06172839506172839,22.22222222222222,0)" xlink:href="#ae"/><use transform="matrix(0.06172839506172839,0,0,0.06172839506172839,43.33333333333333,0)" xlink:href="#aF"/><use transform="matrix(0.06172839506172839,0,0,0.06172839506172839,54.44444444444444,0)" xlink:href="#aG"/><use transform="matrix(0.06172839506172839,0,0,0.06172839506172839,65.55555555555556,0)" xlink:href="#aF"/><use transform="matrix(0.06172839506172839,0,0,0.06172839506172839,76.66666666666667,0)" xlink:href="#aF"/><use transform="matrix(0.06172839506172839,0,0,0.06172839506172839,87.77777777777779,0)" xlink:href="#aF"/><use transform="matrix(0.06172839506172839,0,0,0.06172839506172839,98.8888888888889,0)" xlink:href="#aF"/><use transform="matrix(0.06172839506172839,0,0,0.06172839506172839,110.00000000000001,0)" xlink:href="#aF"/><use transform="matrix(0.06172839506172839,0,0,0.06172839506172839,121.11111111111113,0)" xlink:href="#aF"/><use transform="matrix(0.06172839506172839,0,0,0.06172839506172839,132.22222222222223,0)" xlink:href="#aF"/><use transform="matrix(0.06172839506172839,0,0,0.06172839506172839,143.33333333333334,0)" xlink:href="#aF"/><use transform="matrix(0.06172839506172839,0,0,0.06172839506172839,154.44444444444446,0)" xlink:href="#aF"/><use transform="matrix(0.06172839506172839,0,0,0.06172839506172839,165.55555555555557,0)" xlink:href="#aF"/><use transform="matrix(0.06172839506172839,0,0,0.06172839506172839,176.66666666666669,0)" xlink:href="#aF"/><use transform="matrix(0.06172839506172839,0,0,0.06172839506172839,187.7777777777778,0)" xlink:href="#aF"/><use transform="matrix(0.06172839506172839,0,0,0.06172839506172839,198.8888888888889,0)" xlink:href="#aF"/><use transform="matrix(0.06172839506172839,0,0,0.06172839506172839,210.00000000000003,0)" xlink:href="#aF"/><use transform="matrix(0.06172839506172839,0,0,0.06172839506172839,221.11111111111114,0)" xlink:href="#aH"/></g><use transform="matrix(0.06172839506172839,0,0,0.06172839506172839,0,0)" xlink:href="#ax" id="v"/><path fill="#3a414a" d="M141-112c1-7 19-14 4-21-4-3-10-6-15-12l-10 12c-17-1-38 2-51-2 7-20 14-48 21-82h57c9 0 9-8 1-10-8-5-14-11-19-17l-17 18H21l5 9h43C55-133 49-105 18-50l3 2c16-20 29-41 38-62V36c1 8 11 1 14 1 7-5 1-18 3-27h49c1 5-2 14 3 14 4-2 11-3 13-7v-129zM76 0v-123h49V0H76zm212-222c3-5 21-11 5-18-5-3-9-6-14-12l-13 11H158l5 9h109l-8 124h-85c11-32 5-74 20-99-5-4-18-5-26-10 2 42-2 87-15 119-1 2 10 7 12 8 4 1 6-7 9-8h130c-9 71-6 98-25 128-13 6-19 2-41-1v3c15 5 23 12 29 22 20 0 33-14 38-33 6-20 11-57 14-109 0-9 18-11 5-19-4-2-8-6-13-12-6 10-18 13-35 11zM261-64l-18 19h-96l6 10h127c9 1 11-9 2-11-9-5-16-12-21-18" id="aI"/><use transform="matrix(0.06172839506172839,0,0,0.06172839506172839,0,0)" xlink:href="#aI" id="w"/><path fill="#3a414a" d="M120-121c-3-15-20-24-35-34v-27c15-3 42 6 47-6-5-6-18-11-21-18-7 6-10 17-26 14 1-21-4-50 6-62-3-7-20-4-25-8 4 13 3 49 3 70H18l5 10h42C54-125 41-87 18-52l1 3c22-20 38-53 50-87l1 190c5-3 14-2 15-8v-194c13 10 10 32 26 41 6 0 10-5 9-14zm77-96c0-14-1-30 5-37-3-7-20-4-25-8 3 7 3 29 3 45h-56l5 10h51c1 10-2 22 1 30 5-3 14-2 16-8v-22h50c1 9-3 24 2 30 14-1 17-13 15-30h59c10 1 10-9 2-11-9-5-15-11-20-18l-17 19h-24c0-14-1-30 5-37-3-7-20-4-25-8 3 7 3 29 3 45h-50zm101 73c0-8 25-13 8-21-4-3-10-6-15-12l-11 10H161l-20-10c12 31-1 84 7 120 12-1 16-10 14-25h48c-1 13-2 24-3 34H104l6 10h95c-9 52-43 76-94 88l1 4c64-7 97-32 109-90 7 31 56 79 76 89 10-10 26-9 34-15-54-16-76-31-106-76h98c9 0 11-9 2-11-9-5-15-12-20-18l-17 19h-65c1-10 2-21 3-34h56c-3 12 5 12 13 7 8-16 3-47 3-69zM162-92v-29h120v29H162zm0-38v-28h120v28H162" id="aJ"/><use transform="matrix(0.06172839506172839,0,0,0.06172839506172839,0,0)" xlink:href="#aJ" id="x"/><path fill="#3a414a" d="M12-35c6 3 13 36 21 22 30-15 65-20 113-43l-3-3c-21 5-39 10-55 13v-103h49c8 1 10-9 2-11-7-4-13-9-17-14-8 9-14 18-34 15 2-31-5-73 7-92l-26-8c5 28 1 68 2 100H17l5 10h49v106zm276-58c3-32-8-83 9-98-2-8-14-9-18-19l-14 14h-48c0-20-2-46 6-55l-29-8c3 3 4 23 5 63h-64l5 10h59c0 33-2 70-5 93h-83l6 10h75c-18 72-40 97-97 134l1 3c60-23 98-65 114-137h118c7 1 11-9 2-11-8-5-15-11-20-17-8 6-9 18-22 18zm-71-93h54v93h-59c3-21 5-60 5-93zm14 136l-2 4c36 27 64 58 83 93 4 8 18 11 18-3-14-45-49-59-99-94" id="aK"/><use transform="matrix(0.06172839506172839,0,0,0.06172839506172839,0,0)" xlink:href="#aK" id="y"/><path fill="#3a414a" d="M130-224c-62 0-78 43-78 106 0 64 16 108 78 108s78-45 78-108-16-106-78-106zm0 228C53 4 15-39 15-118c-1-80 37-120 115-120s115 42 115 120C245-39 207 4 130 4" id="aL"/><path fill="#3a414a" d="M50-37c14 0 21 9 21 21S62 5 50 5C37 5 28-4 28-16s8-21 22-21zm0-132c12 0 21 9 21 21 0 13-9 22-21 22-13 0-22-9-22-22 0-12 9-21 22-21" id="aM"/><g id="z"><use transform="matrix(0.06172839506172839,0,0,0.06172839506172839,0,0)" xlink:href="#W"/><use transform="matrix(0.06172839506172839,0,0,0.06172839506172839,6.172839506172839,0)" xlink:href="#au"/><use transform="matrix(0.06172839506172839,0,0,0.06172839506172839,14.814814814814813,0)" xlink:href="#aL"/><use transform="matrix(0.06172839506172839,0,0,0.06172839506172839,30.80246913580247,0)" xlink:href="#an"/><use transform="matrix(0.06172839506172839,0,0,0.06172839506172839,41.91358024691358,0)" xlink:href="#ai"/><use transform="matrix(0.06172839506172839,0,0,0.06172839506172839,51.7283950617284,0)" xlink:href="#aq"/><use transform="matrix(0.06172839506172839,0,0,0.06172839506172839,62.839506172839506,0)" xlink:href="#aM"/><use transform="matrix(0.06172839506172839,0,0,0.06172839506172839,69.01234567901234,0)" xlink:href="#as"/><use transform="matrix(0.06172839506172839,0,0,0.06172839506172839,75.18518518518518,0)" xlink:href="#ag"/><use transform="matrix(0.06172839506172839,0,0,0.06172839506172839,82.53086419753086,0)" xlink:href="#Y"/><use transform="matrix(0.06172839506172839,0,0,0.06172839506172839,93.64197530864197,0)" xlink:href="#ai"/></g><path fill="#3a414a" d="M165-158c-1-9 21-13 5-20-5-3-10-7-15-13-6 10-18 13-35 11v-52h52c9 1 9-8 2-10-7-4-14-9-18-14l-15 15H21l5 9h43v52c-19 2-32-2-43-9 10 72 1 161 4 240 9 7 21-3 17-19h101c1 6-3 17 3 18 4-2 12-3 14-7v-201zM47 22v-45h101v45H47zm57-192c5 32-14 90 18 93h26v44H47v-17c32-30 36-61 37-120h20zm44 80c-11-2-28 7-28-10v-70h28v80zm-44-90H84v-52h20v52zM47-60v-110h22c-1 51-3 80-22 110zm268-151c0-7 17-12 5-19-5-4-10-8-14-13l-14 11H188l6 10h104v96c-38-2-88 7-110-11 9 42 1 90 4 137 3 44 1 43 47 43 33 0 79 10 92-14-13-5-7-37-12-53-7 24-3 58-41 52-32-5-69 16-69-28v-116h89c1 6-3 17 3 18 4-3 12-2 14-7v-106" id="aN"/><use transform="matrix(0.055555555555555546,0,0,0.055555555555555546,0,0)" xlink:href="#aN" id="A"/><path fill="#3a414a" d="M298-225c0-8 21-13 5-20-5-2-10-7-15-13l-11 10H63l-19-10c10 22-2 61 7 84 7-3 17-3 14-15h217c-3 12 5 12 13 7 8-8 3-29 3-43zM65-199v-40h60v40H65zm76 0v-40h64v40h-64zm80 0v-40h61v40h-61zm44 110c-1-8 25-13 8-20-5-3-10-7-15-13-17 14-58 4-87 7l12-30h120c8 0 8-9 0-11-6-4-11-10-16-17l-15 18h-85c0-10 19-18 8-23-5-1-11-4-18-7-1 8-4 17-8 30H37l6 10h123l-13 30c-26 0-53 2-67-9 11 40 2 96 5 144 4 4 18-1 16-10h142c-3 12 5 10 13 6 2-1 3-2 3-3V-89zM107 0v-28h142V0H107zm0-38v-27h142v27H107zm0-37v-30h142v30H107zm-47 0c-1-9 14-15 2-20-9-1-17-3-22-5 8 45-1 106 4 154 6-4 18-1 16-13h252c7 1 6-7 2-10-8-3-15-9-20-16l-17 17H60V-75" id="aO"/><use transform="matrix(0.055555555555555546,0,0,0.055555555555555546,0,0)" xlink:href="#aO" id="B"/><path fill="#3a414a" d="M183-191c1-19-4-45 6-54-3-7-18-4-26-9 5 17 2 42 3 63H25l5 10h75c15 71 28 108 60 148C138-6 76 32 19 49l3 4c62-18 112-41 152-75 28 32 64 57 106 73 10-8 24-12 39-12v-4c-59-12-99-36-132-69 27-30 48-73 72-147h64c8-1 6-10-2-12-6-4-12-10-20-19l-19 21h-99zm-73 10h129c-17 61-38 106-63 136-34-37-53-79-66-136" id="aP"/><use transform="matrix(0.055555555555555546,0,0,0.055555555555555546,0,0)" xlink:href="#aP" id="C"/><path fill="#3a414a" d="M81-153c4-8 8-14-5-17 10-19 20-41 30-66 3-3 19-6 5-12-6-3-12-7-19-14-16 70-41 120-74 168l3 2c14-15 28-33 42-55V51c1 9 10 0 15 0 2-1 3-2 3-4v-200zm77-20c9-11 9-32 22-41 6-2 5-6-2-9-6-2-13-5-20-10-10 54-26 93-55 126l3 3c20-18 33-37 47-59h59v86H102l5 10h105l1 122c5-3 14-3 16-9V-67h98c10 0 10-7 2-11-9-4-16-12-21-18l-18 19h-61v-86h86c7 0 6-8 1-11-9-4-16-10-22-18l-18 19h-47c2-26-6-62 7-75-5-7-23-4-29-8 7 15 5 57 5 83h-54" id="aQ"/><use transform="matrix(0.055555555555555546,0,0,0.055555555555555546,0,0)" xlink:href="#aQ" id="D"/><g id="E"><use transform="matrix(0.055555555555555546,0,0,0.055555555555555546,0,0)" xlink:href="#ad"/><use transform="matrix(0.055555555555555546,0,0,0.055555555555555546,19.999999999999996,0)" xlink:href="#ae"/></g><g id="F"><use transform="matrix(0.055555555555555546,0,0,0.055555555555555546,0,0)" xlink:href="#W"/><use transform="matrix(0.055555555555555546,0,0,0.055555555555555546,5.5555555555555545,0)" xlink:href="#aq"/><use transform="matrix(0.055555555555555546,0,0,0.055555555555555546,15.555555555555554,0)" xlink:href="#au"/><use transform="matrix(0.055555555555555546,0,0,0.055555555555555546,23.33333333333333,0)" xlink:href="#as"/><use transform="matrix(0.055555555555555546,0,0,0.055555555555555546,28.888888888888882,0)" xlink:href="#ag"/><use transform="matrix(0.055555555555555546,0,0,0.055555555555555546,35.49999999999999,0)" xlink:href="#Y"/><use transform="matrix(0.055555555555555546,0,0,0.055555555555555546,45.49999999999999,0)" xlink:href="#af"/><use transform="matrix(0.055555555555555546,0,0,0.055555555555555546,54.33333333333333,0)" xlink:href="#as"/><use transform="matrix(0.055555555555555546,0,0,0.055555555555555546,59.88888888888889,0)" xlink:href="#W"/><use transform="matrix(0.055555555555555546,0,0,0.055555555555555546,65.44444444444444,0)" xlink:href="#ap"/><use transform="matrix(0.055555555555555546,0,0,0.055555555555555546,75.44444444444444,0)" xlink:href="#aq"/><use transform="matrix(0.055555555555555546,0,0,0.055555555555555546,85.44444444444444,0)" xlink:href="#aM"/><use transform="matrix(0.055555555555555546,0,0,0.055555555555555546,91,0)" xlink:href="#ap"/><use transform="matrix(0.055555555555555546,0,0,0.055555555555555546,101,0)" xlink:href="#an"/><use transform="matrix(0.055555555555555546,0,0,0.055555555555555546,111,0)" xlink:href="#ai"/><use transform="matrix(0.055555555555555546,0,0,0.055555555555555546,119.83333333333334,0)" xlink:href="#aq"/></g><path fill="#3a414a" d="M152 0h-7L59-203v189l32 5v9H10v-9l31-5v-208l-31-4v-10h72l76 180 84-180h68v10l-31 4v208l31 5v9h-96v-9l32-5v-189" id="aR"/><path fill="#3a414a" d="M55 0v-9l38-5v-207c-22 1-53 0-70 4l-5 37H7v-56h207v56h-12l-5-37-70-3v206l37 5v9H55" id="aS"/><path fill="#3a414a" d="M161-154L85 37C75 66 49 86 8 75V39c18-2 6 24 29 21 30-4 38-32 47-58L21-153c-7-3-20 0-17-12h77v8l-26 4 45 116 43-116-26-4v-8h62v8" id="aT"/><g id="G"><use transform="matrix(0.055555555555555546,0,0,0.055555555555555546,0,0)" xlink:href="#ag"/><use transform="matrix(0.055555555555555546,0,0,0.055555555555555546,6.61111111111111,0)" xlink:href="#ai"/><use transform="matrix(0.055555555555555546,0,0,0.055555555555555546,15.444444444444441,0)" xlink:href="#au"/><use transform="matrix(0.055555555555555546,0,0,0.055555555555555546,23.22222222222222,0)" xlink:href="#an"/><use transform="matrix(0.055555555555555546,0,0,0.055555555555555546,33.22222222222222,0)" xlink:href="#ap"/><use transform="matrix(0.055555555555555546,0,0,0.055555555555555546,43.22222222222222,0)" xlink:href="#aq"/><use transform="matrix(0.055555555555555546,0,0,0.055555555555555546,53.22222222222222,0)" xlink:href="#au"/><use transform="matrix(0.055555555555555546,0,0,0.055555555555555546,61,0)" xlink:href="#ai"/><use transform="matrix(0.055555555555555546,0,0,0.055555555555555546,69.83333333333333,0)" xlink:href="#aR"/><use transform="matrix(0.055555555555555546,0,0,0.055555555555555546,87.6111111111111,0)" xlink:href="#au"/><use transform="matrix(0.055555555555555546,0,0,0.055555555555555546,95.38888888888887,0)" xlink:href="#ak"/><use transform="matrix(0.055555555555555546,0,0,0.055555555555555546,105.38888888888887,0)" xlink:href="#aS"/><use transform="matrix(0.055555555555555546,0,0,0.055555555555555546,116.16666666666664,0)" xlink:href="#aT"/><use transform="matrix(0.055555555555555546,0,0,0.055555555555555546,126.16666666666667,0)" xlink:href="#an"/><use transform="matrix(0.055555555555555546,0,0,0.055555555555555546,136.16666666666666,0)" xlink:href="#ai"/><use transform="matrix(0.055555555555555546,0,0,0.055555555555555546,145,0)" xlink:href="#aM"/><use transform="matrix(0.055555555555555546,0,0,0.055555555555555546,150.55555555555554,0)" xlink:href="#aG"/><use transform="matrix(0.055555555555555546,0,0,0.055555555555555546,160.55555555555554,0)" xlink:href="#W"/><use transform="matrix(0.055555555555555546,0,0,0.055555555555555546,166.1111111111111,0)" xlink:href="#aq"/><use transform="matrix(0.055555555555555546,0,0,0.055555555555555546,176.1111111111111,0)" xlink:href="#at"/><use transform="matrix(0.055555555555555546,0,0,0.055555555555555546,184.94444444444443,0)" xlink:href="#ag"/><use transform="matrix(0.055555555555555546,0,0,0.055555555555555546,191.55555555555554,0)" xlink:href="#aT"/></g><g id="H"><use transform="matrix(0.055555555555555546,0,0,0.055555555555555546,0,0)" xlink:href="#ai"/><use transform="matrix(0.055555555555555546,0,0,0.055555555555555546,8.833333333333332,0)" xlink:href="#aq"/><use transform="matrix(0.055555555555555546,0,0,0.055555555555555546,18.83333333333333,0)" xlink:href="#aj"/><use transform="matrix(0.055555555555555546,0,0,0.055555555555555546,28.83333333333333,0)" xlink:href="#W"/><use transform="matrix(0.055555555555555546,0,0,0.055555555555555546,34.388888888888886,0)" xlink:href="#at"/><use transform="matrix(0.055555555555555546,0,0,0.055555555555555546,43.222222222222214,0)" xlink:href="#aq"/><use transform="matrix(0.055555555555555546,0,0,0.055555555555555546,53.222222222222214,0)" xlink:href="#aM"/><use transform="matrix(0.055555555555555546,0,0,0.055555555555555546,58.777777777777764,0)" xlink:href="#ah"/><use transform="matrix(0.055555555555555546,0,0,0.055555555555555546,64.33333333333333,0)" xlink:href="#W"/><use transform="matrix(0.055555555555555546,0,0,0.055555555555555546,69.88888888888889,0)" xlink:href="#as"/><use transform="matrix(0.055555555555555546,0,0,0.055555555555555546,75.44444444444444,0)" xlink:href="#as"/><use transform="matrix(0.055555555555555546,0,0,0.055555555555555546,81,0)" xlink:href="#ah"/><use transform="matrix(0.055555555555555546,0,0,0.055555555555555546,86.55555555555556,0)" xlink:href="#ai"/></g><g id="I"><use transform="matrix(0.055555555555555546,0,0,0.055555555555555546,0,0)" xlink:href="#X"/><use transform="matrix(0.055555555555555546,0,0,0.055555555555555546,6.61111111111111,0)" xlink:href="#W"/><use transform="matrix(0.055555555555555546,0,0,0.055555555555555546,12.166666666666664,0)" xlink:href="#ai"/><use transform="matrix(0.055555555555555546,0,0,0.055555555555555546,20.999999999999996,0)" xlink:href="#ah"/><use transform="matrix(0.055555555555555546,0,0,0.055555555555555546,26.55555555555555,0)" xlink:href="#aj"/><use transform="matrix(0.055555555555555546,0,0,0.055555555555555546,36.55555555555555,0)" xlink:href="#au"/><use transform="matrix(0.055555555555555546,0,0,0.055555555555555546,44.33333333333333,0)" xlink:href="#aM"/></g><use transform="matrix(0.055555555555555546,0,0,0.055555555555555546,0,0)" xlink:href="#am" id="K"/><g id="L"><use transform="matrix(0.055555555555555546,0,0,0.055555555555555546,0,0)" xlink:href="#X"/><use transform="matrix(0.055555555555555546,0,0,0.055555555555555546,6.61111111111111,0)" xlink:href="#W"/><use transform="matrix(0.055555555555555546,0,0,0.055555555555555546,12.166666666666664,0)" xlink:href="#ai"/><use transform="matrix(0.055555555555555546,0,0,0.055555555555555546,20.999999999999996,0)" xlink:href="#ah"/><use transform="matrix(0.055555555555555546,0,0,0.055555555555555546,26.55555555555555,0)" xlink:href="#aj"/><use transform="matrix(0.055555555555555546,0,0,0.055555555555555546,36.55555555555555,0)" xlink:href="#aM"/></g><g id="M"><use transform="matrix(0.055555555555555546,0,0,0.055555555555555546,0,0)" xlink:href="#W"/><use transform="matrix(0.055555555555555546,0,0,0.055555555555555546,5.5555555555555545,0)" xlink:href="#au"/><use transform="matrix(0.055555555555555546,0,0,0.055555555555555546,13.333333333333332,0)" xlink:href="#aL"/><use transform="matrix(0.055555555555555546,0,0,0.055555555555555546,27.722222222222218,0)" xlink:href="#an"/><use transform="matrix(0.055555555555555546,0,0,0.055555555555555546,37.722222222222214,0)" xlink:href="#ai"/><use transform="matrix(0.055555555555555546,0,0,0.055555555555555546,46.55555555555554,0)" xlink:href="#aq"/></g><g id="N"><use transform="matrix(0.055555555555555546,0,0,0.055555555555555546,0,0)" xlink:href="#aG"/><use transform="matrix(0.055555555555555546,0,0,0.055555555555555546,9.999999999999998,0)" xlink:href="#W"/><use transform="matrix(0.055555555555555546,0,0,0.055555555555555546,15.555555555555554,0)" xlink:href="#as"/><use transform="matrix(0.055555555555555546,0,0,0.055555555555555546,21.111111111111107,0)" xlink:href="#au"/><use transform="matrix(0.055555555555555546,0,0,0.055555555555555546,28.888888888888882,0)" xlink:href="#aM"/></g><g id="O"><use transform="matrix(0.055555555555555546,0,0,0.055555555555555546,0,0)" xlink:href="#aF"/><use transform="matrix(0.055555555555555546,0,0,0.055555555555555546,9.999999999999998,0)" xlink:href="#am"/><use transform="matrix(0.055555555555555546,0,0,0.055555555555555546,16.611111111111107,0)" xlink:href="#aH"/></g><g id="P"><use transform="matrix(0.055555555555555546,0,0,0.055555555555555546,0,0)" xlink:href="#as"/><use transform="matrix(0.055555555555555546,0,0,0.055555555555555546,5.5555555555555545,0)" xlink:href="#aT"/><use transform="matrix(0.055555555555555546,0,0,0.055555555555555546,15.555555555555554,0)" xlink:href="#an"/><use transform="matrix(0.055555555555555546,0,0,0.055555555555555546,25.55555555555555,0)" xlink:href="#ai"/><use transform="matrix(0.055555555555555546,0,0,0.055555555555555546,34.388888888888886,0)" xlink:href="#aM"/></g><g id="Q"><use transform="matrix(0.055555555555555546,0,0,0.055555555555555546,0,0)" xlink:href="#aG"/><use transform="matrix(0.055555555555555546,0,0,0.055555555555555546,9.999999999999998,0)" xlink:href="#ap"/><use transform="matrix(0.055555555555555546,0,0,0.055555555555555546,19.999999999999996,0)" xlink:href="#ap"/><use transform="matrix(0.055555555555555546,0,0,0.055555555555555546,29.999999999999993,0)" xlink:href="#ah"/></g></defs></g></svg>