<svg width="1280" height="720" xmlns="http://www.w3.org/2000/svg" xmlns:xlink="http://www.w3.org/1999/xlink" overflow="hidden"><defs><clipPath id="clip0"><rect x="0" y="0" width="1280" height="720"/></clipPath></defs><g clip-path="url(#clip0)"><rect x="0" y="0" width="1280" height="720" fill="#FFFFFF"/><path d="M118.5 374C118.5 352.185 150.288 334.5 189.5 334.5 228.712 334.5 260.5 352.185 260.5 374 260.5 395.815 228.712 413.5 189.5 413.5 150.288 413.5 118.5 395.815 118.5 374Z" stroke="#2F528F" stroke-width="1.33333" stroke-miterlimit="8" fill="#4472C4" fill-rule="evenodd"/><text fill="#FFFFFF" font-family="Calibri,Calibri_MSFontService,sans-serif" font-weight="400" font-size="19" transform="translate(170.711 368)">shifu<tspan font-size="19" x="-18.52" y="23">controller</tspan></text><path d="M546.5 374C546.5 352.185 578.288 334.5 617.5 334.5 656.712 334.5 688.5 352.185 688.5 374 688.5 395.815 656.712 413.5 617.5 413.5 578.288 413.5 546.5 395.815 546.5 374Z" stroke="#AE5A21" stroke-width="1.33333" stroke-miterlimit="8" fill="#ED7D31" fill-rule="evenodd"/><text fill="#FFFFFF" font-family="Calibri,Calibri_MSFontService,sans-serif" font-weight="400" font-size="19" transform="translate(593.978 379)">shifud</text><path d="M9.08365e-07-2 221.156-1.9999 221.156 2.0001-9.08365e-07 2ZM219.156-5.9999 231.156 0.000104987 219.156 6.0001Z" fill="#4472C4" transform="matrix(1 0 0 -1 282 373)"/><path d="M8.39834e-07-2 240.018-1.9999 240.018 2.0001-8.39834e-07 2ZM238.018-5.9999 250.018 0.000104987 238.018 6.0001Z" fill="#ED7D31" transform="matrix(1 0 0 -1 706 373)"/><rect x="328.5" y="314.5" width="151" height="39" stroke="#4472C4" stroke-width="1.33333" stroke-miterlimit="8" fill="#FFFFFF"/><text font-family="Calibri,Calibri_MSFontService,sans-serif" font-weight="400" font-size="24" transform="translate(337.6 341)">deviceList</text><rect x="765" y="292" width="151" height="68" stroke="#ED7D31" stroke-width="2" stroke-miterlimit="8" fill="#FFFFFF"/><text font-family="Calibri,Calibri_MSFontService,sans-serif" font-weight="400" font-size="24" transform="translate(774.591 318)">deviceShifu<tspan font-size="24" x="0" y="29">deploy </tspan><tspan font-size="24" x="71.7067" y="29">yaml</tspan><tspan font-family="Calibri Light,Calibri Light_MSFontService,sans-serif" font-weight="300" font-size="59" x="-676.991" y="-194">High</tspan><tspan font-family="Calibri Light,Calibri Light_MSFontService,sans-serif" font-weight="300" font-size="59" x="-569.657" y="-194">-</tspan><tspan font-family="Calibri Light,Calibri Light_MSFontService,sans-serif" font-weight="300" font-size="59" x="-551.657" y="-194">level overview</tspan></text><path d="M983.5 374.5C983.5 348.543 1022.23 327.5 1070 327.5 1117.77 327.5 1156.5 348.543 1156.5 374.5 1156.5 400.457 1117.77 421.5 1070 421.5 1022.23 421.5 983.5 400.457 983.5 374.5Z" stroke="#507E32" stroke-width="1.33333" stroke-miterlimit="8" fill="#70AD47" fill-rule="evenodd"/><text fill="#FFFFFF" font-family="Calibri,Calibri_MSFontService,sans-serif" font-weight="400" font-size="19" transform="translate(1026.1 368)">Kubernetes <tspan font-size="19" x="8.04004" y="23">apiserver</tspan></text></g></svg>