<svg width="1280" height="720" xmlns="http://www.w3.org/2000/svg" xmlns:xlink="http://www.w3.org/1999/xlink" overflow="hidden"><defs><clipPath id="clip0"><rect x="0" y="0" width="1280" height="720"/></clipPath></defs><g clip-path="url(#clip0)"><rect x="0" y="0" width="1280" height="720" fill="#FFFFFF"/><path d="M61.5001 360.5C61.5001 172.723 320.727 20.5001 640.5 20.5001 960.273 20.5001 1219.5 172.723 1219.5 360.5 1219.5 548.277 960.273 700.5 640.5 700.5 320.727 700.5 61.5001 548.277 61.5001 360.5Z" stroke="#BC8C00" stroke-width="1.33333" stroke-miterlimit="8" fill="none" fill-rule="evenodd"/><path d="M98.5001 284.334C98.5001 267.857 111.857 254.5 128.334 254.5L425.666 254.5C442.143 254.5 455.5 267.857 455.5 284.334L455.5 403.666C455.5 420.143 442.143 433.5 425.666 433.5L128.334 433.5C111.857 433.5 98.5001 420.143 98.5001 403.666Z" stroke="#ED7D31" stroke-width="1.33333" stroke-miterlimit="8" fill="#FFFFFF" fill-rule="evenodd"/><text fill="#ED7D31" font-family="Calibri,Calibri_MSFontService,sans-serif" font-weight="400" font-size="15" transform="translate(115.909 305)">USB/IP address YAML/txt file:<tspan font-size="15" x="0" y="17">#deviceName, connection, address, type, brand, </tspan><tspan font-size="15" x="0" y="35">protocol</tspan><tspan font-size="15" x="0" y="53">deviceA</tspan><tspan font-size="15" x="47" y="53">, USB, /</tspan><tspan font-size="15" x="90.6667" y="53">tty</tspan><tspan font-size="15" x="107" y="53">/USB1, </tspan>t_sensor, Xiaomi, MQTT<tspan font-size="15" x="0" y="70">deviceB</tspan><tspan font-size="15" x="46.5" y="70">, IP, 10.0.0.1, </tspan>IP_camera, Yunmi, ONVIF<tspan font-size="15" x="0" y="88">……</tspan></text><path d="M154.5 501.667C154.5 494.947 159.947 489.5 166.667 489.5L361.333 489.5C368.053 489.5 373.5 494.947 373.5 501.667L373.5 550.333C373.5 557.053 368.053 562.5 361.333 562.5L166.667 562.5C159.947 562.5 154.5 557.053 154.5 550.333Z" stroke="#AE5A21" stroke-width="1.33333" stroke-miterlimit="8" fill="#ED7D31" fill-rule="evenodd"/><text fill="#FFFFFF" font-family="Calibri,Calibri_MSFontService,sans-serif" font-weight="400" font-size="24" transform="translate(180.371 533)">deviceDiscoverer</text><path d="M410.5 485C410.5 474.783 418.783 466.5 429 466.5L503 466.5C513.217 466.5 521.5 474.783 521.5 485L521.5 567C521.5 577.217 513.217 585.5 503 585.5L429 585.5C418.783 585.5 410.5 577.217 410.5 567Z" stroke="#ED7D31" stroke-width="1.33333" stroke-miterlimit="8" fill="#FFFFFF" fill-rule="evenodd"/><text fill="#ED7D31" font-family="Calibri,Calibri_MSFontService,sans-serif" font-weight="400" font-size="24" transform="translate(432.971 519)">Device <tspan font-size="24" x="3.85999" y="29">found</tspan></text><path d="M155.438 125.61 271.054 245.299 268.177 248.078 152.562 128.39ZM272.541 241.081 276.563 253.881 263.91 249.418Z" fill="#4472C4"/><path d="M12.5001 127C12.5001 105.185 44.2878 87.5001 83.5 87.5001 122.712 87.5001 154.5 105.185 154.5 127 154.5 148.815 122.712 166.5 83.5 166.5 44.2878 166.5 12.5001 148.815 12.5001 127Z" stroke="#2F528F" stroke-width="1.33333" stroke-miterlimit="8" fill="#4472C4" fill-rule="evenodd"/><text fill="#FFFFFF" font-family="Calibri,Calibri_MSFontService,sans-serif" font-weight="400" font-size="19" transform="translate(64.1423 122)">shifu<tspan font-size="19" x="-18.52" y="23">controller</tspan></text><path d="M1.95029-0.443131 12.3706 45.4185 8.47006 46.3048-1.95029 0.443131ZM15.8281 42.582 12.636 55.6131 4.12635 45.2408Z" fill="#ED7D31" transform="matrix(-1 0 0 1 275.636 433)"/><path d="M5.72179e-06-2 26.6972-1.99992 26.6972 2.00008-5.72179e-06 2ZM24.6972-5.99993 36.6972 0.000104987 24.6972 6.00007Z" fill="#ED7D31" transform="matrix(1 0 0 -1 373 526)"/><path d="M0.795191-1.83512 222.8 94.3635 221.21 98.0338-0.795191 1.83512ZM222.555 89.8981 231.18 100.175 217.784 100.909Z" fill="#ED7D31" transform="matrix(1 0 0 -1 825 166.175)"/><path d="M593.5 489C593.5 478.783 601.783 470.5 612 470.5L782 470.5C792.217 470.5 800.5 478.783 800.5 489L800.5 563C800.5 573.217 792.217 581.5 782 581.5L612 581.5C601.783 581.5 593.5 573.217 593.5 563Z" stroke="#AE5A21" stroke-width="1.33333" stroke-miterlimit="8" fill="#ED7D31" fill-rule="evenodd"/><text fill="#FFFFFF" font-family="Calibri,Calibri_MSFontService,sans-serif" font-weight="400" font-size="24" transform="translate(629.584 533)">deviceVerifier</text><path d="M521 524 583.183 524 583.183 528 521 528ZM581.183 520 593.183 526 581.183 532Z" fill="#ED7D31"/><path d="M875.5 286.834C875.5 276.708 883.708 268.5 893.834 268.5L1105.17 268.5C1115.29 268.5 1123.5 276.708 1123.5 286.834L1123.5 360.166C1123.5 370.292 1115.29 378.5 1105.17 378.5L893.834 378.5C883.708 378.5 875.5 370.292 875.5 360.166Z" stroke="#AE5A21" stroke-width="1.33333" stroke-miterlimit="8" fill="#ED7D31" fill-rule="evenodd"/><text fill="#FFFFFF" font-family="Calibri,Calibri_MSFontService,sans-serif" font-weight="400" font-size="24" transform="translate(893.512 331)">deviceShifuGenerator</text><path d="M1.68908-1.07098 52.1285 78.4787 48.7503 80.6206-1.68908 1.07098ZM54.4357 74.6476 55.7943 87.9951 44.3012 81.0735Z" fill="#ED7D31" transform="matrix(1 0 0 -1 944 465.995)"/><path d="M468.5 81.8341C468.5 58.4537 487.454 39.5001 510.834 39.5001L783.166 39.5001C806.546 39.5001 825.5 58.4537 825.5 81.8341L825.5 251.166C825.5 274.546 806.546 293.5 783.166 293.5L510.834 293.5C487.454 293.5 468.5 274.546 468.5 251.166Z" stroke="#ED7D31" stroke-width="1.33333" stroke-miterlimit="8" fill="#FFFFFF" fill-rule="evenodd"/><text fill="#ED7D31" font-family="Calibri,Calibri_MSFontService,sans-serif" font-weight="400" font-size="14" transform="translate(490.25 61)">Spawn request to controller:<tspan font-size="14" x="0" y="17">“</tspan><tspan font-size="14" x="0" y="34">apiVersion</tspan><tspan font-size="14" x="60.3333" y="34">: v1</tspan><tspan font-size="14" x="0" y="51">kind: </tspan><tspan font-size="14" x="31" y="51">deviceShifu</tspan><tspan font-size="14" x="0" y="67">metadata:</tspan><tspan font-size="14" x="12.6667" y="84">name: </tspan><tspan font-size="14" x="51.6667" y="84">shifu</tspan><tspan font-size="14" x="79.3333" y="84">-</tspan><tspan font-size="14" x="83.6667" y="84">deviceA</tspan><tspan font-size="14" x="12.6667" y="101">labels:</tspan><tspan font-size="14" x="25.3333" y="118">connection: USB</tspan><tspan font-size="14" x="25.3333" y="135">location: /</tspan><tspan font-size="14" x="83.1667" y="135">tty</tspan><tspan font-size="14" x="98.8333" y="135">/USB1</tspan><tspan font-size="14" x="0" y="151">spec:</tspan><tspan font-size="14" x="12.6667" y="168">containers:</tspan><tspan font-size="14" x="25.3333" y="185">-</tspan><tspan font-size="14" x="36" y="185">name: </tspan>shifu<tspan font-size="14" x="102.667" y="185">-</tspan><tspan font-size="14" x="107" y="185">deviceA</tspan><tspan font-size="14" x="34.8333" y="202">image: </tspan>shifu<tspan font-size="14" x="104" y="202">-</tspan><tspan font-size="14" x="108.333" y="202">tsensor</tspan><tspan font-size="14" x="0" y="219">”</tspan></text><path d="M875.435 324.568 656.661 296.266 657.174 292.299 875.948 320.601ZM658.131 300.49 647 293 659.671 288.589Z" fill="#ED7D31"/><path d="M1057.5 66.5001C1057.5 40.5427 1096 19.5001 1143.5 19.5001 1191 19.5001 1229.5 40.5427 1229.5 66.5001 1229.5 92.4574 1191 113.5 1143.5 113.5 1096 113.5 1057.5 92.4574 1057.5 66.5001Z" stroke="#507E32" stroke-width="1.33333" stroke-miterlimit="8" fill="#70AD47" fill-rule="evenodd"/><text fill="#FFFFFF" font-family="Calibri,Calibri_MSFontService,sans-serif" font-weight="400" font-size="19" transform="translate(1099.2 60)">Kubernetes <tspan font-size="19" x="8.04004" y="23">apiserver</tspan></text><path d="M873.5 486.334C873.5 475.38 882.38 466.5 893.334 466.5L994.666 466.5C1005.62 466.5 1014.5 475.38 1014.5 486.334L1014.5 565.666C1014.5 576.62 1005.62 585.5 994.666 585.5L893.334 585.5C882.38 585.5 873.5 576.62 873.5 565.666Z" stroke="#ED7D31" stroke-width="1.33333" stroke-miterlimit="8" fill="#FFFFFF" fill-rule="evenodd"/><text fill="#ED7D31" font-family="Calibri,Calibri_MSFontService,sans-serif" font-weight="400" font-size="24" transform="translate(896.318 519)">Metadata <tspan font-size="24" x="16.8733" y="29">match</tspan></text><path d="M800 524 862.941 524 862.941 528 800 528ZM860.941 520 872.941 526 860.941 532Z" fill="#ED7D31"/></g></svg>