<svg width="1280" height="720" xmlns="http://www.w3.org/2000/svg" xmlns:xlink="http://www.w3.org/1999/xlink" overflow="hidden"><defs><clipPath id="clip0"><rect x="0" y="0" width="1280" height="720"/></clipPath></defs><g clip-path="url(#clip0)"><rect x="0" y="0" width="1280" height="720" fill="#FFFFFF"/><path d="M0.500053 9.66691C0.500053 4.60419 4.60418 0.500053 9.66687 0.500053L197.333 0.500053C202.396 0.500053 206.5 4.60419 206.5 9.66691L206.5 46.3332C206.5 51.3959 202.396 55.5 197.333 55.5L9.66687 55.5C4.60418 55.5 0.500053 51.3959 0.500053 46.3332Z" stroke="#AE5A21" stroke-width="1.33333" stroke-miterlimit="8" fill="#ED7D31" fill-rule="evenodd"/><text fill="#FFFFFF" font-family="Calibri,Calibri_MSFontService,sans-serif" font-weight="400" font-size="24" transform="translate(35.7858 35)">deviceVerifier</text><path d="M55.5001 122C55.5001 117.858 58.8579 114.5 63 114.5L501 114.5C505.142 114.5 508.5 117.858 508.5 122L508.5 152C508.5 156.142 505.142 159.5 501 159.5L63 159.5C58.8579 159.5 55.5001 156.142 55.5001 152Z" stroke="#AE5A21" stroke-width="1.33333" stroke-miterlimit="8" fill="#ED7D31" fill-rule="evenodd"/><text fill="#FFFFFF" font-family="Calibri,Calibri_MSFontService,sans-serif" font-weight="400" font-size="24" transform="translate(76.5577 144)">queryMetadata<tspan font-size="24" x="151.353" y="0">(</tspan>conn_type, address, port)</text><path d="M617.5 62.9999C617.5 58.8579 620.858 55.5001 625 55.5001L1264 55.5001C1268.14 55.5001 1271.5 58.8579 1271.5 62.9999L1271.5 93.0002C1271.5 97.1422 1268.14 100.5 1264 100.5L625 100.5C620.858 100.5 617.5 97.1422 617.5 93.0002Z" stroke="#AE5A21" stroke-width="1.33333" stroke-miterlimit="8" fill="#ED7D31" fill-rule="evenodd"/><text fill="#FFFFFF" font-family="Calibri,Calibri_MSFontService,sans-serif" font-weight="400" font-size="24" transform="translate(739.526 85)">querySNMP<tspan font-size="24" x="115.953" y="0">(device, address, </tspan><tspan font-size="24" x="284.853" y="0">snmp</tspan><tspan font-size="24" x="338.687" y="0">Config</tspan><tspan font-size="24" x="400.88" y="0">)</tspan></text><path d="M772.5 158.167C772.5 153.933 775.933 150.5 780.167 150.5L1107.83 150.5C1112.07 150.5 1115.5 153.933 1115.5 158.167L1115.5 188.833C1115.5 193.067 1112.07 196.5 1107.83 196.5L780.167 196.5C775.933 196.5 772.5 193.067 772.5 188.833Z" stroke="#AE5A21" stroke-width="1.33333" stroke-miterlimit="8" fill="#ED7D31" fill-rule="evenodd"/><text fill="#FFFFFF" font-family="Calibri,Calibri_MSFontService,sans-serif" font-weight="400" font-size="24" transform="translate(801.956 181)">query<tspan font-size="24" x="56.62" y="0">ONVIF</tspan>(device, address)</text><path d="M772.5 360C772.5 355.858 775.858 352.5 780 352.5L1108 352.5C1112.14 352.5 1115.5 355.858 1115.5 360L1115.5 390C1115.5 394.142 1112.14 397.5 1108 397.5L780 397.5C775.858 397.5 772.5 394.142 772.5 390Z" stroke="#AE5A21" stroke-width="1.33333" stroke-miterlimit="8" fill="#ED7D31" fill-rule="evenodd"/><text fill="#FFFFFF" font-family="Calibri,Calibri_MSFontService,sans-serif" font-weight="400" font-size="24" transform="translate(793.036 382)">d<tspan font-size="24" x="12.6667" y="0">iscover</tspan>UDEV(device, address)</text><path d="M670.5 253.167C670.5 248.933 673.933 245.5 678.167 245.5L1210.83 245.5C1215.07 245.5 1218.5 248.933 1218.5 253.167L1218.5 283.833C1218.5 288.067 1215.07 291.5 1210.83 291.5L678.167 291.5C673.933 291.5 670.5 288.067 670.5 283.833Z" stroke="#AE5A21" stroke-width="1.33333" stroke-miterlimit="8" fill="#ED7D31" fill-rule="evenodd"/><text fill="#FFFFFF" font-family="Calibri,Calibri_MSFontService,sans-serif" font-weight="400" font-size="24" transform="translate(729.766 276)">query<tspan font-size="24" x="56.62" y="0">OPCUA</tspan><tspan font-size="24" x="126.26" y="0">(device, address</tspan><tspan font-size="24" x="283.66" y="0">, </tspan>deviceConfig)</text><path d="M37.5001 236C37.5001 231.858 40.8578 228.5 44.9998 228.5L521 228.5C525.142 228.5 528.5 231.858 528.5 236L528.5 266C528.5 270.142 525.142 273.5 521 273.5L44.9998 273.5C40.8578 273.5 37.5001 270.142 37.5001 266Z" stroke="#AE5A21" stroke-width="1.33333" stroke-miterlimit="8" fill="#ED7D31" fill-rule="evenodd"/><text fill="#FFFFFF" font-family="Calibri,Calibri_MSFontService,sans-serif" font-weight="400" font-size="24" transform="translate(59.2552 258)">verifyMetadata(<tspan font-size="24" x="156.787" y="0">discoverDevice</tspan>, configDevice)</text><path d="M193.5 399 282.5 350.5 371.5 399 282.5 447.5Z" stroke="#AE5A21" stroke-width="1.33333" stroke-miterlimit="8" fill="#ED7D31" fill-rule="evenodd"/><text fill="#FFFFFF" font-family="Calibri,Calibri_MSFontService,sans-serif" font-weight="400" font-size="24" transform="translate(251.262 392)">Match<tspan font-size="24" x="25.5733" y="29">?</tspan></text><path d="M457.5 377.333C457.5 371.35 462.35 366.5 468.333 366.5L542.667 366.5C548.65 366.5 553.5 371.35 553.5 377.333L553.5 420.667C553.5 426.65 548.65 431.5 542.667 431.5L468.333 431.5C462.35 431.5 457.5 426.65 457.5 420.667Z" stroke="#AE5A21" stroke-width="1.33333" stroke-miterlimit="8" fill="#ED7D31" fill-rule="evenodd"/><text fill="#FFFFFF" font-family="Calibri,Calibri_MSFontService,sans-serif" font-weight="400" font-size="24" transform="translate(478.43 406)">Done</text><path d="M379.5 384.25 420 384.25 420 369.5 449.5 399 420 428.5 420 413.75 379.5 413.75Z" stroke="#AE5A21" stroke-width="1.33333" stroke-miterlimit="8" fill="#ED7D31" fill-rule="evenodd"/><text fill="#FFFFFF" font-family="Calibri,Calibri_MSFontService,sans-serif" font-weight="400" font-size="24" transform="translate(392.43 406)">No</text><path d="M228.5 509.5 255.75 509.5 255.75 461.5 310.25 461.5 310.25 509.5 337.5 509.5 283 557.5Z" stroke="#AE5A21" stroke-width="1.33333" stroke-miterlimit="8" fill="#ED7D31" fill-rule="evenodd"/><text fill="#FFFFFF" font-family="Calibri,Calibri_MSFontService,sans-serif" font-weight="400" font-size="24" transform="translate(266.782 505)">Yes</text><path d="M143.5 603.833C143.5 596.47 149.47 590.5 156.833 590.5L371.167 590.5C378.531 590.5 384.5 596.47 384.5 603.833L384.5 657.167C384.5 664.531 378.531 670.5 371.167 670.5L156.833 670.5C149.47 670.5 143.5 664.531 143.5 657.167Z" stroke="#AE5A21" stroke-width="1.33333" stroke-miterlimit="8" fill="#ED7D31" fill-rule="evenodd"/><text fill="#FFFFFF" font-family="Calibri,Calibri_MSFontService,sans-serif" font-weight="400" font-size="24" transform="translate(226.133 623)">Send to <tspan font-size="24" x="-68.8333" y="29">deviceShifuGenerator</tspan></text><path d="M285 158.94 285.726 207.223 277.727 207.343 277 159.06ZM293.665 203.103 282.027 227.28 269.668 203.464Z" fill="#ED7D31"/><path d="M286 273 286 329.65 278 329.65 278 273ZM294 325.65 282 349.65 270 325.65Z" fill="#ED7D31"/><path d="M0 0 389.138 91.4497" stroke="#ED7D31" stroke-width="4" stroke-miterlimit="8" stroke-dasharray="16 12" fill="none" fill-rule="evenodd" transform="matrix(1 0 0 -1 337 100.45)"/><path d="M492 185 849.56 484.45" stroke="#ED7D31" stroke-width="4" stroke-miterlimit="8" stroke-dasharray="16 12" fill="none" fill-rule="evenodd"/></g></svg>