<svg width="207" height="116" viewBox="0 0 207 116" fill="none" xmlns="http://www.w3.org/2000/svg">
<rect x="6.54688" y="17.8356" width="4.04835" height="20.2417" fill="white"/>
<rect x="28.9531" y="12.1104" width="4.04835" height="66.2468" fill="white"/>
<rect width="4.04834" height="16.1934" transform="matrix(0.707107 0.707106 -0.707107 0.707106 17.9922 6.38379)" fill="white"/>
<rect width="4.04834" height="8.09669" transform="matrix(0.707107 0.707106 -0.707107 0.707106 34.6719 6.38391)" fill="white"/>
<rect width="4.04834" height="16.1934" transform="matrix(-0.707107 0.707106 -0.707107 -0.707106 20.8594 46.6666)" fill="white"/>
<rect x="20.8594" y="66.9059" width="4.04835" height="20.2417" transform="rotate(-180 20.8594 66.9059)" fill="white"/>
<rect x="43.2656" y="78.3577" width="4.04835" height="31.6921" transform="rotate(-180 43.2656 78.3577)" fill="white"/>
<rect x="79.7031" y="66.9059" width="4.04835" height="20.2417" transform="rotate(-180 79.7031 66.9059)" fill="white"/>
<rect x="91.1562" y="78.3575" width="4.04835" height="31.6921" transform="rotate(-180 91.1562 78.3575)" fill="white"/>
<rect x="55.4062" y="78.3575" width="4.04835" height="38.4081" transform="rotate(-180 55.4062 78.3575)" fill="white"/>
<rect width="4.04834" height="16.1934" transform="matrix(-0.707107 0.707106 -0.707107 -0.707106 43.2656 46.6665)" fill="white"/>
<rect width="4.04834" height="16.1934" transform="matrix(-0.707107 0.707106 -0.707107 -0.707106 89.9688 75.4948)" fill="white"/>
<rect width="4.04834" height="16.1934" transform="matrix(-0.707107 -0.707106 0.707108 -0.707106 9.40625 78.3577)" fill="white"/>
<path fill-rule="evenodd" clip-rule="evenodd" d="M53.3864 42.6172C56.5166 42.6172 59.0541 40.0797 59.0541 36.9495C59.0541 33.8194 56.5166 31.2819 53.3864 31.2819C50.2563 31.2819 47.7188 33.8194 47.7188 36.9495C47.7188 40.0797 50.2563 42.6172 53.3864 42.6172ZM53.3835 38.9733C54.5015 38.9733 55.4077 38.067 55.4077 36.9491C55.4077 35.8312 54.5015 34.9249 53.3835 34.9249C52.2656 34.9249 51.3594 35.8312 51.3594 36.9491C51.3594 38.067 52.2656 38.9733 53.3835 38.9733Z" fill="white"/>
<path fill-rule="evenodd" clip-rule="evenodd" d="M20.8552 12.0508C23.9854 12.0508 26.5229 9.5133 26.5229 6.38313C26.5229 3.25296 23.9854 0.715454 20.8552 0.715454C17.725 0.715454 15.1875 3.25296 15.1875 6.38313C15.1875 9.5133 17.725 12.0508 20.8552 12.0508ZM20.8523 8.40686C21.9702 8.40686 22.8765 7.50061 22.8765 6.38269C22.8765 5.26477 21.9702 4.35852 20.8523 4.35852C19.7344 4.35852 18.8281 5.26477 18.8281 6.38269C18.8281 7.50061 19.7344 8.40686 20.8523 8.40686Z" fill="white"/>
<rect width="4.04834" height="16.1934" transform="matrix(0.707107 0.707106 -0.707107 0.707106 74.9531 6.38391)" fill="white"/>
<path fill-rule="evenodd" clip-rule="evenodd" d="M77.8239 12.0508C80.9541 12.0508 83.4916 9.5133 83.4916 6.38313C83.4916 3.25296 80.9541 0.715454 77.8239 0.715454C74.6938 0.715454 72.1562 3.25296 72.1562 6.38313C72.1562 9.5133 74.6938 12.0508 77.8239 12.0508ZM77.821 8.40686C78.939 8.40686 79.8452 7.50061 79.8452 6.38269C79.8452 5.26477 78.939 4.35852 77.821 4.35852C76.7031 4.35852 75.7969 5.26477 75.7969 6.38269C75.7969 7.50061 76.7031 8.40686 77.821 8.40686Z" fill="white"/>
<path fill-rule="evenodd" clip-rule="evenodd" d="M6.54269 84.0246C9.67286 84.0246 12.2104 81.4871 12.2104 78.3569C12.2104 75.2268 9.67286 72.6893 6.54269 72.6893C3.41251 72.6893 0.875 75.2268 0.875 78.3569C0.875 81.4871 3.41251 84.0246 6.54269 84.0246ZM6.5398 80.3821C7.65772 80.3821 8.56397 79.4759 8.56397 78.358C8.56397 77.2401 7.65772 76.3338 6.5398 76.3338C5.42188 76.3338 4.51562 77.2401 4.51562 78.358C4.51562 79.4759 5.42188 80.3821 6.5398 80.3821Z" fill="white"/>
<rect x="67.5547" y="98.5986" width="4.04835" height="80.7633" transform="rotate(-180 67.5547 98.5986)" fill="white"/>
<rect width="4.04834" height="16.1934" transform="matrix(-0.707107 -0.707106 0.707108 -0.707106 56.1094 110.047)" fill="white"/>
<path fill-rule="evenodd" clip-rule="evenodd" d="M53.2458 115.718C56.376 115.718 58.9135 113.181 58.9135 110.051C58.9135 106.92 56.376 104.383 53.2458 104.383C50.1156 104.383 47.5781 106.92 47.5781 110.051C47.5781 113.181 50.1156 115.718 53.2458 115.718ZM53.2429 112.077C54.3608 112.077 55.2671 111.171 55.2671 110.053C55.2671 108.935 54.3608 108.029 53.2429 108.029C52.125 108.029 51.2188 108.935 51.2188 110.053C51.2188 111.171 52.125 112.077 53.2429 112.077Z" fill="white"/>
<ellipse cx="65.5317" cy="46.6631" rx="4.35197" ry="4.35197" fill="white"/>
<path d="M173.736 66.9047H169.688L169.688 45.9684L173.736 45.9684L173.736 66.9047Z" fill="white"/>
<path d="M185.186 78.3551H181.138L181.138 45.9684L185.186 45.9684L185.186 78.3551Z" fill="white"/>
<path d="M184.001 75.4925L181.138 78.3551L169.688 66.9047L172.55 64.0421L184.001 75.4925Z" fill="white"/>
<path d="M152.166 78.3551H148.117L148.117 45.9684L152.166 45.9684L152.166 78.3551Z" fill="white"/>
<path d="M163.616 66.9047H159.568L159.568 57.4188L163.616 57.4188L163.616 66.9047Z" fill="white"/>
<path d="M163.616 57.4188L160.753 60.2814L149.303 48.831L152.166 45.9684L163.616 57.4188Z" fill="white"/>
<path d="M152.166 78.3551L149.303 75.4925L160.753 64.0421L163.616 66.9047L152.166 78.3551Z" fill="white"/>
<path d="M202.708 17.8209H206.757V78.3575H202.708V17.8209Z" fill="white"/>
<path d="M191.258 57.4212H195.306V66.9071H191.258V57.4212Z" fill="white"/>
<path d="M191.258 66.907L194.12 64.0444L205.571 75.4949L202.708 78.3575L191.258 66.907Z" fill="white"/>
<path d="M202.708 45.9708L205.571 48.8334L194.12 60.2838L191.258 57.4212L202.708 45.9708Z" fill="white"/>
<path d="M131.783 66.907H127.734L127.734 17.8209L131.783 17.8209L131.783 66.907Z" fill="white"/>
<path d="M142.047 75.4948L139.185 78.3574L127.734 66.907L130.597 64.0444L142.047 75.4948Z" fill="white"/>
<path d="M107.344 29.2714H111.392V66.907H107.344V29.2714Z" fill="white"/>
<path d="M118.794 17.8209L121.657 20.6835L110.206 32.134L107.344 29.2714L118.794 17.8209Z" fill="white"/>
<path d="M121.657 75.4949L118.794 78.3575L107.344 66.907L110.206 64.0444L121.657 75.4949Z" fill="white"/>
</svg>
