<svg width="1280" height="720" xmlns="http://www.w3.org/2000/svg" xmlns:xlink="http://www.w3.org/1999/xlink" overflow="hidden"><defs><clipPath id="clip0"><rect x="0" y="0" width="1280" height="720"/></clipPath></defs><g clip-path="url(#clip0)"><rect x="0" y="0" width="1280" height="720" fill="#FFFFFF"/><path d="M510.5 183.5C510.5 178.53 514.53 174.5 519.5 174.5L707.5 174.5C712.471 174.5 716.5 178.53 716.5 183.5L716.5 219.5C716.5 224.471 712.471 228.5 707.5 228.5L519.5 228.5C514.53 228.5 510.5 224.471 510.5 219.5Z" stroke="#AE5A21" stroke-width="1.33333" stroke-miterlimit="8" fill="#ED7D31" fill-rule="evenodd"/><text fill="#FFFFFF" font-family="Calibri,Calibri_MSFontService,sans-serif" font-weight="400" font-size="24" transform="translate(529.894 208)">deviceDiscoverer</text><path d="M233.5 112.334C233.5 106.903 237.903 102.5 243.334 102.5L371.667 102.5C377.097 102.5 381.5 106.903 381.5 112.334L381.5 151.667C381.5 157.097 377.097 161.5 371.667 161.5L243.334 161.5C237.903 161.5 233.5 157.097 233.5 151.667Z" stroke="#2F528F" stroke-width="1.33333" stroke-miterlimit="8" fill="#4472C4" fill-rule="evenodd"/><text fill="#FFFFFF" font-family="Calibri,Calibri_MSFontService,sans-serif" font-weight="400" font-size="24" transform="translate(251.673 125)">Kubernetes <tspan font-size="24" x="2.27333" y="29">ConfigMap</tspan></text><path d="M381.947 130.238 501.727 194.64 499.832 198.163 380.053 133.762ZM501.859 190.17 509.587 201.138 496.177 200.739Z" fill="#ED7D31"/><path d="M510.5 306.667C510.5 301.604 514.604 297.5 519.667 297.5L707.333 297.5C712.396 297.5 716.5 301.604 716.5 306.667L716.5 343.333C716.5 348.396 712.396 352.5 707.333 352.5L519.667 352.5C514.604 352.5 510.5 348.396 510.5 343.333Z" stroke="#AE5A21" stroke-width="1.33333" stroke-miterlimit="8" fill="#ED7D31" fill-rule="evenodd"/><text fill="#FFFFFF" font-family="Calibri,Calibri_MSFontService,sans-serif" font-weight="400" font-size="24" transform="translate(545.731 332)">deviceVerifier</text><path d="M495.5 430.667C495.5 425.604 499.604 421.5 504.667 421.5L722.333 421.5C727.396 421.5 731.5 425.604 731.5 430.667L731.5 467.333C731.5 472.396 727.396 476.5 722.333 476.5L504.667 476.5C499.604 476.5 495.5 472.396 495.5 467.333Z" stroke="#AE5A21" stroke-width="1.33333" stroke-miterlimit="8" fill="#ED7D31" fill-rule="evenodd"/><text fill="#FFFFFF" font-family="Calibri,Calibri_MSFontService,sans-serif" font-weight="400" font-size="24" transform="translate(507.024 456)">deviceShifuGenerator</text><path d="M615 228 615 287.284 611 287.284 611 228ZM619 285.284 613 297.284 607 285.284Z" fill="#ED7D31"/><path d="M2-3.03061e-06 2.00009 59.2844-1.99991 59.2844-2 3.03061e-06ZM6.00009 57.2844 0.000104987 69.2844-5.99991 57.2844Z" fill="#ED7D31" transform="matrix(-1 0 0 1 613 352)"/><path d="M615 476 615 535.651 611 535.651 611 476ZM619 533.651 613 545.651 607 533.651Z" fill="#ED7D31"/><path d="M539.5 556.334C539.5 550.903 543.903 546.5 549.334 546.5L677.667 546.5C683.097 546.5 687.5 550.903 687.5 556.334L687.5 595.667C687.5 601.097 683.097 605.5 677.667 605.5L549.334 605.5C543.903 605.5 539.5 601.097 539.5 595.667Z" stroke="#2F528F" stroke-width="1.33333" stroke-miterlimit="8" fill="#4472C4" fill-rule="evenodd"/><text fill="#FFFFFF" font-family="Calibri,Calibri_MSFontService,sans-serif" font-weight="400" font-size="24" transform="translate(557.287 568)">Kubernetes <tspan font-size="24" x="39.62" y="29">API</tspan></text><path d="M790.263 446.785 799.451 446.098 799.144 446.145 808.206 444.02 807.968 444.092 816.905 440.779 816.686 440.876 825.436 436.376 825.241 436.491 833.678 430.866 833.524 430.98 841.649 424.355 841.516 424.473 849.204 416.973 849.077 417.109 856.202 408.734 856.111 408.849 862.736 399.787 862.645 399.922 868.583 390.235 868.503 390.377 873.691 380.127 873.628 380.263 878.066 369.575 878.009 369.729 881.571 358.667 881.529 358.817 884.217 347.505 884.182 347.687 885.807 336.187 885.79 336.371 886.353 324.746 886.353 324.95 885.728 313.325 885.753 313.549 883.815 302.049 883.857 302.24 880.795 290.927 880.851 291.104 876.726 280.041 876.797 280.207 871.672 269.52 871.754 269.673 865.691 259.423 865.782 259.562 858.907 249.875 859.007 250.005 851.382 240.942 851.499 241.069 843.186 232.756 843.304 232.865 834.491 225.365 834.633 225.476 825.258 218.851 825.418 218.952 815.606 213.327 815.788 213.42 805.663 208.92 805.867 208.997 795.492 205.685 795.745 205.748 784.588 203.734 785.299 199.797 796.584 201.835 807.188 205.22 817.506 209.806 827.49 215.529 837.015 222.261 845.958 229.871 854.388 238.301 862.121 247.493 869.092 257.315 875.241 267.711 880.443 278.559 884.632 289.793 887.744 301.289 889.716 312.997 890.353 324.837 889.781 336.656 888.13 348.339 885.403 359.818 881.791 371.033 877.294 381.866 872.035 392.255 866.013 402.082 859.296 411.27 852.063 419.771 844.246 427.398 835.977 434.141 827.365 439.882 818.408 444.488 809.241 447.886 799.905 450.075 790.562 450.774ZM786.458 207.906 774.975 200.967 787.416 195.944Z" fill="#ED7D31"/></g></svg>