<svg width="1280" height="720" xmlns="http://www.w3.org/2000/svg" xmlns:xlink="http://www.w3.org/1999/xlink" overflow="hidden"><defs><clipPath id="clip0"><rect x="0" y="0" width="1280" height="720"/></clipPath></defs><g clip-path="url(#clip0)"><rect x="0" y="0" width="1280" height="720" fill="#FFFFFF"/><path d="M0.500053 9.66691C0.500053 4.60419 4.60418 0.500053 9.66687 0.500053L197.333 0.500053C202.396 0.500053 206.5 4.60419 206.5 9.66691L206.5 46.3332C206.5 51.3959 202.396 55.5 197.333 55.5L9.66687 55.5C4.60418 55.5 0.500053 51.3959 0.500053 46.3332Z" stroke="#AE5A21" stroke-width="1.33333" stroke-miterlimit="8" fill="#ED7D31" fill-rule="evenodd"/><text fill="#FFFFFF" font-family="Calibri,Calibri_MSFontService,sans-serif" font-weight="400" font-size="24" transform="translate(19.9492 35)">deviceDiscoverer</text><path d="M168.5 107.5C168.5 104.186 171.186 101.5 174.5 101.5L340.5 101.5C343.814 101.5 346.5 104.186 346.5 107.5L346.5 131.5C346.5 134.814 343.814 137.5 340.5 137.5L174.5 137.5C171.186 137.5 168.5 134.814 168.5 131.5Z" stroke="#AE5A21" stroke-width="1.33333" stroke-miterlimit="8" fill="#ED7D31" fill-rule="evenodd"/><text fill="#FFFFFF" font-family="Calibri,Calibri_MSFontService,sans-serif" font-weight="400" font-size="24" transform="translate(189.118 126)">List of devices</text><path d="M78.5001 193.167C78.5001 188.933 81.9326 185.5 86.1669 185.5L429.833 185.5C434.067 185.5 437.5 188.933 437.5 193.167L437.5 223.833C437.5 228.067 434.067 231.5 429.833 231.5L86.1669 231.5C81.9326 231.5 78.5001 228.067 78.5001 223.833Z" stroke="#AE5A21" stroke-width="1.33333" stroke-miterlimit="8" fill="#ED7D31" fill-rule="evenodd"/><text fill="#FFFFFF" font-family="Calibri,Calibri_MSFontService,sans-serif" font-weight="400" font-size="24" transform="translate(113.771 216)">deviceDiscoverer(<tspan font-size="24" x="173.527" y="0">list</tspan><tspan font-size="24" x="207.093" y="0">devices)</tspan></text><path d="M12.5001 287.167C12.5001 282.933 15.9326 279.5 20.1668 279.5L495.833 279.5C500.068 279.5 503.5 282.933 503.5 287.167L503.5 317.833C503.5 322.068 500.068 325.5 495.833 325.5L20.1668 325.5C15.9326 325.5 12.5001 322.068 12.5001 317.833Z" stroke="#AE5A21" stroke-width="1.33333" stroke-miterlimit="8" fill="#ED7D31" fill-rule="evenodd"/><text fill="#FFFFFF" font-family="Calibri,Calibri_MSFontService,sans-serif" font-weight="400" font-size="24" transform="translate(28.9781 310)">discoverDevice(protocol, device, address, port)</text><path d="M179.5 411 258 362.5 336.5 411 258 459.5Z" stroke="#AE5A21" stroke-width="1.33333" stroke-miterlimit="8" fill="#ED7D31" fill-rule="evenodd"/><text fill="#FFFFFF" font-family="Calibri,Calibri_MSFontService,sans-serif" font-weight="400" font-size="24" transform="translate(227.874 418)">Alive?</text><path d="M431.5 389.333C431.5 383.35 436.35 378.5 442.333 378.5L516.667 378.5C522.65 378.5 527.5 383.35 527.5 389.333L527.5 432.667C527.5 438.65 522.65 443.5 516.667 443.5L442.333 443.5C436.35 443.5 431.5 438.65 431.5 432.667Z" stroke="#AE5A21" stroke-width="1.33333" stroke-miterlimit="8" fill="#ED7D31" fill-rule="evenodd"/><text fill="#FFFFFF" font-family="Calibri,Calibri_MSFontService,sans-serif" font-weight="400" font-size="24" transform="translate(453.183 418)">Done</text><path d="M154.5 595.833C154.5 589.574 159.574 584.5 165.833 584.5L328.167 584.5C334.426 584.5 339.5 589.574 339.5 595.833L339.5 641.167C339.5 647.426 334.426 652.5 328.167 652.5L165.833 652.5C159.574 652.5 154.5 647.426 154.5 641.167Z" stroke="#AE5A21" stroke-width="1.33333" stroke-miterlimit="8" fill="#ED7D31" fill-rule="evenodd"/><text fill="#FFFFFF" font-family="Calibri,Calibri_MSFontService,sans-serif" font-weight="400" font-size="24" transform="translate(209.252 611)">Send to <tspan font-size="24" x="-30.1267" y="29">deviceVerifier</tspan></text><path d="M346.5 396.25 387 396.25 387 381.5 416.5 411 387 440.5 387 425.75 346.5 425.75Z" stroke="#AE5A21" stroke-width="1.33333" stroke-miterlimit="8" fill="#ED7D31" fill-rule="evenodd"/><text fill="#FFFFFF" font-family="Calibri,Calibri_MSFontService,sans-serif" font-weight="400" font-size="24" transform="translate(359.403 418)">No</text><path d="M203.5 521.5 230.5 521.5 230.5 473.5 284.5 473.5 284.5 521.5 311.5 521.5 257.5 569.5Z" stroke="#AE5A21" stroke-width="1.33333" stroke-miterlimit="8" fill="#ED7D31" fill-rule="evenodd"/><text fill="#FFFFFF" font-family="Calibri,Calibri_MSFontService,sans-serif" font-weight="400" font-size="24" transform="translate(241.534 517)">Yes</text><path d="M261 137 261 165.587 253 165.587 253 137ZM269 161.587 257 185.587 245 161.587Z" fill="#ED7D31"/><path d="M261 230.958 261.302 259.546 253.302 259.63 253 231.042ZM269.259 255.462 257.514 279.587 245.261 255.715Z" fill="#ED7D31"/><path d="M3.99962-0.0551062 4.23779 17.2313-3.76145 17.3415-3.99962 0.0551062ZM12.1819 13.1215 0.513701 37.2845-11.8158 13.4521Z" fill="#ED7D31" transform="matrix(-1 0 0 1 257.514 325)"/><path d="M785.5 105.167C785.5 100.933 788.933 97.5001 793.167 97.5001L1075.83 97.5001C1080.07 97.5001 1083.5 100.933 1083.5 105.167L1083.5 135.833C1083.5 140.068 1080.07 143.5 1075.83 143.5L793.167 143.5C788.933 143.5 785.5 140.068 785.5 135.833Z" stroke="#AE5A21" stroke-width="1.33333" stroke-miterlimit="8" fill="#ED7D31" fill-rule="evenodd"/><text fill="#FFFFFF" font-family="Calibri,Calibri_MSFontService,sans-serif" font-weight="400" font-size="24" transform="translate(803.545 128)">d<tspan font-size="24" x="12.6667" y="0">iscover</tspan>TCP<tspan font-size="24" x="117.3" y="0">(address, port)</tspan></text><path d="M834.5 201.167C834.5 196.933 837.933 193.5 842.167 193.5L1026.83 193.5C1031.07 193.5 1034.5 196.933 1034.5 201.167L1034.5 231.833C1034.5 236.067 1031.07 239.5 1026.83 239.5L842.167 239.5C837.933 239.5 834.5 236.067 834.5 231.833Z" stroke="#AE5A21" stroke-width="1.33333" stroke-miterlimit="8" fill="#ED7D31" fill-rule="evenodd"/><text fill="#FFFFFF" font-family="Calibri,Calibri_MSFontService,sans-serif" font-weight="400" font-size="24" transform="translate(855.058 223)">d<tspan font-size="24" x="12.6666" y="0">iscover</tspan>ONVIF()</text><path d="M813.5 402.167C813.5 397.933 816.933 394.5 821.167 394.5L1047.83 394.5C1052.07 394.5 1055.5 397.933 1055.5 402.167L1055.5 432.833C1055.5 437.068 1052.07 440.5 1047.83 440.5L821.167 440.5C816.933 440.5 813.5 437.068 813.5 432.833Z" stroke="#AE5A21" stroke-width="1.33333" stroke-miterlimit="8" fill="#ED7D31" fill-rule="evenodd"/><text fill="#FFFFFF" font-family="Calibri,Calibri_MSFontService,sans-serif" font-weight="400" font-size="24" transform="translate(826.785 425)">d<tspan font-size="24" x="12.6667" y="0">iscover</tspan>UDEV(device)</text><path d="M660.5 296.167C660.5 291.933 663.933 288.5 668.167 288.5L1200.83 288.5C1205.07 288.5 1208.5 291.933 1208.5 296.167L1208.5 326.833C1208.5 331.067 1205.07 334.5 1200.83 334.5L668.167 334.5C663.933 334.5 660.5 331.067 660.5 326.833Z" stroke="#AE5A21" stroke-width="1.33333" stroke-miterlimit="8" fill="#ED7D31" fill-rule="evenodd"/><text fill="#FFFFFF" font-family="Calibri,Calibri_MSFontService,sans-serif" font-weight="400" font-size="24" transform="translate(685.722 318)">d<tspan font-size="24" x="12.6667" y="0">iscover</tspan>OPCUA<tspan font-size="24" x="150.6" y="0">(device, address</tspan><tspan font-size="24" x="308" y="0">, </tspan>opcuaCredentials)</text><path d="M0 0 199.339 234.935" stroke="#ED7D31" stroke-width="4" stroke-miterlimit="8" stroke-dasharray="16 12" fill="none" fill-rule="evenodd" transform="matrix(1 0 0 -1 461 254.935)"/><path d="M496 334 850.936 502.367" stroke="#ED7D31" stroke-width="4" stroke-miterlimit="8" stroke-dasharray="16 12" fill="none" fill-rule="evenodd"/></g></svg>