<svg width="1712" height="1149" viewBox="0 0 1712 1149" fill="none" xmlns="http://www.w3.org/2000/svg">
<g clip-path="url(#clip0_5377_120)">
<path d="M1512.29 398.296V711.703H1416.25V669.017C1406.51 682.871 1393.22 694.104 1376.37 702.717C1359.89 710.954 1341.55 715.073 1321.33 715.073C1297.36 715.073 1276.21 709.831 1257.86 699.347C1239.51 688.488 1225.28 672.949 1215.17 652.729C1205.06 632.509 1200.01 608.732 1200.01 581.398V398.296H1295.49V568.479C1295.49 589.448 1300.92 605.736 1311.78 617.344C1322.64 628.952 1337.24 634.756 1355.59 634.756C1374.31 634.756 1389.1 628.952 1399.96 617.344C1410.82 605.736 1416.25 589.448 1416.25 568.479V398.296H1512.29Z" fill="url(#paint0_linear_5377_120)"/>
<path d="M928.011 365.721C911.162 365.721 897.307 360.853 886.448 351.118C875.964 341.008 870.722 328.651 870.722 314.048C870.722 299.07 875.964 286.714 886.448 276.978C897.307 266.868 911.162 261.813 928.011 261.813C944.487 261.813 957.967 266.868 968.451 276.978C979.31 286.714 984.739 299.07 984.739 314.048C984.739 328.651 979.31 341.008 968.451 351.118C957.967 360.853 944.487 365.721 928.011 365.721ZM975.753 398.297V711.705H879.709V398.297H975.753Z" fill="url(#paint1_linear_5377_120)"/>
<path d="M716.361 394.928C752.307 394.928 781.139 406.91 802.857 430.874C824.574 454.464 835.433 487.04 835.433 528.603V711.705H739.951V541.521C739.951 520.553 734.521 504.265 723.662 492.657C712.804 481.049 698.2 475.245 679.853 475.245C661.505 475.245 646.902 481.049 636.043 492.657C625.184 504.265 619.755 520.553 619.755 541.521V711.705H523.711V296.075H619.755V440.422C629.49 426.568 642.783 415.522 659.633 407.284C676.483 399.047 695.392 394.928 716.361 394.928Z" fill="url(#paint2_linear_5377_120)"/>
<path d="M343.285 715.637C314.453 715.637 288.617 710.956 265.776 701.595C242.935 692.234 224.588 678.38 210.733 660.032C197.253 641.684 190.139 619.592 189.39 593.756H291.613C293.11 608.359 298.165 619.592 306.777 627.456C315.39 634.944 326.623 638.689 340.477 638.689C354.706 638.689 365.939 635.506 374.177 629.141C382.415 622.401 386.533 613.227 386.533 601.619C386.533 591.884 383.163 583.833 376.424 577.468C370.058 571.102 362.008 565.86 352.272 561.741C342.911 557.622 329.431 552.942 311.832 547.7C286.37 539.836 265.589 531.973 249.488 524.11C233.387 516.247 219.533 504.639 207.925 489.287C196.317 473.935 190.513 453.902 190.513 429.189C190.513 392.494 203.806 363.849 230.391 343.255C256.977 322.286 291.613 311.802 334.299 311.802C377.734 311.802 412.744 322.286 439.33 343.255C465.915 363.849 480.144 392.681 482.016 429.751H378.109C377.36 417.02 372.679 407.097 364.067 399.983C355.455 392.494 344.409 388.749 330.929 388.749C319.321 388.749 309.96 391.932 302.846 398.298C295.731 404.289 292.174 413.088 292.174 424.696C292.174 437.427 298.165 447.349 310.147 454.464C322.13 461.578 340.852 469.254 366.314 477.492C391.776 486.104 412.37 494.342 428.096 502.205C444.197 510.068 458.052 521.489 469.659 536.466C481.267 551.444 487.071 570.728 487.071 594.318C487.071 616.784 481.267 637.191 469.659 655.539C458.426 673.886 441.951 688.49 420.233 699.348C398.516 710.207 372.866 715.637 343.285 715.637Z" fill="url(#paint3_linear_5377_120)"/>
<path d="M1524.52 0.271484C1628.01 0.271514 1711.9 84.1611 1711.9 187.645V842.572C1711.9 946.056 1628.01 1029.95 1524.52 1029.95H1170.04V1029.8H1126.12C1074.38 1029.8 1032.43 987.856 1032.43 936.114V478.053H997.613V398.297H1032.43V389.311C1032.43 350.743 1043.48 321.537 1065.57 301.691C1087.67 281.472 1120.05 271.361 1162.74 271.361C1169.85 271.361 1175.1 271.548 1178.47 271.923V353.364C1160.12 352.241 1147.2 354.862 1139.71 361.228C1132.22 367.593 1128.48 379.013 1128.48 395.488V398.297H1180.15V478.053H1128.48V888.483C1129.15 914.903 1150.78 936.114 1177.36 936.114V936.259H1524.52C1576.27 936.259 1618.21 894.314 1618.21 842.572V187.645C1618.21 136.307 1576.92 94.6142 1525.73 93.9658L1524.52 93.958H187.733C135.991 93.9582 94.0462 135.903 94.0461 187.645V842.572C94.0461 894.314 135.991 936.259 187.733 936.259H562.245V1029.95H187.733C84.2495 1029.95 0.359619 946.056 0.359619 842.572V187.645C0.359672 84.1613 84.2495 0.271667 187.733 0.271484H1524.52Z" fill="url(#paint4_linear_5377_120)"/>
<circle cx="638.454" cy="981.201" r="119.304" stroke="url(#paint5_linear_5377_120)" stroke-width="96.0288"/>
</g>
<defs>
<linearGradient id="paint0_linear_5377_120" x1="1356.15" y1="398.296" x2="1356.15" y2="715.073" gradientUnits="userSpaceOnUse">
<stop stop-color="#0E97FF"/>
<stop offset="1" stop-color="#3DCCF7"/>
</linearGradient>
<linearGradient id="paint1_linear_5377_120" x1="927.731" y1="261.813" x2="927.731" y2="711.705" gradientUnits="userSpaceOnUse">
<stop stop-color="#0E97FF"/>
<stop offset="1" stop-color="#3DCCF7"/>
</linearGradient>
<linearGradient id="paint2_linear_5377_120" x1="679.572" y1="296.075" x2="679.572" y2="711.705" gradientUnits="userSpaceOnUse">
<stop stop-color="#0E97FF"/>
<stop offset="1" stop-color="#3DCCF7"/>
</linearGradient>
<linearGradient id="paint3_linear_5377_120" x1="338.231" y1="311.802" x2="338.231" y2="715.637" gradientUnits="userSpaceOnUse">
<stop stop-color="#0E97FF"/>
<stop offset="1" stop-color="#3DCCF7"/>
</linearGradient>
<linearGradient id="paint4_linear_5377_120" x1="856.128" y1="0.271484" x2="856.128" y2="1029.95" gradientUnits="userSpaceOnUse">
<stop stop-color="#0B93FF"/>
<stop offset="1" stop-color="#3DCCF7"/>
</linearGradient>
<linearGradient id="paint5_linear_5377_120" x1="638.454" y1="1100.5" x2="638.454" y2="861.896" gradientUnits="userSpaceOnUse">
<stop stop-color="#3DCCF7"/>
<stop offset="1" stop-color="#39C7F8"/>
</linearGradient>
<clipPath id="clip0_5377_120">
<rect width="1711.54" height="1148.25" fill="white" transform="translate(0.359619 0.272461)"/>
</clipPath>
</defs>
</svg>
