<svg width="1280" height="720" xmlns="http://www.w3.org/2000/svg" xmlns:xlink="http://www.w3.org/1999/xlink" overflow="hidden"><defs><clipPath id="clip0"><rect x="0" y="0" width="1280" height="720"/></clipPath></defs><g clip-path="url(#clip0)"><rect x="0" y="0" width="1280" height="720" fill="#FFFFFF"/><path d="M0.500053 9.66698C0.500053 4.60422 4.60421 0.500053 9.66695 0.500053L228.333 0.500053C233.396 0.500053 237.5 4.60422 237.5 9.66698L237.5 46.3331C237.5 51.3959 233.396 55.5 228.333 55.5L9.66695 55.5C4.60421 55.5 0.500053 51.3959 0.500053 46.3331Z" stroke="#AE5A21" stroke-width="1.33333" stroke-miterlimit="8" fill="#ED7D31" fill-rule="evenodd"/><text fill="#FFFFFF" font-family="Calibri,Calibri_MSFontService,sans-serif" font-weight="400" font-size="24" transform="translate(12.492 35)">deviceShifuGenerator</text><path d="M55.5001 419.167C55.5001 414.932 58.9324 411.5 63.1665 411.5L500.834 411.5C505.068 411.5 508.5 414.932 508.5 419.167L508.5 449.834C508.5 454.068 505.068 457.5 500.834 457.5L63.1665 457.5C58.9324 457.5 55.5001 454.068 55.5001 449.834Z" stroke="#AE5A21" stroke-width="1.33333" stroke-miterlimit="8" fill="#ED7D31" fill-rule="evenodd"/><text fill="#FFFFFF" font-family="Calibri,Calibri_MSFontService,sans-serif" font-weight="400" font-size="24" transform="translate(80.341 441)">generateDeviceResource(<tspan font-size="24" x="248.6" y="0">discoverDevice</tspan><tspan font-size="24" x="394.773" y="0">)</tspan></text><path d="M55.5001 93.1666C55.5001 88.9325 58.9324 85.5001 63.1665 85.5001L500.834 85.5001C505.068 85.5001 508.5 88.9325 508.5 93.1666L508.5 123.834C508.5 128.068 505.068 131.5 500.834 131.5L63.1665 131.5C58.9324 131.5 55.5001 128.068 55.5001 123.834Z" stroke="#AE5A21" stroke-width="1.33333" stroke-miterlimit="8" fill="#ED7D31" fill-rule="evenodd"/><text fill="#FFFFFF" font-family="Calibri,Calibri_MSFontService,sans-serif" font-weight="400" font-size="24" transform="translate(128.918 116)">verifyResource<tspan font-size="24" x="144.113" y="0">(</tspan><tspan font-size="24" x="151.447" y="0">discoverDevice</tspan>)</text><path d="M192.5 234 281.5 185.5 370.5 234 281.5 282.5Z" stroke="#AE5A21" stroke-width="1.33333" stroke-miterlimit="8" fill="#ED7D31" fill-rule="evenodd"/><text fill="#FFFFFF" font-family="Calibri,Calibri_MSFontService,sans-serif" font-weight="400" font-size="24" transform="translate(252.061 241)">Valid?</text><path d="M455.5 213.167C455.5 207.276 460.276 202.5 466.167 202.5L540.833 202.5C546.724 202.5 551.5 207.276 551.5 213.167L551.5 255.833C551.5 261.724 546.724 266.5 540.833 266.5L466.167 266.5C460.276 266.5 455.5 261.724 455.5 255.833Z" stroke="#AE5A21" stroke-width="1.33333" stroke-miterlimit="8" fill="#ED7D31" fill-rule="evenodd"/><text fill="#FFFFFF" font-family="Calibri,Calibri_MSFontService,sans-serif" font-weight="400" font-size="24" transform="translate(477.403 241)">Done</text><path d="M378.5 219.25 419 219.25 419 204.5 448.5 234 419 263.5 419 248.75 378.5 248.75Z" stroke="#AE5A21" stroke-width="1.33333" stroke-miterlimit="8" fill="#ED7D31" fill-rule="evenodd"/><text fill="#FFFFFF" font-family="Calibri,Calibri_MSFontService,sans-serif" font-weight="400" font-size="24" transform="translate(391.403 241)">No</text><path d="M227.5 345 254.75 345 254.75 296.5 309.25 296.5 309.25 345 336.5 345 282 393.5Z" stroke="#AE5A21" stroke-width="1.33333" stroke-miterlimit="8" fill="#ED7D31" fill-rule="evenodd"/><text fill="#FFFFFF" font-family="Calibri,Calibri_MSFontService,sans-serif" font-weight="400" font-size="24" transform="translate(265.754 340)">Yes</text><path d="M285 131 285 165.175 277 165.175 277 131ZM293 161.175 281 185.175 269 161.175Z" fill="#ED7D31"/><path d="M55.5001 545.167C55.5001 540.932 58.9324 537.5 63.1665 537.5L500.834 537.5C505.068 537.5 508.5 540.932 508.5 545.167L508.5 575.834C508.5 580.068 505.068 583.5 500.834 583.5L63.1665 583.5C58.9324 583.5 55.5001 580.068 55.5001 575.834Z" stroke="#AE5A21" stroke-width="1.33333" stroke-miterlimit="8" fill="#ED7D31" fill-rule="evenodd"/><text fill="#FFFFFF" font-family="Calibri,Calibri_MSFontService,sans-serif" font-weight="400" font-size="24" transform="translate(100.631 568)">operateKubernetesAPI(create, YAML)</text><path d="M285 457 285 517.458 277 517.458 277 457ZM293 513.458 281 537.458 269 513.458Z" fill="#ED7D31"/><rect x="748.5" y="131.5" width="321" height="384" stroke="#AE5A21" stroke-width="1.33333" stroke-miterlimit="8" fill="#ED7D31"/><text fill="#FFFFFF" font-family="Calibri,Calibri_MSFontService,sans-serif" font-weight="400" font-size="15" transform="translate(757.343 150)">apiVersion<tspan font-size="15" x="63.1667" y="0">: v1</tspan><tspan font-size="15" x="0" y="17">kind: </tspan><tspan font-size="15" x="32.6667" y="17">edgeDevice</tspan><tspan font-size="15" x="0" y="35">metadata:</tspan><tspan font-size="15" x="6.66669" y="53">name: </tspan>shifu<tspan font-size="15" x="76.5" y="53">-</tspan>deviceA<tspan font-size="15" x="6.66669" y="70">labels:</tspan><tspan font-size="15" x="13.3334" y="88">connection: USB</tspan><tspan font-size="15" x="13.3334" y="105">location: /</tspan><tspan font-size="15" x="74" y="105">tty</tspan><tspan font-size="15" x="90.3334" y="105">/USB1</tspan><tspan font-size="15" x="13.3334" y="123">protocol: MQTT</tspan><tspan font-size="15" x="0" y="141">spec:</tspan><tspan font-size="15" x="6.66669" y="158">containers:</tspan><tspan font-size="15" x="13.3334" y="176">-</tspan><tspan font-size="15" x="21.1667" y="176">name: </tspan>shifu<tspan font-size="15" x="91" y="176">-</tspan>deviceA<tspan font-size="15" x="20" y="193">image: </tspan>shifu<tspan font-size="15" x="92.3334" y="193">-</tspan>t<tspan font-size="15" x="101.667" y="193">-</tspan>sensor</text><path d="M0 0 306.165 353.174" stroke="#ED7D31" stroke-width="4" stroke-miterlimit="8" stroke-dasharray="16 12" fill="none" fill-rule="evenodd" transform="matrix(1 0 0 -1 485 378.174)"/><path d="M478 473 983.248 613.037" stroke="#ED7D31" stroke-width="4" stroke-miterlimit="8" stroke-dasharray="16 12" fill="none" fill-rule="evenodd"/></g></svg>